<?xml version="1.0" standalone="no"?>
<!DOCTYPE svg PUBLIC "-//W3C//DTD SVG 1.1//EN" "http://www.w3.org/Graphics/SVG/1.1/DTD/svg11.dtd" >
<svg>
<metadata>
Created by FontForge 20090914 at Tue Jan  8 08:02:45 2019
 By www-data
Copyright &#194;&#169; 2015 by Pascal Zoghbi. All rights reserved.
</metadata>
<defs>
<font id="ExpoArabic-Book" horiz-adv-x="0" >
  <font-face 
    font-family="Expo Arabic Book"
    font-weight="400"
    font-stretch="normal"
    units-per-em="1000"
    panose-1="0 0 5 0 0 0 0 0 0 0"
    ascent="750"
    descent="-250"
    x-height="500"
    cap-height="687"
    bbox="-192.001 -487.999 1372 1103"
    underline-thickness="37"
    underline-position="-150"
    unicode-range="U+0020-U+FEFC"
  />
<missing-glyph horiz-adv-x="292" 
 />
    <glyph glyph-name="uniFEF5" unicode="&#xfedf;&#xfe82;" horiz-adv-x="661" arabic-form="isolated" 
d="M139 692c-12.667 0 -23.166 -3.5 -31.499 -10.5s-13.5 -16.5 -15.5 -28.5h-48c0.666992 28.667 9 52 25 70s37 27 63 27c15.333 0 36 -6.16699 62 -18.5s47 -18.5 63 -18.5c27.333 0 53 7.66699 77 23l-1 -58c-24.667 -15.333 -50.334 -23 -77.001 -23
c-16.667 0 -37 6.16699 -61 18.5s-42.667 18.5 -56 18.5zM490.001 717l85 13v-530c0 -133.333 -70.333 -200 -211 -200h-1h-330l-16 90h237l-100 488l84 21l96 -509h29h1c84 0 126 43.333 126 130v497z" />
    <glyph glyph-name="uniFEF6" unicode="&#xfee0;&#xfe82;" horiz-adv-x="693" arabic-form="final" 
d="M139 692c-12.667 0 -23.166 -3.5 -31.499 -10.5s-13.5 -16.5 -15.5 -28.5h-48c0.666992 28.667 9 52 25 70s37 27 63 27c15.333 0 36 -6.16699 62 -18.5s47 -18.5 63 -18.5c27.333 0 53 7.66699 77 23l-1 -58c-24.667 -15.333 -50.334 -23 -77.001 -23
c-16.667 0 -37 6.16699 -61 18.5s-42.667 18.5 -56 18.5zM702.001 81l0.999023 -71c0 -6.66699 -3.33301 -10 -10 -10c-71.333 -0 -125 17.333 -161 52c-31.333 -15.333 -71.5 -27.833 -120.5 -37.5s-92.833 -14.5 -131.5 -14.5h-247l-16 90h237l-100 488l84 21l95 -507
c56.667 4 110.334 13 161.001 27c-7.33301 25.333 -11 52.333 -11 81l-1 517l85 13v-510c0 -86.667 41.667 -130 125 -130c6.66699 0 10 -3 10 -9z" />
    <glyph glyph-name="uniFEF7" unicode="&#xfedf;&#xfe84;" horiz-adv-x="661" arabic-form="isolated" 
d="M297 717l-14 -56.999h-226v57h55c-10.667 17.333 -16 36.333 -16 57c0 25.333 8.5 46.166 25.5 62.499s38.5 24.5 64.5 24.5c20 0 46 -6.33301 78 -19v-49c-26 10 -47.333 15 -64 15c-14.667 0 -26.667 -4 -36 -12s-14 -18.667 -14 -32c0 -19.333 5.66699 -35 17 -47h130
zM490 717.001l85 13v-530c0 -133.333 -70.333 -200 -211 -200h-1h-330l-16 90h237l-100 488l84 21l96 -509h29h1c84 0 126 43.333 126 130v497z" />
    <glyph glyph-name="uniFEF8" unicode="&#xfee0;&#xfe84;" horiz-adv-x="693" arabic-form="final" 
d="M297 717l-14 -56.999h-226v57h55c-10.667 17.333 -16 36.333 -16 57c0 25.333 8.5 46.166 25.5 62.499s38.5 24.5 64.5 24.5c20 0 46 -6.33301 78 -19v-49c-26 10 -47.333 15 -64 15c-14.667 0 -26.667 -4 -36 -12s-14 -18.667 -14 -32c0 -19.333 5.66699 -35 17 -47h130
zM702 81.001l0.999023 -71c0 -6.66699 -3.33301 -10 -10 -10c-71.333 0 -125 17.333 -161 52c-31.333 -15.333 -71.5 -27.833 -120.5 -37.5s-92.833 -14.5 -131.5 -14.5h-247l-16 90h237l-100 488l84 21l95 -507c56.667 4 110.334 13 161.001 27
c-7.33301 25.333 -11 52.333 -11 81l-1 517l85 13v-510c0 -86.667 41.667 -130 125 -130c6.66699 0 10 -3 10 -9z" />
    <glyph glyph-name="uniFEF9" unicode="&#xfedf;&#xfe88;" horiz-adv-x="661" arabic-form="isolated" 
d="M490 717l85 13v-530c0 -133.333 -70.333 -200 -211 -200h-1h-330l-16 90h237l-100 488l84 21l96 -509h29h1c84 0 126 43.333 126 130v497zM273 -150c0 -19.333 5.66699 -34.999 17 -46.999h129l-13 -57h-226v57h55c-10.667 17.333 -16 36.333 -16 57
c0 25.333 8.5 46.166 25.5 62.499s38.5 24.5 64.5 24.5c20.667 0 46.667 -6.33301 78 -19v-49c-26 10 -47.333 15 -64 15c-14.667 0 -26.667 -4 -36 -12s-14 -18.667 -14 -32z" />
    <glyph glyph-name="uniFEFA" unicode="&#xfee0;&#xfe88;" horiz-adv-x="693" arabic-form="final" 
d="M702 81l0.999023 -71c0 -6.66699 -3.33301 -10 -10 -10c-71.333 -0 -125 17.333 -161 52c-31.333 -15.333 -71.5 -27.833 -120.5 -37.5s-92.833 -14.5 -131.5 -14.5h-247l-16 90h237l-100 488l84 21l95 -507c56.667 4 110.334 13 161.001 27
c-7.33301 25.333 -11 52.333 -11 81l-1 517l85 13v-510c0 -86.667 41.667 -130 125 -130c6.66699 0 10 -3 10 -9zM269.999 -152c0 -18.667 6 -34.333 18 -47h128l-13 -56h-226v56h55c-10.667 17.333 -16 36.666 -16 57.999c0 24.667 8.5 45.167 25.5 61.5
s38.833 24.5 65.5 24.5c21.333 0 47 -6 77 -18v-49c-26 10 -47.333 15 -64 15c-14.667 0 -26.667 -4.16699 -36 -12.5s-14 -19.166 -14 -32.499z" />
    <glyph glyph-name="uniFEFB" unicode="&#xfedf;&#xfe8e;" horiz-adv-x="661" arabic-form="isolated" 
d="M490 717l85 13v-530c0 -133.333 -70.333 -200 -211 -200h-1h-330l-16 90h237l-100 488l84 21l96 -509h29h1c84 0 126 43.333 126 130v497z" />
    <glyph glyph-name="uniFEFC" unicode="&#xfee0;&#xfe8e;" horiz-adv-x="693" arabic-form="final" 
d="M702 81l0.999023 -71c0 -6.66699 -3.33301 -10 -10 -10c-71.333 -0 -125 17.333 -161 52c-31.333 -15.333 -71.5 -27.833 -120.5 -37.5s-92.833 -14.5 -131.5 -14.5h-247l-16 90h237l-100 488l84 21l95 -507c56.667 4 110.334 13 161.001 27
c-7.33301 25.333 -11 52.333 -11 81l-1 517l85 13v-510c0 -86.667 41.667 -130 125 -130c6.66699 0 10 -3 10 -9z" />
    <glyph glyph-name="uni066E.init" unicode="&#x66e;" horiz-adv-x="278" 
d="M0 0c-6.66699 0 -10 3.33203 -10 9.99902l1 71c0 6 3.33301 9 10 9c84 0 126 41.667 126 125l-1 268l85 14v-305c0 -61.333 -17.833 -108.666 -53.5 -141.999s-88.167 -50 -157.5 -50z" />
    <glyph glyph-name="uni066E.medi" unicode="&#x66e;" horiz-adv-x="331" 
d="M331 90c6.66699 0 10 -3 10 -9v-71c0 -6.66699 -3.33301 -10 -10 -10c-56.667 0 -109.667 21.667 -159 65c-35.333 -43.333 -92.666 -65 -171.999 -65c-6.66699 -0 -10 3.33301 -10 10l1 71c0 6 3.33301 9 10 9c84 0 126 41.667 126 125l-1 162l85 13v-198
c0 -23.333 -2.33301 -43.333 -7 -60c41.333 -28 83.666 -42 126.999 -42z" />
    <glyph glyph-name="uni066E.fina" unicode="&#x66e;" horiz-adv-x="870" 
d="M870 90c6.66699 0 10.001 -2.99902 10.001 -8.99902v-71c0 -6.66699 -3.33301 -10 -10 -10c-56.667 0 -109.667 21.667 -159 65c-34 -41.333 -87.667 -63 -161 -65h-2h-260c-80 0 -140.833 18.667 -182.5 56s-62.5 92.666 -62.5 165.999c0 55.333 10 128 30 218l74 -10
c-16 -82 -24 -143.667 -24 -185c0 -103.333 61.667 -155 185 -155h231c84 0 126 41.667 126 125v162l85 13v-198c0 -23.333 -2.33301 -43.333 -7 -60c41.333 -28 83.666 -42 126.999 -42z" />
    <glyph glyph-name="uni066F.fina" unicode="&#x66f;" horiz-adv-x="769" 
d="M769 90c6.66699 0 9.99805 -2.99902 9.99805 -8.99902v-71c0 -6.66699 -3.33301 -10 -10 -10h-63c-23.333 -143.333 -142.333 -215 -357 -215c-92 0 -166 22.333 -222 67s-84 108.667 -84 192c0 71.333 14.667 151.666 44 240.999l69 -19
c-23.333 -68.667 -35 -135.334 -35 -200.001c0.666992 -66 22.834 -116.333 66.501 -151s104.167 -52 181.5 -52c70.667 0 127.834 11.833 171.501 35.5s71.167 57.5 82.5 101.5h-122c-68 0 -122.667 20.833 -164 62.5s-62 97.5 -62 167.5
c0 72.667 21.167 131.834 63.5 177.501s96.5 68.167 162.5 67.5c62 -1.33301 112.333 -22.5 151 -63.5s58 -94.833 58 -161.5v-160h59zM352.998 234.001c0 -47.333 14.3311 -83.667 42.998 -109s67.334 -38 116.001 -38c21.333 0 59.333 0.666992 114 2l-1 154
c0 42.667 -12.167 77.167 -36.5 103.5s-56.166 39.833 -95.499 40.5c-41.333 1.33301 -75 -12 -101 -40s-39 -65.667 -39 -113z" />
    <glyph glyph-name="uni06A1.init" unicode="&#x6a1;" horiz-adv-x="542" 
d="M273 485c64 0 117.667 -21.833 161 -65.5s65 -98.167 65 -163.5c0 -80 -24.833 -142.667 -74.5 -188s-118.167 -68 -205.5 -68h-219c-6.66699 -0 -10 3.33301 -10 10v71c0 6 3.33301 9 10 9h86c-30 62 -45 116 -45 162c0 67.333 21.833 123 65.5 167s99.167 66 166.5 66z
M226 90c57.333 0 103 14.332 137 42.999s51 68.667 51 120c0 42.667 -13.833 77.834 -41.5 105.501s-62.5 41.5 -104.5 41.5c-40 0 -74 -14.833 -102 -44.5s-42 -64.5 -42 -104.5c0 -48 16.667 -101.667 50 -161h52z" />
    <glyph glyph-name="uni06A1.medi" unicode="&#x6a1;" horiz-adv-x="563" 
d="M563 90c6.66699 0 10.002 -3.00098 10.002 -9.00098v-71c0 -6.66699 -3.33301 -10 -10 -10c-98.667 0 -190.334 12.333 -275.001 37c-76 -24.667 -172 -37 -288 -37c-6.66699 0.666992 -10 4 -10 10v71c0 6 3.33301 9 10 9c58 0 110 2 156 6c-61.333 46 -92 105 -92 177
c0 60.667 21 111.167 63 151.5s94.333 60.5 157 60.5c64 0 116.667 -20.5 158 -61.5s62 -91.167 62 -150.5c0 -71.333 -30.667 -129.666 -92 -174.999c39.333 -5.33301 89.666 -8 150.999 -8zM281.002 400.999c-39.333 0 -71.5 -12.833 -96.5 -38.5s-37.5 -58.5 -37.5 -98.5
c0 -35.333 12.333 -67.333 37 -96s57.667 -49 99 -61c42.667 14 76.5 35 101.5 63s37.5 59.333 37.5 94c0 40 -13.5 72.833 -40.5 98.5s-60.5 38.5 -100.5 38.5z" />
    <glyph glyph-name="uni06A1.fina" unicode="&#x6a1;" horiz-adv-x="973" 
d="M976 90c6.66699 0 10.001 -3 10.001 -9v-71c0 -6.66699 -3.33301 -10 -10 -10c-101.333 0 -193 12 -275 36c-72.667 -22.667 -165 -34.667 -277 -36h-1h-136c-79.333 -0 -139.833 18.333 -181.5 55s-62.5 90.667 -62.5 162c0 48.667 7 105.667 21 171l75 -10
c-10.667 -59.333 -16 -105 -16 -137c0 -100.667 61.333 -151 184 -151h106c67.333 0 119.666 2 156.999 6c-61.333 45.333 -92 104.333 -92 177c0 60.667 20.833 111.167 62.5 151.5s93.834 60.5 156.501 60.5c64 0 116.833 -20.5 158.5 -61.5s62.5 -91.167 62.5 -150.5
c0 -70.667 -31 -129 -93 -175c39.333 -5.33301 89.666 -8 150.999 -8zM695.001 401c-39.333 0 -71.667 -12.833 -97 -38.5s-38 -58.5 -38 -98.5c0 -36 12.333 -68.167 37 -96.5s57.667 -48.833 99 -61.5c43.333 14.667 77.333 36 102 64s37 59.333 37 94
c0 40 -13.333 72.833 -40 98.5s-60 38.5 -100 38.5z" />
    <glyph glyph-name="uniFB6B" unicode="&#x6a4;" horiz-adv-x="973" arabic-form="final" 
d="M757 767l-52 -52l-53 52l52 53zM694 645l-72 -73l-74 73l73 72zM787 572l-74 73l74 72l73 -72zM976 90c6.66699 0 10.002 -3 10.002 -9v-71c0 -6.66699 -3.33301 -10 -10 -10c-101.333 0 -193 12 -275 36c-72.667 -22.667 -164.667 -34.667 -276 -36h-1h-137
c-79.333 -0 -139.833 18.333 -181.5 55s-62.5 90.667 -62.5 162c0 45.333 7.33301 102.333 22 171l74 -10c-10.667 -59.333 -16 -105 -16 -137c0 -100.667 61.333 -151 184 -151h106c67.333 0 119.666 2 156.999 6c-62 46 -93 105 -93 177c0 60.667 21 111.167 63 151.5
s94.333 60.5 157 60.5c64 0 116.667 -20.5 158 -61.5s62 -91.167 62 -150.5c0 -70.667 -30.667 -129 -92 -175c39.333 -5.33301 89.666 -8 150.999 -8zM694.002 401c-39.333 0 -71.5 -12.833 -96.5 -38.5s-37.5 -58.5 -37.5 -98.5c0 -36 12.167 -68.167 36.5 -96.5
s57.5 -48.833 99.5 -61.5c43.333 14.667 77.333 36 102 64s37 59.333 37 94c0 40 -13.5 72.833 -40.5 98.5s-60.5 38.5 -100.5 38.5z" />
    <glyph glyph-name="uniFB6C" unicode="&#x6a4;" horiz-adv-x="542" arabic-form="initial" 
d="M319 767l-52 -52l-53 52l52 53zM256 645l-72 -73l-74 73l73 72zM349 572l-74 73l74 72l73 -72zM273 485c64 0 117.667 -21.833 161 -65.5s65 -98.167 65 -163.5c0 -80 -24.833 -142.667 -74.5 -188s-118.167 -68 -205.5 -68h-219c-6.66699 -0 -10 3.33301 -10 10v71
c0 6 3.33301 9 10 9h86c-30 62 -45 116 -45 162c0 67.333 21.833 123 65.5 167s99.167 66 166.5 66zM226 90c57.333 0 103 14.332 137 42.999s51 68.667 51 120c0 42.667 -13.833 77.834 -41.5 105.501s-62.5 41.5 -104.5 41.5c-40 0 -74 -14.833 -102 -44.5
s-42 -64.5 -42 -104.5c0 -48 16.667 -101.667 50 -161h52z" />
    <glyph glyph-name="uniFB6D" unicode="&#x6a4;" horiz-adv-x="563" arabic-form="medial" 
d="M335 767l-52 -52l-53 52l52 53zM272 645l-72 -73l-74 73l73 72zM365 572l-74 73l74 72l73 -72zM563 90c6.66699 0 10.002 -3.00098 10.002 -9.00098v-71c0 -6.66699 -3.33301 -10 -10 -10c-98.667 0 -190.334 12.333 -275.001 37c-76 -24.667 -172 -37 -288 -37
c-6.66699 0.666992 -10 4 -10 10v71c0 6 3.33301 9 10 9c58 0 110 2 156 6c-61.333 46 -92 105 -92 177c0 60.667 21 111.167 63 151.5s94.333 60.5 157 60.5c64 0 116.667 -20.5 158 -61.5s62 -91.167 62 -150.5c0 -71.333 -30.667 -129.666 -92 -174.999
c39.333 -5.33301 89.666 -8 150.999 -8zM281.002 400.999c-39.333 0 -71.5 -12.833 -96.5 -38.5s-37.5 -58.5 -37.5 -98.5c0 -35.333 12.333 -67.333 37 -96s57.667 -49 99 -61c42.667 14 76.5 35 101.5 63s37.5 59.333 37.5 94c0 40 -13.5 72.833 -40.5 98.5
s-60.5 38.5 -100.5 38.5z" />
    <glyph glyph-name="uniFB9F" unicode="&#x6ba;" horiz-adv-x="717" arabic-form="final" 
d="M717 90c6.66699 0 10 -2.99902 10 -8.99902v-71c0 -6.66699 -3.33301 -10 -10 -10c-52 0 -90.667 19.667 -116 59c-6 -85.333 -32.333 -152.333 -79 -201s-115.334 -73 -206.001 -73c-84 0 -150.5 21.833 -199.5 65.5s-73.5 108.167 -73.5 193.5
c0 71.333 14.667 151.666 44 240.999l69 -19c-23.333 -68.667 -35 -135.334 -35 -200.001c0.666992 -62.667 18.334 -110.167 53.001 -142.5s83.667 -48.5 147 -48.5c66.667 0 116.167 18.833 148.5 56.5s48.5 95.834 48.5 174.501v377l84 14v-288l1 -8
c6.66699 -74 44.667 -111 114 -111z" />
    <glyph glyph-name="uniFE82" unicode="&#x622;" horiz-adv-x="297" arabic-form="final" 
d="M66 761c15.333 0 35.999 -6.16699 61.999 -18.5s47 -18.5 63 -18.5c28 0 53.667 8 77 24l-1 -59c-24.667 -15.333 -50.334 -23 -77.001 -23c-16.667 0 -37 6.16699 -61 18.5s-42.667 18.5 -56 18.5c-27.333 0 -43 -13 -47 -39h-48
c0.666992 29.333 8.83398 52.833 24.501 70.5s36.834 26.5 63.501 26.5zM296.999 0c-140 0 -210 66.667 -210 200l-1 390l85 13v-383c0 -86.667 41.667 -130 125 -130c6.66699 0 10 -3 10 -9l1 -71c0 -6.66699 -3.33301 -10 -10 -10z" />
    <glyph glyph-name="uniFE84" unicode="&#x623;" horiz-adv-x="297" arabic-form="final" 
d="M252 713l-12.999 -56.999h-226v57h54c-10 18 -15 37.333 -15 58c0 24.667 8.5 45.167 25.5 61.5s38.5 24.5 64.5 24.5c23.333 0 49.333 -6.33301 78 -19v-49c-24.667 10 -46.334 15 -65.001 15c-14.667 0 -26.5 -4 -35.5 -12s-13.5 -18.667 -13.5 -32
c0 -18.667 5.33301 -34.334 16 -47.001h130zM306.001 81.001l1 -71c0 -6.66699 -3.33301 -10 -10 -10c-140 0 -210 66.667 -210 200l-1 390l85 13v-383c0 -86.667 41.667 -130 125 -130c6.66699 0 10 -3 10 -9z" />
    <glyph glyph-name="uniFE86" unicode="&#x624;" horiz-adv-x="541" arabic-form="final" 
d="M397 637l-20.002 -66.999h-237v67h61c-13.333 20.667 -20 41 -20 61c0 30 10 54.167 30 72.5s45.667 27.5 77 27.5c22.667 0 48.334 -6.66699 77.001 -20v-62c-27.333 10 -50.333 15 -69 15c-17.333 0 -31.166 -4.16699 -41.499 -12.5s-15.5 -19.833 -15.5 -34.5
c0 -16.667 6.33301 -32.334 19 -47.001h139zM540.998 90.001c6.66699 0 10 -2.99902 10 -8.99902v-71c0 -6.66699 -3.33301 -10 -10 -10h-59c-12 -143.333 -136 -215 -372 -215l-10 73c92.667 0 163.667 11.333 213 34s77.333 58.667 84 108h-120
c-70.667 0 -127.334 21.5 -170.001 64.5s-64 100.833 -64 173.5c0 71.333 21.833 129.666 65.5 174.999s98.834 68 165.501 68c62 0 112.333 -20.5 151 -61.5s58 -95.167 58 -162.5v-167h58zM121.998 242.002c0 -50 14.998 -88.332 44.998 -114.999s70.333 -40 121 -40
c21.333 0 58 0.666992 110 2v161c0 43.333 -12.167 78.166 -36.5 104.499s-56.166 39.5 -95.499 39.5c-41.333 0 -75.666 -14 -102.999 -42s-41 -64.667 -41 -110z" />
    <glyph glyph-name="uniFE88" unicode="&#x625;" horiz-adv-x="297" arabic-form="final" 
d="M306 81l1 -71c0 -6.66699 -3.33301 -10 -10 -10c-140 0 -210 66.667 -210 200l-1 517l85 13v-510c0 -86.667 41.667 -130 125 -130c6.66699 0 10 -3 10 -9zM106 -149c0 -19.333 5.66504 -34.999 16.998 -46.999h129l-13 -57h-226v57h55
c-10.667 17.333 -16 36.666 -16 57.999c0 24.667 8.5 45.167 25.5 61.5s38.833 24.5 65.5 24.5c22.667 0 48.334 -6.33301 77.001 -19v-49c-23.333 10 -44.666 15 -63.999 15c-14.667 0 -26.667 -4 -36 -12s-14 -18.667 -14 -32z" />
    <glyph glyph-name="uniFE8A" unicode="&#x626;" horiz-adv-x="1014" arabic-form="final" 
d="M274 433l-20.002 -66.998h-237v67h61c-12.667 19.333 -19 40 -19 62c0 29.333 9.83301 53.166 29.5 71.499s45.167 27.5 76.5 27.5c24.667 0 50.334 -6.66699 77.001 -20v-61c-29.333 10 -52 15 -68 15c-17.333 0 -31.166 -4.33301 -41.499 -13
s-15.5 -20.334 -15.5 -35.001c0 -15.333 6.33301 -31 19 -47h138zM1014 90.002c6.66699 0 9.99902 -2.99805 9.99902 -8.99805v-71c0 -6.66699 -3.33301 -10 -10 -10h-203v386h-81c-40.667 0 -72.167 -10.5 -94.5 -31.5s-33.5 -51.833 -33.5 -92.5v-182
c0 -97.333 -21.167 -170.833 -63.5 -220.5s-116.5 -74.5 -222.5 -74.5c-84 0 -150.5 21.833 -199.5 65.5s-73.5 108.167 -73.5 193.5c0 71.333 14.667 151.666 44 240.999l69 -19c-23.333 -68.667 -35 -135.334 -35 -200.001
c0.666992 -62.667 18.334 -110.167 53.001 -142.5s83.667 -48.5 147 -48.5c72.667 0 123.667 16 153 48s44 87.333 44 166v188c0 61.333 17.167 109.833 51.5 145.5s83.833 53.5 148.5 53.5h120l58 -51v-335h118z" />
    <glyph glyph-name="uniFE8B" unicode="&#x626;" horiz-adv-x="353" arabic-form="initial" 
d="M210 625l139 0.000976562l-20 -67h-237v67h61c-13.333 20.667 -20 41 -20 61c0 30 10 54.167 30 72.5s45.667 27.5 77 27.5c22 0 47.333 -6.66699 76 -20v-62c-26.667 10 -49.334 15 -68.001 15c-17.333 0 -31.166 -4.16699 -41.499 -12.5s-15.5 -19.833 -15.5 -34.5
c0 -16.667 6.33301 -32.334 19 -47.001zM202 215.001l-0.000976562 267.999l84 14v-305c0 -61.333 -17.667 -108.666 -53 -141.999s-87.666 -50 -156.999 -50h-76c-6.66699 0 -10 3.33301 -10 10l1 71c0 6 3.33301 9 10 9h76c83.333 0 125 41.667 125 125z" />
    <glyph glyph-name="uniFE8C" unicode="&#x626;" horiz-adv-x="376" arabic-form="medial" 
d="M333 520l-20.002 -66.998h-237v67h61c-12.667 19.333 -19 40 -19 62c0 29.333 9.83301 53.166 29.5 71.499s45.167 27.5 76.5 27.5c24.667 0 50.334 -6.66699 77.001 -20v-61c-29.333 10 -52 15 -68 15c-17.333 0 -31.166 -4.33301 -41.499 -13
s-15.5 -20.334 -15.5 -35.001c0 -15.333 6.33301 -31 19 -47h138zM375.998 90.002c6.66699 0 10 -3 10 -9v-71c0 -6.66699 -3.33301 -10 -10 -10c-62 0 -119.333 24.333 -172 73c-36 -48.667 -104 -73 -204 -73c-6.66699 0 -10 3.33301 -10 10l1 71c0 6 3.33301 9 10 9
c53.333 0 92.166 9.83301 116.499 29.5s36.5 51.5 36.5 95.5v162l84 13v-198c0 -16.667 -1.66699 -34 -5 -52c44.667 -33.333 92.334 -50 143.001 -50z" />
    <glyph glyph-name="uniFE8E" unicode="&#x627;" horiz-adv-x="297" arabic-form="final" 
d="M297 0c-140 0 -210 66.667 -210 200l-1 517l85 13v-510c0 -86.667 41.667 -130 125 -130c6.66699 0 10 -3 10 -9l1 -71c0 -6.66699 -3.33301 -10 -10 -10z" />
    <glyph glyph-name="uniFE90" unicode="&#x628;" horiz-adv-x="870" arabic-form="final" 
d="M870 90c6.66699 0 10.001 -2.99902 10.001 -8.99902v-71c0 -6.66699 -3.33301 -10 -10 -10c-56.667 0 -109.667 21.667 -159 65c-34 -41.333 -87.667 -63 -161 -65h-2h-260c-80 0 -140.833 18.667 -182.5 56s-62.5 92.666 -62.5 165.999c0 55.333 10 128 30 218l74 -10
c-16 -82 -24 -143.667 -24 -185c0 -103.333 61.667 -155 185 -155h231c84 0 126 41.667 126 125v162l85 13v-198c0 -23.333 -2.33301 -43.333 -7 -60c41.333 -28 83.666 -42 126.999 -42zM351.001 -150.999l72 73l75 -73l-73 -72z" />
    <glyph glyph-name="uniFE91" unicode="&#x628;" horiz-adv-x="278" arabic-form="initial" 
d="M0 0c-6.66699 0 -10 3.33203 -10 9.99902l1 71c0 6 3.33301 9 10 9c84 0 126 41.667 126 125l-1 268l85 14v-305c0 -61.333 -17.833 -108.666 -53.5 -141.999s-88.167 -50 -157.5 -50zM109 -224.001l-74 72l72 73l75 -73z" />
    <glyph glyph-name="uniFE92" unicode="&#x628;" horiz-adv-x="331" arabic-form="medial" 
d="M331 90c6.66699 0 10 -3 10 -9v-71c0 -6.66699 -3.33301 -10 -10 -10c-56.667 0 -109.667 21.667 -159 65c-35.333 -43.333 -92.666 -65 -171.999 -65c-6.66699 -0 -10 3.33301 -10 10l1 71c0 6 3.33301 9 10 9c84 0 126 41.667 126 125l-1 162l85 13v-198
c0 -23.333 -2.33301 -43.333 -7 -60c41.333 -28 83.666 -42 126.999 -42zM86 -153l72 73l75 -73l-73 -72z" />
    <glyph glyph-name="uniFE94" unicode="&#x629;" horiz-adv-x="583" arabic-form="final" 
d="M259 648l-73 -72l-73 72l73 72zM418 648l-73 -72l-74 72l74 72zM583 90c6.66699 0 9.99707 -3 9.99707 -9v-71c0 -6.66699 -3.33301 -10 -10 -10c-61.333 -0 -106.666 14.333 -135.999 43c-67.333 -34.667 -127.666 -52 -180.999 -52c-67.333 0 -122.5 23 -165.5 69
s-64.5 103 -64.5 171c0 69.333 21.667 128.333 65 177s98.333 73 165 73c40.667 0 85.334 -9.33301 134.001 -28v62l84 14l1 -327c0 -40 7.66699 -68.667 23 -86s40.333 -26 75 -26zM265.997 77c44.667 -0.666992 92.667 10.666 144 33.999
c-6.66699 22.667 -10 50.334 -10 83.001v174c-54 18 -97.667 27 -131 27c-44.667 0 -81.167 -15.667 -109.5 -47s-42.5 -70 -42.5 -116c0 -44 13.833 -80.667 41.5 -110s63.5 -44.333 107.5 -45z" />
    <glyph glyph-name="uniFE96" unicode="&#x62a;" horiz-adv-x="870" arabic-form="final" 
d="M426 531l-73 -72l-73 72l73 72zM585 531l-73 -72l-74 72l74 72zM870 90c6.66699 0 10.001 -2.99902 10.001 -8.99902v-71c0 -6.66699 -3.33301 -10 -10 -10c-56.667 0 -109.667 21.667 -159 65c-34 -41.333 -87.667 -63 -161 -65h-2h-260
c-80 0 -140.833 18.667 -182.5 56s-62.5 92.666 -62.5 165.999c0 55.333 10 128 30 218l74 -10c-16 -82 -24 -143.667 -24 -185c0 -103.333 61.667 -155 185 -155h231c84 0 126 41.667 126 125v162l85 13v-198c0 -23.333 -2.33301 -43.333 -7 -60
c41.333 -28 83.666 -42 126.999 -42z" />
    <glyph glyph-name="uniFE97" unicode="&#x62a;" horiz-adv-x="373" arabic-form="initial" 
d="M157 575l-73 73l73 72l73 -72zM316 575l-74 73l74 72l73 -72zM0 0c-6.66699 0 -10.001 3.33203 -10.001 9.99902l1 71c0 6 3.33301 9 10 9h76c83.333 0 125 41.667 125 125v268l84 14v-305c0 -61.333 -17.667 -108.666 -53 -141.999s-87.666 -50 -156.999 -50h-76z" />
    <glyph glyph-name="uniFE98" unicode="&#x62a;" horiz-adv-x="376" arabic-form="medial" 
d="M184 534l-73 -72l-73 72l73 72zM343 534l-73 -72l-74 72l74 72zM376 90c6.66699 0 10 -3 10 -9v-71c0 -6.66699 -3.33301 -10 -10 -10c-62 -0 -119.333 24.333 -172 73c-36 -48.667 -104 -73 -204 -73c-6.66699 -0 -10 3.33301 -10 10l1 71c0 6 3.33301 9 10 9
c53.333 0 92.166 9.83301 116.499 29.5s36.5 51.5 36.5 95.5v162l84 13v-198c0 -16.667 -1.66699 -34 -5 -52c44.667 -33.333 92.334 -50 143.001 -50z" />
    <glyph glyph-name="uniFE9A" unicode="&#x62b;" horiz-adv-x="870" arabic-form="final" 
d="M488 650l-52 -52l-53 52l52 53zM425 528l-72 -73l-74 73l73 72zM518 455l-74 73l74 72l73 -72zM870 90c6.66699 0 10.001 -2.99902 10.001 -8.99902v-71c0 -6.66699 -3.33301 -10 -10 -10c-56.667 0 -109.667 21.667 -159 65c-34 -41.333 -87.667 -63 -161 -65h-2h-260
c-80 0 -140.833 18.667 -182.5 56s-62.5 92.666 -62.5 165.999c0 55.333 10 128 30 218l74 -10c-16 -82 -24 -143.667 -24 -185c0 -103.333 61.667 -155 185 -155h231c84 0 126 41.667 126 125v162l85 13v-198c0 -23.333 -2.33301 -43.333 -7 -60
c41.333 -28 83.666 -42 126.999 -42z" />
    <glyph glyph-name="uniFE9B" unicode="&#x62b;" horiz-adv-x="380" arabic-form="initial" 
d="M239 718l-53 53l52 52l53 -52zM156 575l-74 73l73 72l73 -72zM321 575l-74 73l74 72l73 -72zM0 0c-6.66699 0 -10.001 3.33203 -10.001 9.99902l1 71c0 6 3.33301 9 10 9h76c83.333 0 125 41.667 125 125v268l84 14v-305c0 -61.333 -17.667 -108.666 -53 -141.999
s-87.666 -50 -156.999 -50h-76z" />
    <glyph glyph-name="uniFE9C" unicode="&#x62b;" horiz-adv-x="376" arabic-form="medial" 
d="M246 657l-52 -52l-53 52l52 53zM183 535l-72 -73l-74 73l73 72zM276 462l-74 73l74 72l73 -72zM376 90c6.66699 0 10 -3 10 -9v-71c0 -6.66699 -3.33301 -10 -10 -10c-62 -0 -119.333 24.333 -172 73c-36 -48.667 -104 -73 -204 -73c-6.66699 -0 -10 3.33301 -10 10l1 71
c0 6 3.33301 9 10 9c53.333 0 92.166 9.83301 116.499 29.5s36.5 51.5 36.5 95.5v162l84 13v-198c0 -16.667 -1.66699 -34 -5 -52c44.667 -33.333 92.334 -50 143.001 -50z" />
    <glyph glyph-name="uniFE9E" unicode="&#x62c;" horiz-adv-x="652" arabic-form="final" 
d="M652 90c6.66699 0 10 -2.99805 10 -8.99805v-71c0 -6.66699 -3.33301 -10 -10 -10c-65.333 0 -112.833 12.5 -142.5 37.5s-44.5 64.833 -44.5 119.5v29c-108.667 -8.66699 -192.667 -32.5 -252 -71.5s-89 -87.5 -89 -145.5c0 -50 18.167 -88.667 54.5 -116
s87.5 -41 153.5 -41c49.333 0 118.666 12.333 207.999 37l23 -73c-94 -34 -177 -51 -249 -51c-84 0 -150.333 20.5 -199 61.5s-73 99.167 -73 174.5c0 82.667 36.333 150.167 109 202.5s183.667 85.166 333 98.499c-74 72 -132 121.167 -174 147.5s-82.333 39.5 -121 39.5
c-20.667 0 -53 -5.33301 -97 -16l-18 76c50 18.667 92.333 28 127 28c46.667 0 96 -17 148 -51s130.667 -101 236 -201l-35 -95c-17.333 0 -30.333 -0.333008 -39 -1c0.666992 -40.667 10.334 -67.334 29.001 -80.001s56 -19 112 -19zM359 -59.998l-74 72l72 73l75 -73z" />
    <glyph glyph-name="uniFE9F" unicode="&#x62c;" horiz-adv-x="587" arabic-form="initial" 
d="M176 472c43.333 0 89.167 -14.332 137.5 -42.999s129.5 -90.334 243.5 -185.001l-13 -83c-104 -55.333 -198.5 -96 -283.5 -122s-171.5 -39 -259.5 -39c-7.33301 -0 -11 3.33301 -11 10v71c0 6 3.66699 9 11 9c154 0 310.333 38.667 469 116
c-86 72 -149.5 119.667 -190.5 143s-79.833 35 -116.5 35c-15.333 0 -48 -5.33301 -98 -16l-17 76c49.333 18.667 92 28 128 28zM211.001 -145.999l72 73l75 -73l-73 -72z" />
    <glyph glyph-name="uniFEA0" unicode="&#x62c;" horiz-adv-x="635" arabic-form="medial" 
d="M635 90c6.66699 0 10.001 -2.99902 10.001 -8.99902v-71c0 -6.66699 -3.33301 -10 -10 -10h-46c-42 0 -76 9.33301 -102 28s-43.333 44.667 -52 78c-153.333 -70.667 -298 -106 -434 -106c-7.33301 0 -11 3.33301 -11 10v71c0 6 3.66699 9 11 9
c154 0 310.333 38.667 469 116c-86 72 -149.5 119.667 -190.5 143s-79.833 35 -116.5 35c-15.333 0 -48 -5.33301 -98 -16l-17 76c49.333 18.667 92 28 128 28c43.333 0 89.166 -14.333 137.499 -43s129.5 -90.334 243.5 -185.001l-13 -83
c-18.667 -11.333 -37.667 -21.333 -57 -30c16.667 -27.333 51 -41 103 -41h45zM231.001 -145.999l72 73l75 -73l-73 -72z" />
    <glyph glyph-name="uniFEA2" unicode="&#x62d;" horiz-adv-x="652" arabic-form="final" 
d="M652 90c6.66699 0 10 -2.99805 10 -8.99805v-71c0 -6.66699 -3.33301 -10 -10 -10c-65.333 0 -112.833 12.5 -142.5 37.5s-44.5 64.833 -44.5 119.5v29c-108.667 -8.66699 -192.667 -32.5 -252 -71.5s-89 -87.5 -89 -145.5c0 -50 18.167 -88.667 54.5 -116
s87.5 -41 153.5 -41c49.333 0 118.666 12.333 207.999 37l23 -73c-94 -34 -177 -51 -249 -51c-84 0 -150.333 20.5 -199 61.5s-73 99.167 -73 174.5c0 82.667 36.333 150.167 109 202.5s183.667 85.166 333 98.499c-74 72 -132 121.167 -174 147.5s-82.333 39.5 -121 39.5
c-20.667 0 -53 -5.33301 -97 -16l-18 76c50 18.667 92.333 28 127 28c46.667 0 96 -17 148 -51s130.667 -101 236 -201l-35 -95c-17.333 0 -30.333 -0.333008 -39 -1c0.666992 -40.667 10.334 -67.334 29.001 -80.001s56 -19 112 -19z" />
    <glyph glyph-name="uniFEA3" unicode="&#x62d;" horiz-adv-x="587" arabic-form="initial" 
d="M176 472c43.333 0 89.167 -14.332 137.5 -42.999s129.5 -90.334 243.5 -185.001l-13 -83c-104 -55.333 -198.5 -96 -283.5 -122s-171.5 -39 -259.5 -39c-7.33301 -0 -11 3.33301 -11 10v71c0 6 3.66699 9 11 9c154 0 310.333 38.667 469 116
c-86 72 -149.5 119.667 -190.5 143s-79.833 35 -116.5 35c-15.333 0 -48 -5.33301 -98 -16l-17 76c49.333 18.667 92 28 128 28z" />
    <glyph glyph-name="uniFEA4" unicode="&#x62d;" horiz-adv-x="635" arabic-form="medial" 
d="M635 90c6.66699 0 10.001 -2.99902 10.001 -8.99902v-71c0 -6.66699 -3.33301 -10 -10 -10h-46c-42 0 -76 9.33301 -102 28s-43.333 44.667 -52 78c-153.333 -70.667 -298 -106 -434 -106c-7.33301 0 -11 3.33301 -11 10v71c0 6 3.66699 9 11 9
c154 0 310.333 38.667 469 116c-86 72 -149.5 119.667 -190.5 143s-79.833 35 -116.5 35c-15.333 0 -48 -5.33301 -98 -16l-17 76c49.333 18.667 92 28 128 28c43.333 0 89.166 -14.333 137.499 -43s129.5 -90.334 243.5 -185.001l-13 -83
c-18.667 -11.333 -37.667 -21.333 -57 -30c16.667 -27.333 51 -41 103 -41h45z" />
    <glyph glyph-name="uniFEA6" unicode="&#x62e;" horiz-adv-x="652" arabic-form="final" 
d="M496 637l-73 -73l-74 73l72 72zM652 90c6.66699 0 10 -2.99805 10 -8.99805v-71c0 -6.66699 -3.33301 -10 -10 -10c-65.333 0 -112.833 12.5 -142.5 37.5s-44.5 64.833 -44.5 119.5v29c-108.667 -8.66699 -192.667 -32.5 -252 -71.5s-89 -87.5 -89 -145.5
c0 -50 18.167 -88.667 54.5 -116s87.5 -41 153.5 -41c49.333 0 118.666 12.333 207.999 37l23 -73c-94 -34 -177 -51 -249 -51c-84 0 -150.333 20.5 -199 61.5s-73 99.167 -73 174.5c0 82.667 36.333 150.167 109 202.5s183.667 85.166 333 98.499
c-74 72 -132 121.167 -174 147.5s-82.333 39.5 -121 39.5c-20.667 0 -53 -5.33301 -97 -16l-18 76c50 18.667 92.333 28 127 28c46.667 0 96 -17 148 -51s130.667 -101 236 -201l-35 -95c-17.333 0 -30.333 -0.333008 -39 -1
c0.666992 -40.667 10.334 -67.334 29.001 -80.001s56 -19 112 -19z" />
    <glyph glyph-name="uniFEA7" unicode="&#x62e;" horiz-adv-x="587" arabic-form="initial" 
d="M356 623l-73 -73l-74 73l72 72zM176 472c43.333 0 89.167 -14.332 137.5 -42.999s129.5 -90.334 243.5 -185.001l-13 -83c-104 -55.333 -198.5 -96 -283.5 -122s-171.5 -39 -259.5 -39c-7.33301 -0 -11 3.33301 -11 10v71c0 6 3.66699 9 11 9
c154 0 310.333 38.667 469 116c-86 72 -149.5 119.667 -190.5 143s-79.833 35 -116.5 35c-15.333 0 -48 -5.33301 -98 -16l-17 76c49.333 18.667 92 28 128 28z" />
    <glyph glyph-name="uniFEA8" unicode="&#x62e;" horiz-adv-x="635" arabic-form="medial" 
d="M361 623l-73 -73l-74 73l72 72zM635 90c6.66699 0 10.001 -2.99902 10.001 -8.99902v-71c0 -6.66699 -3.33301 -10 -10 -10h-46c-42 0 -76 9.33301 -102 28s-43.333 44.667 -52 78c-153.333 -70.667 -298 -106 -434 -106c-7.33301 0 -11 3.33301 -11 10v71
c0 6 3.66699 9 11 9c154 0 310.333 38.667 469 116c-86 72 -149.5 119.667 -190.5 143s-79.833 35 -116.5 35c-15.333 0 -48 -5.33301 -98 -16l-17 76c49.333 18.667 92 28 128 28c43.333 0 89.166 -14.333 137.499 -43s129.5 -90.334 243.5 -185.001l-13 -83
c-18.667 -11.333 -37.667 -21.333 -57 -30c16.667 -27.333 51 -41 103 -41h45z" />
    <glyph glyph-name="uniFEAA" unicode="&#x62f;" horiz-adv-x="595" arabic-form="final" 
d="M595 90c6.66699 0 9.99805 -3 9.99805 -9v-71c0 -6.66699 -3.33301 -10 -10 -10c-58.667 -0 -112 22.333 -160 67c-36.667 -44.667 -94.667 -67 -174 -67h-234l-17 90h252c40.667 0 71.834 10 93.501 30s32.5 48.333 32.5 85l-1 58
c-0.666992 40.667 -15.167 73.667 -43.5 99s-64.5 38 -108.5 38h-59v88h77c64 0 116.333 -19.667 157 -59s61.334 -91 62.001 -155l1 -82c0 -18 -2.33301 -37.333 -7 -58c41.333 -29.333 84.333 -44 129 -44z" />
    <glyph glyph-name="uniFEAC" unicode="&#x630;" horiz-adv-x="595" arabic-form="final" 
d="M312 656l-73 -73l-74 73l72 72zM595 90c6.66699 0 9.99805 -3 9.99805 -9v-71c0 -6.66699 -3.33301 -10 -10 -10c-58.667 -0 -112 22.333 -160 67c-36.667 -44.667 -94.667 -67 -174 -67h-234l-17 90h252c40.667 0 71.834 10 93.501 30s32.5 48.333 32.5 85l-1 58
c-0.666992 40.667 -15.167 73.667 -43.5 99s-64.5 38 -108.5 38h-59v88h77c64 0 116.333 -19.667 157 -59s61.334 -91 62.001 -155l1 -82c0 -18 -2.33301 -37.333 -7 -58c41.333 -29.333 84.333 -44 129 -44z" />
    <glyph glyph-name="uniFEAE" unicode="&#x631;" horiz-adv-x="348" arabic-form="final" 
d="M347 90c6.66699 0 9.99902 -3 9.99902 -9v-71c0 -6.66699 -3.33301 -10 -10 -10c-51.333 0 -89 17.667 -113 53v-26c0 -83.333 -21.333 -144.5 -64 -183.5s-106.667 -58.5 -192 -58.5l-8 73c120 0 180 57.333 180 172l-1 453l85 14v-312
c4.66699 -63.333 42.334 -95 113.001 -95z" />
    <glyph glyph-name="uniFEB0" unicode="&#x632;" horiz-adv-x="348" arabic-form="final" 
d="M267 646l-73 -73l-74 73l72 72zM347 90c6.66699 0 9.99902 -3 9.99902 -9v-71c0 -6.66699 -3.33301 -10 -10 -10c-51.333 0 -89 17.667 -113 53v-26c0 -83.333 -21.333 -144.5 -64 -183.5s-106.667 -58.5 -192 -58.5l-8 73c120 0 180 57.333 180 172l-1 453l85 14v-312
c4.66699 -63.333 42.334 -95 113.001 -95z" />
    <glyph glyph-name="uniFEB2" unicode="&#x633;" horiz-adv-x="1362" arabic-form="final" 
d="M1362 90c6.66699 0 10 -2.99805 10 -8.99805v-71c0 -6.66699 -3.33301 -10 -10 -10c-54.667 0 -105.667 20 -153 60c-32.667 -40 -85 -60 -157 -60c-52.667 0 -108 17.667 -166 53c-35.333 -35.333 -86 -53 -152 -53c-42.667 0 -87.334 14 -134.001 42
c-8.66699 -80 -36.334 -142.833 -83.001 -188.5s-113.667 -68.5 -201 -68.5c-84 0 -150.5 21.833 -199.5 65.5s-73.5 108.167 -73.5 193.5c0 71.333 14.667 151.666 44 240.999l69 -19c-23.333 -68.667 -35 -135.334 -35 -200.001
c0.666992 -62.667 18.334 -110.167 53.001 -142.5s83.667 -48.5 147 -48.5c66.667 0 116.167 18.833 148.5 56.5s48.5 95.834 48.5 174.501v377l84 14v-372c44.667 -23.333 86.334 -35 125.001 -35c84 0 126 41.667 126 125v162l85 13v-198
c0 -26.667 -4.33301 -52.334 -13 -77.001c41.333 -16.667 80 -25 116 -25c40.667 0 71.667 10.5 93 31.5s32 52.167 32 93.5v268l85 14v-305c0 -22 -2.66699 -43.667 -8 -65c38 -24.667 77.667 -37 119 -37z" />
    <glyph glyph-name="uniFEB3" unicode="&#x633;" horiz-adv-x="884" arabic-form="initial" 
d="M741 484l83.9971 13.999v-305c0 -61.333 -16.667 -108.666 -50 -141.999s-82.666 -50 -147.999 -50c-53.333 0 -109 17.667 -167 53c-35.333 -35.333 -86 -53 -152 -53c-48 0 -97.667 17.333 -149 52c-36.667 -35.333 -89.667 -53 -159 -53
c-6.66699 -0 -10 3.33301 -10 10v71c0 6 3.33301 9 10 9c84 0 126 41.667 126 125l-1 162l85 13v-198c0 -28 -4 -53.667 -12 -77c38.667 -16 73.334 -24 104.001 -24c84 0 126 41.667 126 125l-1 162l85 13v-198c0 -29.333 -4.33301 -55 -13 -77
c41.333 -16.667 80 -25 116 -25c40.667 0 71.834 10.5 93.501 31.5s32.5 52.167 32.5 93.5v268z" />
    <glyph glyph-name="uniFEB4" unicode="&#x633;" horiz-adv-x="939" arabic-form="medial" 
d="M939 90c6.66699 0 9.99707 -3 9.99707 -9v-71c0 -6.66699 -3.33301 -10 -10 -10c-55.333 -0 -107 20.333 -155 61c-34 -40 -86.333 -60 -157 -60c-53.333 0 -109 17.667 -167 53c-35.333 -35.333 -86 -53 -152 -53c-48 0 -97.667 17.333 -149 52
c-36.667 -35.333 -89.667 -53 -159 -53c-6.66699 -0 -10 3.33301 -10 10v71c0 6 3.33301 9 10 9c84 0 126 41.667 126 125l-1 162l85 13v-198c0 -28 -4 -53.667 -12 -77c38.667 -16 73.334 -24 104.001 -24c84 0 126 41.667 126 125l-1 162l85 13v-198
c0 -29.333 -4.33301 -55 -13 -77c41.333 -16.667 80 -25 116 -25c40.667 0 71.834 10.5 93.501 31.5s32.5 52.167 32.5 93.5v268l84 14v-305c0 -22 -2.66699 -43.667 -8 -65c38.667 -25.333 79.334 -38 122.001 -38z" />
    <glyph glyph-name="uniFEB6" unicode="&#x634;" horiz-adv-x="1362" arabic-form="final" 
d="M948 729l-52 -52l-53 52l52 53zM885 607l-72 -73l-74 73l73 72zM978 534l-74 73l74 72l73 -72zM1362 90c6.66699 0 10 -2.99805 10 -8.99805v-71c0 -6.66699 -3.33301 -10 -10 -10c-54.667 0 -105.667 20 -153 60c-32.667 -40 -85 -60 -157 -60
c-52.667 0 -108 17.667 -166 53c-35.333 -35.333 -86 -53 -152 -53c-42.667 0 -87.334 14 -134.001 42c-8.66699 -80 -36.334 -142.833 -83.001 -188.5s-113.667 -68.5 -201 -68.5c-84 0 -150.5 21.833 -199.5 65.5s-73.5 108.167 -73.5 193.5
c0 71.333 14.667 151.666 44 240.999l69 -19c-23.333 -68.667 -35 -135.334 -35 -200.001c0.666992 -62.667 18.334 -110.167 53.001 -142.5s83.667 -48.5 147 -48.5c66.667 0 116.167 18.833 148.5 56.5s48.5 95.834 48.5 174.501v377l84 14v-372
c44.667 -23.333 86.334 -35 125.001 -35c84 0 126 41.667 126 125v162l85 13v-198c0 -26.667 -4.33301 -52.334 -13 -77.001c41.333 -16.667 80 -25 116 -25c40.667 0 71.667 10.5 93 31.5s32 52.167 32 93.5v268l85 14v-305c0 -22 -2.66699 -43.667 -8 -65
c38 -24.667 77.667 -37 119 -37z" />
    <glyph glyph-name="uniFEB7" unicode="&#x634;" horiz-adv-x="884" arabic-form="initial" 
d="M518 730l-52 -52l-53 52l52 53zM455 608l-72 -73l-74 73l73 72zM548 535l-74 73l74 72l73 -72zM741 484l83.9971 13.999v-305c0 -61.333 -16.667 -108.666 -50 -141.999s-82.666 -50 -147.999 -50c-53.333 0 -109 17.667 -167 53c-35.333 -35.333 -86 -53 -152 -53
c-48 0 -97.667 17.333 -149 52c-36.667 -35.333 -89.667 -53 -159 -53c-6.66699 -0 -10 3.33301 -10 10v71c0 6 3.33301 9 10 9c84 0 126 41.667 126 125l-1 162l85 13v-198c0 -28 -4 -53.667 -12 -77c38.667 -16 73.334 -24 104.001 -24c84 0 126 41.667 126 125l-1 162
l85 13v-198c0 -29.333 -4.33301 -55 -13 -77c41.333 -16.667 80 -25 116 -25c40.667 0 71.834 10.5 93.501 31.5s32.5 52.167 32.5 93.5v268z" />
    <glyph glyph-name="uniFEB8" unicode="&#x634;" horiz-adv-x="939" arabic-form="medial" 
d="M516 730l-52 -52l-53 52l52 53zM453 608l-72 -73l-74 73l73 72zM546 535l-74 73l74 72l73 -72zM939 90c6.66699 0 9.99707 -3 9.99707 -9v-71c0 -6.66699 -3.33301 -10 -10 -10c-55.333 -0 -107 20.333 -155 61c-34 -40 -86.333 -60 -157 -60
c-53.333 0 -109 17.667 -167 53c-35.333 -35.333 -86 -53 -152 -53c-48 0 -97.667 17.333 -149 52c-36.667 -35.333 -89.667 -53 -159 -53c-6.66699 -0 -10 3.33301 -10 10v71c0 6 3.33301 9 10 9c84 0 126 41.667 126 125l-1 162l85 13v-198c0 -28 -4 -53.667 -12 -77
c38.667 -16 73.334 -24 104.001 -24c84 0 126 41.667 126 125l-1 162l85 13v-198c0 -29.333 -4.33301 -55 -13 -77c41.333 -16.667 80 -25 116 -25c40.667 0 71.834 10.5 93.501 31.5s32.5 52.167 32.5 93.5v268l84 14v-305c0 -22 -2.66699 -43.667 -8 -65
c38.667 -25.333 79.334 -38 122.001 -38z" />
    <glyph glyph-name="uniFEBA" unicode="&#x635;" horiz-adv-x="1327" arabic-form="final" 
d="M1327 90c6.66699 0 10 -3 10 -9v-71c0 -6.66699 -3.33301 -10 -10 -10c-56.667 0 -109.667 22 -159 66c-36 -44 -93.667 -66 -173 -66h-402c-13.333 -68 -42.833 -120.833 -88.5 -158.5s-108.5 -56.5 -188.5 -56.5c-84 0 -150.5 21.833 -199.5 65.5
s-73.5 108.167 -73.5 193.5c0 71.333 14.667 151.666 44 240.999l69 -19c-23.333 -68.667 -35 -135.334 -35 -200.001c0.666992 -62.667 18.334 -110.167 53.001 -142.5s83.667 -48.5 147 -48.5c66.667 0 116.167 18.833 148.5 56.5s48.5 95.834 48.5 174.501v377l84 14
v-120c103.333 44.667 181.5 75.167 234.5 91.5s104.5 24.5 154.5 24.5c63.333 0 115.5 -20.167 156.5 -60.5s61.167 -92.166 60.5 -155.499v-85c0 -20.667 -2.66699 -40.667 -8 -60c41.333 -28 83.666 -42 126.999 -42zM1123 207v58c0 42 -14 75.833 -42 101.5
s-64 38.5 -108 38.5c-40.667 0 -79.5 -5.16699 -116.5 -15.5s-105.167 -33.5 -204.5 -69.5c-6.66699 -2.66699 -12 -4.66699 -16 -6l-16 -5.5l-18 -6.5v-205v-7h394c40.667 0 72 10 94 30s33 49 33 87z" />
    <glyph glyph-name="uniFEBB" unicode="&#x635;" horiz-adv-x="836" arabic-form="initial" 
d="M574 493c63.333 0 115.499 -20 156.499 -60s61.5 -91 61.5 -153c0 -30.667 -2.5 -58.5 -7.5 -83.5s-14.5 -64.833 -28.5 -119.5l-67 -77h-548h-141c-6.66699 -0 -10 3.33301 -10 10l1 71c0 6 3.33301 9 10 9h99l-1 393l85 14v-120c102.667 44 180.834 74.333 234.501 91
s105.5 25 155.5 25zM673.999 90c22 74.667 32.999 134 32.999 178c-0.666992 40 -15.167 72.833 -43.5 98.5s-64.166 38.5 -107.499 38.5c-44.667 0 -88.167 -6 -130.5 -18s-122.833 -40 -241.5 -84v-213h490z" />
    <glyph glyph-name="uniFEBC" unicode="&#x635;" horiz-adv-x="915" arabic-form="medial" 
d="M915 90c6.66699 0 10 -3.00098 10 -9.00098v-71c0 -6.66699 -3.33301 -10 -10 -10c-58.667 0 -112.667 22.667 -162 68c-36 -45.333 -94.333 -68 -175 -68h-437h-141c-6.66699 0 -10 3.33301 -10 10v71c1.33301 6 4.66602 9 9.99902 9h100l-1 393l85 14v-120
c104 44.667 182.5 75.167 235.5 91.5s104.5 24.5 154.5 24.5c63.333 0 115.5 -20.167 156.5 -60.5s61.167 -92.166 60.5 -155.499v-85c0 -17.333 -2.33301 -36.333 -7 -57c42.667 -30 86.334 -45 131.001 -45zM706 206.999v57.999c0 42 -14 75.833 -42 101.5
s-64 38.5 -108 38.5c-44.667 0 -88.667 -6.16699 -132 -18.5s-123.333 -40.166 -240 -83.499v-213h395c40.667 0 72 10 94 30s33 49 33 87z" />
    <glyph glyph-name="uniFEBE" unicode="&#x636;" horiz-adv-x="1327" arabic-form="final" 
d="M875 657l-73 -73l-74 73l72 72zM1327 90c6.66699 0 10 -3 10 -9v-71c0 -6.66699 -3.33301 -10 -10 -10c-56.667 0 -109.667 22 -159 66c-36 -44 -93.667 -66 -173 -66h-402c-13.333 -68 -42.833 -120.833 -88.5 -158.5s-108.5 -56.5 -188.5 -56.5
c-84 0 -150.5 21.833 -199.5 65.5s-73.5 108.167 -73.5 193.5c0 71.333 14.667 151.666 44 240.999l69 -19c-23.333 -68.667 -35 -135.334 -35 -200.001c0.666992 -62.667 18.334 -110.167 53.001 -142.5s83.667 -48.5 147 -48.5c66.667 0 116.167 18.833 148.5 56.5
s48.5 95.834 48.5 174.501v377l84 14v-120c103.333 44.667 181.5 75.167 234.5 91.5s104.5 24.5 154.5 24.5c63.333 0 115.5 -20.167 156.5 -60.5s61.167 -92.166 60.5 -155.499v-85c0 -20.667 -2.66699 -40.667 -8 -60c41.333 -28 83.666 -42 126.999 -42zM1123 207v58
c0 42 -14 75.833 -42 101.5s-64 38.5 -108 38.5c-40.667 0 -79.5 -5.16699 -116.5 -15.5s-105.167 -33.5 -204.5 -69.5c-6.66699 -2.66699 -12 -4.66699 -16 -6l-16 -5.5l-18 -6.5v-205v-7h394c40.667 0 72 10 94 30s33 49 33 87z" />
    <glyph glyph-name="uniFEBF" unicode="&#x636;" horiz-adv-x="836" arabic-form="initial" 
d="M510 657l-73 -73l-74 73l72 72zM574 493c63.333 0 115.499 -20 156.499 -60s61.5 -91 61.5 -153c0 -30.667 -2.5 -58.5 -7.5 -83.5s-14.5 -64.833 -28.5 -119.5l-67 -77h-548h-141c-6.66699 -0 -10 3.33301 -10 10l1 71c0 6 3.33301 9 10 9h99l-1 393l85 14v-120
c102.667 44 180.834 74.333 234.501 91s105.5 25 155.5 25zM673.999 90c22 74.667 32.999 134 32.999 178c-0.666992 40 -15.167 72.833 -43.5 98.5s-64.166 38.5 -107.499 38.5c-44.667 0 -88.167 -6 -130.5 -18s-122.833 -40 -241.5 -84v-213h490z" />
    <glyph glyph-name="uniFEC0" unicode="&#x636;" horiz-adv-x="915" arabic-form="medial" 
d="M510 657l-73 -73l-74 73l72 72zM915 90c6.66699 0 10 -3.00098 10 -9.00098v-71c0 -6.66699 -3.33301 -10 -10 -10c-58.667 0 -112.667 22.667 -162 68c-36 -45.333 -94.333 -68 -175 -68h-437h-141c-6.66699 0 -10 3.33301 -10 10v71c1.33301 6 4.66602 9 9.99902 9h100
l-1 393l85 14v-120c104 44.667 182.5 75.167 235.5 91.5s104.5 24.5 154.5 24.5c63.333 0 115.5 -20.167 156.5 -60.5s61.167 -92.166 60.5 -155.499v-85c0 -17.333 -2.33301 -36.333 -7 -57c42.667 -30 86.334 -45 131.001 -45zM706 206.999v57.999
c0 42 -14 75.833 -42 101.5s-64 38.5 -108 38.5c-44.667 0 -88.667 -6.16699 -132 -18.5s-123.333 -40.166 -240 -83.499v-213h395c40.667 0 72 10 94 30s33 49 33 87z" />
    <glyph glyph-name="uniFEC2" unicode="&#x637;" horiz-adv-x="978" arabic-form="final" 
d="M978 90c6.66699 0 9.99805 -3.00195 9.99805 -9.00195v-71c0 -6.66699 -3.33301 -10 -10 -10c-58.667 0 -112.667 22.667 -162 68c-36 -45.333 -94.333 -68 -175 -68h-437h-42h-129l-16 90h145v627l85 13v-354c102.667 44.667 180.834 75.334 234.501 92.001
s105.5 25 155.5 25c63.333 0 115.5 -20.167 156.5 -60.5s61.167 -92.166 60.5 -155.499v-85c0 -22 -2.33301 -41 -7 -57c42.667 -30 86.334 -45 131.001 -45zM768.998 206.998l-0.000976562 58c0 42 -14 75.833 -42 101.5s-64 38.5 -108 38.5
c-45.333 0 -89.666 -6.16699 -132.999 -18.5s-123 -40.5 -239 -84.5v-212h395c40.667 0 72 10 94 30s33 49 33 87z" />
    <glyph glyph-name="uniFEC3" unicode="&#x637;" horiz-adv-x="836" arabic-form="initial" 
d="M574 493c63.333 0 115.499 -20 156.499 -60s61.5 -91 61.5 -153c0 -30.667 -2.5 -58.5 -7.5 -83.5s-14.5 -64.833 -28.5 -119.5l-67 -77h-505h-85h-99c-6.66699 -0 -10 3.33301 -10 10l1 71c0 6 3.33301 9 10 9h98v627l85 13v-233v-120
c102.667 44 180.834 74.333 234.501 91s105.5 25 155.5 25zM673.999 90c22 74.667 32.999 134 32.999 178c-0.666992 40 -15.167 72.833 -43.5 98.5s-64.166 38.5 -107.499 38.5c-44.667 0 -88.167 -6 -130.5 -18s-122.833 -40 -241.5 -84v-213h490z" />
    <glyph glyph-name="uniFEC4" unicode="&#x637;" horiz-adv-x="915" arabic-form="medial" 
d="M915 90c6.66699 0 10 -3.00098 10 -9.00098v-71c0 -6.66699 -3.33301 -10 -10 -10c-58.667 0 -112.667 22.667 -162 68c-36 -45.333 -94.333 -68 -175 -68h-394h-85h-99c-6.66699 0 -10 3.33301 -10 10v71c1.33301 6 4.66602 9 9.99902 9h99v627l85 13v-233v-120
c104 44.667 182.5 75.167 235.5 91.5s104.5 24.5 154.5 24.5c63.333 0 115.5 -20.167 156.5 -60.5s61.167 -92.166 60.5 -155.499v-85c0 -17.333 -2.33301 -36.333 -7 -57c42.667 -30 86.334 -45 131.001 -45zM706 206.999v57.999c0 42 -14 75.833 -42 101.5
s-64 38.5 -108 38.5c-44.667 0 -88.667 -6.16699 -132 -18.5s-123.333 -40.166 -240 -83.499v-213h395c40.667 0 72 10 94 30s33 49 33 87z" />
    <glyph glyph-name="uniFEC6" unicode="&#x638;" horiz-adv-x="978" arabic-form="final" 
d="M978 90c6.66699 0 9.99805 -3.00195 9.99805 -9.00195v-71c0 -6.66699 -3.33301 -10 -10 -10c-58.667 0 -112.667 22.667 -162 68c-36 -45.333 -94.333 -68 -175 -68h-437h-42h-129l-16 90h145v627l85 13v-354c102.667 44.667 180.834 75.334 234.501 92.001
s105.5 25 155.5 25c63.333 0 115.5 -20.167 156.5 -60.5s61.167 -92.166 60.5 -155.499v-85c0 -22 -2.33301 -41 -7 -57c42.667 -30 86.334 -45 131.001 -45zM541.998 656.998l-73 -73l-74 73l72 72zM768.998 206.998l-0.000976562 58c0 42 -14 75.833 -42 101.5
s-64 38.5 -108 38.5c-45.333 0 -89.666 -6.16699 -132.999 -18.5s-123 -40.5 -239 -84.5v-212h395c40.667 0 72 10 94 30s33 49 33 87z" />
    <glyph glyph-name="uniFEC7" unicode="&#x638;" horiz-adv-x="836" arabic-form="initial" 
d="M574 493c63.333 0 115.499 -20 156.499 -60s61.5 -91 61.5 -153c0 -30.667 -2.5 -58.5 -7.5 -83.5s-14.5 -64.833 -28.5 -119.5l-67 -77h-505h-85h-99c-6.66699 -0 -10 3.33301 -10 10l1 71c0 6 3.33301 9 10 9h98v627l85 13v-233v-120
c102.667 44 180.834 74.333 234.501 91s105.5 25 155.5 25zM458.999 657l-73 -73l-74 73l72 72zM673.999 90c22 74.667 32.999 134 32.999 178c-0.666992 40 -15.167 72.833 -43.5 98.5s-64.166 38.5 -107.499 38.5c-44.667 0 -88.167 -6 -130.5 -18
s-122.833 -40 -241.5 -84v-213h490z" />
    <glyph glyph-name="uniFEC8" unicode="&#x638;" horiz-adv-x="915" arabic-form="medial" 
d="M915 90c6.66699 0 10 -3.00098 10 -9.00098v-71c0 -6.66699 -3.33301 -10 -10 -10c-58.667 0 -112.667 22.667 -162 68c-36 -45.333 -94.333 -68 -175 -68h-394h-85h-99c-6.66699 0 -10 3.33301 -10 10v71c1.33301 6 4.66602 9 9.99902 9h99v627l85 13v-233v-120
c104 44.667 182.5 75.167 235.5 91.5s104.5 24.5 154.5 24.5c63.333 0 115.5 -20.167 156.5 -60.5s61.167 -92.166 60.5 -155.499v-85c0 -17.333 -2.33301 -36.333 -7 -57c42.667 -30 86.334 -45 131.001 -45zM459 656.999l-73 -73l-74 73l72 72zM706 206.999v57.999
c0 42 -14 75.833 -42 101.5s-64 38.5 -108 38.5c-44.667 0 -88.667 -6.16699 -132 -18.5s-123.333 -40.166 -240 -83.499v-213h395c40.667 0 72 10 94 30s33 49 33 87z" />
    <glyph glyph-name="uniFECA" unicode="&#x639;" horiz-adv-x="616" arabic-form="final" 
d="M616 90c6.66699 0 9.99805 -3.00098 9.99805 -9.00098v-71c0 -6.66699 -3.33301 -10 -10 -10c-109.333 0 -208.666 29.333 -297.999 88c-76.667 -41.333 -124.667 -70.333 -144 -87c-25.333 -22 -38 -46.333 -38 -73c0 -35.333 17.833 -63.5 53.5 -84.5
s84.167 -31.5 145.5 -31.5c69.333 0 144.333 12.333 225 37l24 -73c-94 -34 -179.667 -51 -257 -51c-82.667 0 -148.5 17.5 -197.5 52.5s-73.5 82.167 -73.5 141.5c0 43.333 14.333 79.333 43 108s74 59.334 136 92.001c-40 46 -73.167 88.167 -99.5 126.5
s-55.5 87.833 -87.5 148.5l33 77c94 48 178 72 252 72c66.667 0 122.167 -17.833 166.5 -53.5s66.5 -80.5 66.5 -134.5c0 -78 -56 -152 -168 -222c68.667 -28.667 141.334 -43 218.001 -43zM319.998 456.999c-52 0.666992 -112.667 -15.002 -182 -47.002
c50.667 -97.333 107.667 -181.666 171 -252.999c114 62.667 171 119.334 171 170.001c0 38.667 -14.667 70 -44 94s-68 36 -116 36z" />
    <glyph glyph-name="uniFECB" unicode="&#x639;" horiz-adv-x="547" arabic-form="initial" 
d="M188 94c94.667 4 205.333 16.667 332 38l-18 -90c-150 -28 -317.333 -42 -502 -42c-6.66699 -0 -10 3.33301 -10 10v71c0 6 3.33301 9 10 9c46.667 0 80.667 0.333008 102 1c-37.333 60 -56 119.667 -56 179c0 62 21.667 112.667 65 152s97.333 59 162 59
c42.667 0 102.667 -13 180 -39l-24 -73c-60.667 18.667 -108 28 -142 28c-46 0 -83.833 -13.333 -113.5 -40s-44.5 -62 -44.5 -106c0 -52 19.667 -104.333 59 -157z" />
    <glyph glyph-name="uniFECC" unicode="&#x639;" horiz-adv-x="601" arabic-form="medial" 
d="M599 90c6.66699 0 9.99902 -3 9.99902 -9v-71c0 -6.66699 -3.33301 -10 -10 -10c-116.667 0 -210.667 17.667 -282 53c-44.667 -20 -90.667 -33.833 -138 -41.5s-107 -11.5 -179 -11.5c-6.66699 0.666992 -10 4 -10 10v71c0 6 3.33301 9 10 9
c68.667 0 136.334 6 203.001 18c-35.333 42 -65.333 81.5 -90 118.5s-52 83.833 -82 140.5l32 77c93.333 48 177.666 72 252.999 72c66.667 0 122 -17.667 166 -53s66 -80.333 66 -135c0 -38 -11.667 -76.5 -35 -115.5s-57.666 -74.5 -102.999 -106.5
c53.333 -10.667 116.333 -16 189 -16zM301.999 430c-52 0.666992 -112.333 -14.998 -181 -46.998c29.333 -56.667 56.833 -103.834 82.5 -141.501s57.167 -77.5 94.5 -119.5c48 23.333 87.167 51.666 117.5 84.999s45.5 64.333 45.5 93c0 38.667 -14.5 70 -43.5 94
s-67.5 36 -115.5 36z" />
    <glyph glyph-name="uniFECE" unicode="&#x63a;" horiz-adv-x="616" arabic-form="final" 
d="M383 693l-73 -73l-74 73l72 72zM616 90c6.66699 0 9.99805 -3.00098 9.99805 -9.00098v-71c0 -6.66699 -3.33301 -10 -10 -10c-109.333 0 -208.666 29.333 -297.999 88c-76.667 -41.333 -124.667 -70.333 -144 -87c-25.333 -22 -38 -46.333 -38 -73
c0 -35.333 17.833 -63.5 53.5 -84.5s84.167 -31.5 145.5 -31.5c69.333 0 144.333 12.333 225 37l24 -73c-94 -34 -179.667 -51 -257 -51c-82.667 0 -148.5 17.5 -197.5 52.5s-73.5 82.167 -73.5 141.5c0 43.333 14.333 79.333 43 108s74 59.334 136 92.001
c-40 46 -73.167 88.167 -99.5 126.5s-55.5 87.833 -87.5 148.5l33 77c94 48 178 72 252 72c66.667 0 122.167 -17.833 166.5 -53.5s66.5 -80.5 66.5 -134.5c0 -78 -56 -152 -168 -222c68.667 -28.667 141.334 -43 218.001 -43zM319.998 456.999
c-52 0.666992 -112.667 -15.002 -182 -47.002c50.667 -97.333 107.667 -181.666 171 -252.999c114 62.667 171 119.334 171 170.001c0 38.667 -14.667 70 -44 94s-68 36 -116 36z" />
    <glyph glyph-name="uniFECF" unicode="&#x63a;" horiz-adv-x="547" arabic-form="initial" 
d="M326 639l-73 -73l-74 73l72 72zM188 94c94.667 4 205.333 16.667 332 38l-18 -90c-150 -28 -317.333 -42 -502 -42c-6.66699 -0 -10 3.33301 -10 10v71c0 6 3.33301 9 10 9c46.667 0 80.667 0.333008 102 1c-37.333 60 -56 119.667 -56 179c0 62 21.667 112.667 65 152
s97.333 59 162 59c42.667 0 102.667 -13 180 -39l-24 -73c-60.667 18.667 -108 28 -142 28c-46 0 -83.833 -13.333 -113.5 -40s-44.5 -62 -44.5 -106c0 -52 19.667 -104.333 59 -157z" />
    <glyph glyph-name="uniFED0" unicode="&#x63a;" horiz-adv-x="601" arabic-form="medial" 
d="M370 666l-73 -73l-74 73l72 72zM599 90c6.66699 0 9.99902 -3 9.99902 -9v-71c0 -6.66699 -3.33301 -10 -10 -10c-116.667 0 -210.667 17.667 -282 53c-44.667 -20 -90.667 -33.833 -138 -41.5s-107 -11.5 -179 -11.5c-6.66699 0.666992 -10 4 -10 10v71
c0 6 3.33301 9 10 9c68.667 0 136.334 6 203.001 18c-35.333 42 -65.333 81.5 -90 118.5s-52 83.833 -82 140.5l32 77c93.333 48 177.666 72 252.999 72c66.667 0 122 -17.667 166 -53s66 -80.333 66 -135c0 -38 -11.667 -76.5 -35 -115.5s-57.666 -74.5 -102.999 -106.5
c53.333 -10.667 116.333 -16 189 -16zM301.999 430c-52 0.666992 -112.333 -14.998 -181 -46.998c29.333 -56.667 56.833 -103.834 82.5 -141.501s57.167 -77.5 94.5 -119.5c48 23.333 87.167 51.666 117.5 84.999s45.5 64.333 45.5 93c0 38.667 -14.5 70 -43.5 94
s-67.5 36 -115.5 36z" />
    <glyph glyph-name="uniFED2" unicode="&#x641;" horiz-adv-x="973" arabic-form="final" 
d="M766 642l-73 -73l-74 73l72 72zM976 90c6.66699 0 10.002 -3 10.002 -9v-71c0 -6.66699 -3.33301 -10 -10 -10c-101.333 0 -193 12 -275 36c-72.667 -22.667 -164.667 -34.667 -276 -36h-1h-137c-79.333 -0 -139.833 18.333 -181.5 55s-62.5 90.667 -62.5 162
c0 45.333 7.33301 102.333 22 171l74 -10c-10.667 -59.333 -16 -105 -16 -137c0 -100.667 61.333 -151 184 -151h106c67.333 0 119.666 2 156.999 6c-62 46 -93 105 -93 177c0 60.667 21 111.167 63 151.5s94.333 60.5 157 60.5c64 0 116.667 -20.5 158 -61.5
s62 -91.167 62 -150.5c0 -70.667 -30.667 -129 -92 -175c39.333 -5.33301 89.666 -8 150.999 -8zM694.002 401c-39.333 0 -71.5 -12.833 -96.5 -38.5s-37.5 -58.5 -37.5 -98.5c0 -36 12.167 -68.167 36.5 -96.5s57.5 -48.833 99.5 -61.5c43.333 14.667 77.333 36 102 64
s37 59.333 37 94c0 40 -13.5 72.833 -40.5 98.5s-60.5 38.5 -100.5 38.5z" />
    <glyph glyph-name="uniFED3" unicode="&#x641;" horiz-adv-x="542" arabic-form="initial" 
d="M333 642l-73 -73l-74 73l72 72zM273 485c64 0 117.667 -21.833 161 -65.5s65 -98.167 65 -163.5c0 -80 -24.833 -142.667 -74.5 -188s-118.167 -68 -205.5 -68h-219c-6.66699 -0 -10 3.33301 -10 10v71c0 6 3.33301 9 10 9h86c-30 62 -45 116 -45 162
c0 67.333 21.833 123 65.5 167s99.167 66 166.5 66zM226 90c57.333 0 103 14.332 137 42.999s51 68.667 51 120c0 42.667 -13.833 77.834 -41.5 105.501s-62.5 41.5 -104.5 41.5c-40 0 -74 -14.833 -102 -44.5s-42 -64.5 -42 -104.5c0 -48 16.667 -101.667 50 -161h52z" />
    <glyph glyph-name="uniFED4" unicode="&#x641;" horiz-adv-x="563" arabic-form="medial" 
d="M353 642l-73 -73l-74 73l72 72zM563 90c6.66699 0 10.002 -3.00098 10.002 -9.00098v-71c0 -6.66699 -3.33301 -10 -10 -10c-98.667 0 -190.334 12.333 -275.001 37c-76 -24.667 -172 -37 -288 -37c-6.66699 0.666992 -10 4 -10 10v71c0 6 3.33301 9 10 9
c58 0 110 2 156 6c-61.333 46 -92 105 -92 177c0 60.667 21 111.167 63 151.5s94.333 60.5 157 60.5c64 0 116.667 -20.5 158 -61.5s62 -91.167 62 -150.5c0 -71.333 -30.667 -129.666 -92 -174.999c39.333 -5.33301 89.666 -8 150.999 -8zM281.002 400.999
c-39.333 0 -71.5 -12.833 -96.5 -38.5s-37.5 -58.5 -37.5 -98.5c0 -35.333 12.333 -67.333 37 -96s57.667 -49 99 -61c42.667 14 76.5 35 101.5 63s37.5 59.333 37.5 94c0 40 -13.5 72.833 -40.5 98.5s-60.5 38.5 -100.5 38.5z" />
    <glyph glyph-name="uniFED6" unicode="&#x642;" horiz-adv-x="769" arabic-form="final" 
d="M492 641l-73 -72l-73 72l73 72zM651 641l-73 -72l-74 72l74 72zM769 90c6.66699 0 9.99805 -2.99902 9.99805 -8.99902v-71c0 -6.66699 -3.33301 -10 -10 -10h-63c-23.333 -143.333 -142.333 -215 -357 -215c-92 0 -166 22.333 -222 67s-84 108.667 -84 192
c0 71.333 14.667 151.666 44 240.999l69 -19c-23.333 -68.667 -35 -135.334 -35 -200.001c0.666992 -66 22.834 -116.333 66.501 -151s104.167 -52 181.5 -52c70.667 0 127.834 11.833 171.501 35.5s71.167 57.5 82.5 101.5h-122c-68 0 -122.667 20.833 -164 62.5
s-62 97.5 -62 167.5c0 72.667 21.167 131.834 63.5 177.501s96.5 68.167 162.5 67.5c62 -1.33301 112.333 -22.5 151 -63.5s58 -94.833 58 -161.5v-160h59zM352.998 234.001c0 -47.333 14.3311 -83.667 42.998 -109s67.334 -38 116.001 -38c21.333 0 59.333 0.666992 114 2
l-1 154c0 42.667 -12.167 77.167 -36.5 103.5s-56.166 39.833 -95.499 40.5c-41.333 1.33301 -75 -12 -101 -40s-39 -65.667 -39 -113z" />
    <glyph glyph-name="uniFED7" unicode="&#x642;" horiz-adv-x="542" arabic-form="initial" 
d="M259 641l-73 -72l-73 72l73 72zM418 641l-73 -72l-74 72l74 72zM273 485c64 0 117.667 -21.833 161 -65.5s65 -98.167 65 -163.5c0 -80 -24.833 -142.667 -74.5 -188s-118.167 -68 -205.5 -68h-219c-6.66699 -0 -10 3.33301 -10 10v71c0 6 3.33301 9 10 9h86
c-30 62 -45 116 -45 162c0 67.333 21.833 123 65.5 167s99.167 66 166.5 66zM226 90c57.333 0 103 14.332 137 42.999s51 68.667 51 120c0 42.667 -13.833 77.834 -41.5 105.501s-62.5 41.5 -104.5 41.5c-40 0 -74 -14.833 -102 -44.5s-42 -64.5 -42 -104.5
c0 -48 16.667 -101.667 50 -161h52z" />
    <glyph glyph-name="uniFED8" unicode="&#x642;" horiz-adv-x="563" arabic-form="medial" 
d="M276 641l-73 -72l-73 72l73 72zM435 641l-73 -72l-74 72l74 72zM563 90c6.66699 0 10.002 -3.00098 10.002 -9.00098v-71c0 -6.66699 -3.33301 -10 -10 -10c-98.667 0 -190.334 12.333 -275.001 37c-76 -24.667 -172 -37 -288 -37c-6.66699 0.666992 -10 4 -10 10v71
c0 6 3.33301 9 10 9c58 0 110 2 156 6c-61.333 46 -92 105 -92 177c0 60.667 21 111.167 63 151.5s94.333 60.5 157 60.5c64 0 116.667 -20.5 158 -61.5s62 -91.167 62 -150.5c0 -71.333 -30.667 -129.666 -92 -174.999c39.333 -5.33301 89.666 -8 150.999 -8z
M281.002 400.999c-39.333 0 -71.5 -12.833 -96.5 -38.5s-37.5 -58.5 -37.5 -98.5c0 -35.333 12.333 -67.333 37 -96s57.667 -49 99 -61c42.667 14 76.5 35 101.5 63s37.5 59.333 37.5 94c0 40 -13.5 72.833 -40.5 98.5s-60.5 38.5 -100.5 38.5z" />
    <glyph glyph-name="uniFEDA" unicode="&#x643;" horiz-adv-x="875" arabic-form="final" 
d="M874 90c6.66699 0 10.001 -3 10.001 -9v-71c0 -6.66699 -3.33301 -10 -10 -10c-86.667 0 -146.334 25 -179.001 75c-74.667 -50 -165 -75 -271 -75h-1h-136c-79.333 -0 -139.833 18.333 -181.5 55s-62.5 90.667 -62.5 162c0 48.667 7 105.667 21 171l75 -10
c-10.667 -59.333 -16 -105 -16 -137c0 -100.667 61.333 -151 184 -151h116h1c105.333 0 187 17 245 51c-3.33301 20 -5 39.667 -5 59v517l85 13v-510c0 -86.667 41.667 -130 125 -130zM544.001 423l-20.001 -66.998h-237v67h61c-12.667 19.333 -19 39.666 -19 60.999
c0 30 9.83301 54.167 29.5 72.5s45.167 27.5 76.5 27.5c22.667 0 48.334 -6.66699 77.001 -20v-62c-26.667 10 -49.334 15 -68.001 15c-17.333 0 -31.166 -4.16699 -41.499 -12.5s-15.5 -19.833 -15.5 -34.5c0 -16.667 6.33301 -32.334 19 -47.001h138z" />
    <glyph glyph-name="uniFEDB" unicode="&#x643;" horiz-adv-x="582" arabic-form="initial" 
d="M302 423c73.333 0 131.832 -18.833 175.499 -56.5s65.5 -88.5 65.5 -152.5c0 -66 -20.5 -118.167 -61.5 -156.5s-95.833 -57.5 -164.5 -57.5h-317c-6.66699 -0 -10 3.33301 -10 10v71c0 6 3.33301 9 10 9h310c46 0 82.167 11 108.5 33s39.5 52.667 39.5 92
s-13.167 70.5 -39.5 93.5s-62.166 34.5 -107.499 34.5h-241l-46 81l299 354l82 -43l-281 -312h178z" />
    <glyph glyph-name="uniFEDC" unicode="&#x643;" horiz-adv-x="654" arabic-form="medial" 
d="M654 90c6.66699 0 9.99902 -3 9.99902 -9v-71c0 -6.66699 -3.33301 -10 -10 -10c-58.667 0 -112.667 22.667 -162 68c-40 -45.333 -98.333 -68 -175 -68h-317c-6.66699 -0 -10 3.33301 -10 10v71c0 6 3.33301 9 10 9h310c46 0 82.167 11 108.5 33s39.5 52.667 39.5 92
s-13.167 70.5 -39.5 93.5s-62.166 34.5 -107.499 34.5h-241l-46 81l299 354l82 -43l-281 -312h178c73.333 0 131.833 -18.833 175.5 -56.5s65.5 -88.5 65.5 -152.5c0 -32 -4.33301 -59.667 -13 -83c38.667 -27.333 80 -41 124 -41z" />
    <glyph glyph-name="uniFEDE" unicode="&#x644;" horiz-adv-x="726" arabic-form="final" 
d="M726 90c6.66699 0 9.99902 -2.99902 9.99902 -8.99902v-71c0 -6.66699 -3.33301 -10 -10 -10c-56 0 -97.667 19.333 -125 58c-6 -85.333 -32.333 -152.166 -79 -200.499s-115.334 -72.5 -206.001 -72.5c-84 0 -150.5 21.833 -199.5 65.5s-73.5 108.167 -73.5 193.5
c0 71.333 14.667 151.666 44 240.999l69 -19c-23.333 -68.667 -35 -135.334 -35 -200.001c0.666992 -62.667 18.334 -110.167 53.001 -142.5s83.667 -48.5 147 -48.5c66.667 0 116.167 18.833 148.5 56.5s48.5 95.834 48.5 174.501v377v237l85 13v-477v-58
c0 -34.667 12.333 -61.334 37 -80.001s53.334 -28 86.001 -28z" />
    <glyph glyph-name="uniFEDF" unicode="&#x644;" horiz-adv-x="297" arabic-form="initial" 
d="M0 0c-6.66699 0 -10 3.33301 -10 10v71c0 6 3.66699 9 11 9c83.333 0 125 43.333 125 130l1 497l84 13v-530c0 -133.333 -70.333 -200 -211 -200z" />
    <glyph glyph-name="uniFEE0" unicode="&#x644;" horiz-adv-x="325" arabic-form="medial" 
d="M324 90c6.66699 0 10 -3.00098 10 -9.00098v-71c0 -6.66699 -3.33301 -10 -10 -10c-80.667 0 -138 21.667 -172 65c-46 -43.333 -96.667 -65 -152 -65c-6.66699 0 -10 3.33301 -10 10v71c0 6 3.33301 9 10 9c48 0 88.333 14 121 42c-4.66699 18.667 -7 41.334 -7 68.001
v517l85 13v-510c0 -86.667 41.667 -130 125 -130z" />
    <glyph glyph-name="uniFEE2" unicode="&#x645;" horiz-adv-x="687" arabic-form="final" 
d="M686 90c6.66699 0 10.002 -3 10.002 -9v-71c0 -6.66699 -3.33301 -10 -10 -10h-240c-63.333 0 -117 15 -161 45s-73.333 72.333 -88 127c-50.667 -9.33301 -76 -45.333 -76 -108v-321l-84 -13l-1 345c0 111.333 50.333 173.333 151 186
c1.33301 64.667 23.166 118.167 65.499 160.5s96.166 63.5 161.499 63.5c61.333 0 113.5 -22.167 156.5 -66.5s64.5 -96.5 64.5 -156.5c0 -48 -12.333 -105.333 -37 -172h88zM439.002 90l84.001 -0.00195312c23.333 62.667 35 115.334 35 158.001
c0 40.667 -13.333 76.334 -40 107.001s-59.667 46 -99 46c-44.667 0 -80.334 -13.833 -107.001 -41.5s-40 -64.167 -40 -109.5c0 -48 15 -86.667 45 -116s70.667 -44 122 -44z" />
    <glyph glyph-name="uniFEE3" unicode="&#x645;" horiz-adv-x="542" arabic-form="initial" 
d="M273 485c64 0 117.667 -21.833 161 -65.5s65 -98.167 65 -163.5c0 -80 -24.833 -142.667 -74.5 -188s-118.167 -68 -205.5 -68h-219c-6.66699 -0 -10 3.33301 -10 10v71c0 6 3.33301 9 10 9h86c-30 62 -45 116 -45 162c0 67.333 21.833 123 65.5 167s99.167 66 166.5 66z
M226 90c57.333 0 103 14.332 137 42.999s51 68.667 51 120c0 42.667 -13.833 77.834 -41.5 105.501s-62.5 41.5 -104.5 41.5c-40 0 -74 -14.833 -102 -44.5s-42 -64.5 -42 -104.5c0 -48 16.667 -101.667 50 -161h52z" />
    <glyph glyph-name="uniFEE4" unicode="&#x645;" horiz-adv-x="564" arabic-form="medial" 
d="M564 90c6.66699 0 10 -3 10 -9v-71c0 -6.66699 -3.33301 -10 -10 -10h-242c-66 -0 -121.333 16.333 -166 49c-52 -32.667 -104 -49 -156 -49c-6.66699 -0 -10 3.33301 -10 10v71c0 6 3.33301 9 10 9c34.667 0 67.667 7.33301 99 22c-24 39.333 -36 86.333 -36 141
c0 66.667 21.333 122 64 166s97 66 163 66c62 0 115 -22.167 159 -66.5s66 -96.5 66 -156.5c0 -52 -11.667 -109.333 -35 -172h84zM315 90l83 -0.000976562c23.333 65.333 35 118 35 158c0 40.667 -13.167 76.334 -39.5 107.001s-59.166 46 -98.499 46
c-44.667 0 -80.334 -13.833 -107.001 -41.5s-40 -64.167 -40 -109.5c0 -48 15 -86.667 45 -116s70.667 -44 122 -44z" />
    <glyph glyph-name="uniFEE6" unicode="&#x646;" horiz-adv-x="717" arabic-form="final" 
d="M395 483l-73 -73l-74 73l72 72zM717 90c6.66699 0 10 -2.99902 10 -8.99902v-71c0 -6.66699 -3.33301 -10 -10 -10c-52 0 -90.667 19.667 -116 59c-6 -85.333 -32.333 -152.333 -79 -201s-115.334 -73 -206.001 -73c-84 0 -150.5 21.833 -199.5 65.5
s-73.5 108.167 -73.5 193.5c0 71.333 14.667 151.666 44 240.999l69 -19c-23.333 -68.667 -35 -135.334 -35 -200.001c0.666992 -62.667 18.334 -110.167 53.001 -142.5s83.667 -48.5 147 -48.5c66.667 0 116.167 18.833 148.5 56.5s48.5 95.834 48.5 174.501v377l84 14
v-288l1 -8c6.66699 -74 44.667 -111 114 -111z" />
    <glyph glyph-name="uniFEE7" unicode="&#x646;" horiz-adv-x="278" arabic-form="initial" 
d="M166 580l-74 73l72 72l75 -72zM0 0c-6.66699 0 -10 3.33203 -10 9.99902l1 71c0 6 3.33301 9 10 9c84 0 126 41.667 126 125l-1 268l85 14v-305c0 -61.333 -17.833 -108.666 -53.5 -141.999s-88.167 -50 -157.5 -50z" />
    <glyph glyph-name="uniFEE8" unicode="&#x646;" horiz-adv-x="331" arabic-form="medial" 
d="M241 537l-73 -73l-74 73l72 72zM331 90c6.66699 0 10 -3 10 -9v-71c0 -6.66699 -3.33301 -10 -10 -10c-56.667 0 -109.667 21.667 -159 65c-35.333 -43.333 -92.666 -65 -171.999 -65c-6.66699 -0 -10 3.33301 -10 10l1 71c0 6 3.33301 9 10 9c84 0 126 41.667 126 125
l-1 162l85 13v-198c0 -23.333 -2.33301 -43.333 -7 -60c41.333 -28 83.666 -42 126.999 -42z" />
    <glyph glyph-name="uniFEE9" unicode="&#x647;" horiz-adv-x="811" arabic-form="isolated" 
d="M309 674c146 0.666992 258.835 -31.499 338.502 -96.499s119.5 -153.5 119.5 -265.5c0 -78.667 -20 -161.334 -60 -248.001l-81 -77c-86.667 -1.33301 -180.334 17 -281.001 55c-67.333 -28 -128.333 -42 -183 -42c-46.667 0 -94 7.66699 -142 23l18 85
c41.333 -12 80.333 -18 117 -18c11.333 0 29 1.33301 53 4c-64.667 45.333 -97 105.333 -97 180c0 60.667 20.667 111.167 62 151.5s93 60.5 155 60.5c63.333 0 115.5 -20.333 156.5 -61s61.5 -90.667 61.5 -150c0 -71.333 -32.667 -130.666 -98 -177.999
c58 -14 117 -21 177 -21c40 75.333 60 151.666 60 228.999c0 38 -7.5 73.667 -22.5 107s-37.333 63.833 -67 91.5s-69.834 49.667 -120.501 66s-109 24.5 -175 24.5zM326.002 402.001c-38.667 0 -70.333 -12.667 -95 -38s-37 -58.333 -37 -99c0 -34.667 12 -66.167 36 -94.5
s56.333 -48.833 97 -61.5c42 15.333 75.333 37 100 65s37 58.333 37 91c0 40 -13 72.833 -39 98.5s-59 38.5 -99 38.5z" />
    <glyph glyph-name="uniFEEA" unicode="&#x647;" horiz-adv-x="583" arabic-form="final" 
d="M583 90c6.66699 0 9.99707 -3 9.99707 -9v-71c0 -6.66699 -3.33301 -10 -10 -10c-61.333 -0 -106.666 14.333 -135.999 43c-67.333 -34.667 -127.666 -52 -180.999 -52c-67.333 0 -122.5 23 -165.5 69s-64.5 103 -64.5 171c0 69.333 21.667 128.333 65 177
s98.333 73 165 73c40.667 0 85.334 -9.33301 134.001 -28v62l84 14l1 -327c0 -40 7.66699 -68.667 23 -86s40.333 -26 75 -26zM265.997 77c44.667 -0.666992 92.667 10.666 144 33.999c-6.66699 22.667 -10 50.334 -10 83.001v174c-54 18 -97.667 27 -131 27
c-44.667 0 -81.167 -15.667 -109.5 -47s-42.5 -70 -42.5 -116c0 -44 13.833 -80.667 41.5 -110s63.5 -44.333 107.5 -45z" />
    <glyph glyph-name="uniFEEB" unicode="&#x647;" horiz-adv-x="785" arabic-form="initial" 
d="M270 674c146.667 0.666992 261.833 -31.667 345.5 -97s125.5 -153.666 125.5 -264.999c0 -62.667 -12 -141 -36 -235l-67 -77h-312c-64 0 -118 15.333 -162 46c-52.667 -30.667 -107.334 -46 -164.001 -46c-6.66699 0 -10 3.33301 -10 10v71c0 6 3.33301 9 10 9
c40 0 74.667 6.33301 104 19c-24.667 40 -37 88 -37 144c0 66.667 21.167 122 63.5 166s96.833 66 163.5 66c62 0 115 -22.167 159 -66.5s66 -96.5 66 -156.5c0 -50.667 -12 -108 -36 -172h143c22 78 33 149.667 33 215c0 37.333 -8 73 -24 107s-39.667 64.667 -71 92
s-73.166 49.166 -125.499 65.499s-111.5 24.5 -177.5 24.5zM318.999 89.999l82.001 -0.00195312c23.333 62.667 35 115.334 35 158.001c0 40.667 -13.167 76.334 -39.5 107.001s-58.833 46 -97.5 46c-44.667 0 -80.334 -13.833 -107.001 -41.5s-40 -64.167 -40 -109.5
c0 -48 15 -86.667 45 -116s70.667 -44 122 -44z" />
    <glyph glyph-name="uniFEEC" unicode="&#x647;" horiz-adv-x="547" arabic-form="medial" 
d="M551 90c6.66699 0 10 -3 10 -9v-71c0 -6.66699 -3.33301 -10 -10 -10h-40v-15c0 -66 -18.833 -116.667 -56.5 -152s-92.5 -53 -164.5 -53c-61.333 0 -113 19.5 -155 58.5s-69.667 93.167 -83 162.5c-12 -0.666992 -30.333 -1 -55 -1c-6.66699 -0 -10 3.33301 -10 10v71
c0 6 3.33301 9 10 9h46v6c0 171.333 75 332.333 225 483h77c47.333 -51.333 84.5 -104.333 111.5 -159s40.5 -104.334 40.5 -149.001c0 -75.333 -31.333 -135.666 -94 -180.999h148zM125 109l0.000976562 -15c100 6 173 22.5 219 49.5s69 68.833 69 125.5
c0 71.333 -38 151.333 -114 240c-52.667 -56.667 -94.834 -121 -126.501 -193s-47.5 -141 -47.5 -207zM292.001 -136c96.667 0 145 40.333 145 121v15h-144l-11 34c-44.667 -12.667 -93.667 -21.667 -147 -27c22.667 -95.333 75 -143 157 -143z" />
    <glyph glyph-name="uniFEEE" unicode="&#x648;" horiz-adv-x="541" arabic-form="final" 
d="M541 90c6.66699 0 10 -2.99902 10 -8.99902v-71c0 -6.66699 -3.33301 -10 -10 -10h-59c-12 -143.333 -136 -215 -372 -215l-10 73c92.667 0 163.667 11.333 213 34s77.333 58.667 84 108h-120c-70.667 0 -127.334 21.5 -170.001 64.5s-64 100.833 -64 173.5
c0 71.333 21.833 129.666 65.5 174.999s98.834 68 165.501 68c62 0 112.333 -20.5 151 -61.5s58 -95.167 58 -162.5v-167h58zM122 242.001c0 -50 14.998 -88.332 44.998 -114.999s70.333 -40 121 -40c21.333 0 58 0.666992 110 2v161c0 43.333 -12.167 78.166 -36.5 104.499
s-56.166 39.5 -95.499 39.5c-41.333 0 -75.666 -14 -102.999 -42s-41 -64.667 -41 -110z" />
    <glyph glyph-name="uniFEF0" unicode="&#x649;" horiz-adv-x="1014" arabic-form="final" 
d="M1014 90c6.66699 0 9.99902 -2.99805 9.99902 -8.99805v-71c0 -6.66699 -3.33301 -10 -10 -10h-203v386h-81c-40.667 0 -72.167 -10.5 -94.5 -31.5s-33.5 -51.833 -33.5 -92.5v-182c0 -97.333 -21.167 -170.833 -63.5 -220.5s-116.5 -74.5 -222.5 -74.5
c-84 0 -150.5 21.833 -199.5 65.5s-73.5 108.167 -73.5 193.5c0 71.333 14.667 151.666 44 240.999l69 -19c-23.333 -68.667 -35 -135.334 -35 -200.001c0.666992 -62.667 18.334 -110.167 53.001 -142.5s83.667 -48.5 147 -48.5c72.667 0 123.667 16 153 48
s44 87.333 44 166v188c0 61.333 17.167 109.833 51.5 145.5s83.833 53.5 148.5 53.5h120l58 -51v-335h118z" />
    <glyph glyph-name="uniFEF2" unicode="&#x64a;" horiz-adv-x="1014" arabic-form="final" 
d="M1014 90c6.66699 0 9.99902 -2.99805 9.99902 -8.99805v-71c0 -6.66699 -3.33301 -10 -10 -10h-203v386h-81c-40.667 0 -72.167 -10.5 -94.5 -31.5s-33.5 -51.833 -33.5 -92.5v-182c0 -97.333 -21.167 -170.833 -63.5 -220.5s-116.5 -74.5 -222.5 -74.5
c-84 0 -150.5 21.833 -199.5 65.5s-73.5 108.167 -73.5 193.5c0 71.333 14.667 151.666 44 240.999l69 -19c-23.333 -68.667 -35 -135.334 -35 -200.001c0.666992 -62.667 18.334 -110.167 53.001 -142.5s83.667 -48.5 147 -48.5c72.667 0 123.667 16 153 48
s44 87.333 44 166v188c0 61.333 17.167 109.833 51.5 145.5s83.833 53.5 148.5 53.5h120l58 -51v-335h118zM220.999 -346.998l73 72l73 -72l-73 -72zM378.999 -346.998l74 72l73 -72l-73 -72z" />
    <glyph glyph-name="uniFEF3" unicode="&#x64a;" horiz-adv-x="353" arabic-form="initial" 
d="M0 0c-6.66699 0 -10.001 3.33203 -10.001 9.99902l1 71c0 6 3.33301 9 10 9h76c83.333 0 125 41.667 125 125v268l84 14v-305c0 -61.333 -17.667 -108.666 -53 -141.999s-87.666 -50 -156.999 -50h-76zM63.999 -223.001l-73 72l73 72l73 -72zM222.999 -223.001l-74 72
l74 72l73 -72z" />
    <glyph glyph-name="uniFEF4" unicode="&#x64a;" horiz-adv-x="376" arabic-form="medial" 
d="M376 90c6.66699 0 10 -3 10 -9v-71c0 -6.66699 -3.33301 -10 -10 -10c-62 -0 -119.333 24.333 -172 73c-36 -48.667 -104 -73 -204 -73c-6.66699 -0 -10 3.33301 -10 10l1 71c0 6 3.33301 9 10 9c53.333 0 92.166 9.83301 116.499 29.5s36.5 51.5 36.5 95.5v162l84 13
v-198c0 -16.667 -1.66699 -34 -5 -52c44.667 -33.333 92.334 -50 143.001 -50zM33 -151l73 72l73 -72l-73 -72zM191 -151l74 72l73 -72l-73 -72z" />
    <glyph glyph-name=".notdef" horiz-adv-x="292" 
 />
    <glyph glyph-name="space" unicode=" " horiz-adv-x="240" 
 />
    <glyph glyph-name="exclam" unicode="!" horiz-adv-x="254" 
d="M156 180h-59l-17 162v338h93v-338zM166 0h-79v104h79v-104z" />
    <glyph glyph-name="quotedbl" unicode="&#x22;" horiz-adv-x="350" 
d="M125 465h-48l-14 117v98h76v-98zM274 465h-48l-14 117v98h76v-98z" />
    <glyph glyph-name="numbersign" unicode="#" horiz-adv-x="709" 
d="M557 466h99v-72h-134l-68 -129h162v-72h-196l-103 -193h-79l103 193h-122l-102 -193h-80l103 193h-90v72h124l68 129h-145v72h180l112 214h79l-111 -214h121l112 214h79zM444 394h-123l-68 -129h123z" />
    <glyph glyph-name="dollar" unicode="$" horiz-adv-x="580" 
d="M521 545c-69.333 45.333 -144.664 68.0039 -225.997 68.0039c-97.333 0 -146 -32.333 -146 -97c0 -24 9.66699 -44.5 29 -61.5s43.333 -29.667 72 -38s60 -18.5 94 -30.5s65.333 -24.667 94 -38s52.667 -33.833 72 -61.5s29 -60.834 29 -99.501
c0 -60.667 -20.5 -107.334 -61.5 -140.001s-92.833 -51.334 -155.5 -56.001v-116h-63v115c-78.667 4 -149.334 24.333 -212.001 61v84c70.667 -45.333 148 -68 232 -68c46 0 84.833 9 116.5 27s47.5 46.667 47.5 86c0 26 -9.66699 48.333 -29 67s-43.333 32.667 -72 42
s-59.834 20.166 -93.501 32.499s-64.834 24.833 -93.501 37.5s-52.667 32.167 -72 58.5s-29 57.833 -29 94.5c0 56.667 19.333 99.5 58 128.5s87.667 45.167 147 48.5v116h63v-116c72.667 -4.66699 139 -24.667 199 -60v-84z" />
    <glyph glyph-name="percent" unicode="%" horiz-adv-x="802" 
d="M193 322c-50 0 -88.333 17.167 -115 51.5s-40 78.5 -40 132.5s13.333 98.167 40 132.5s65 51.5 115 51.5c49.333 0 87.333 -17.167 114 -51.5s40 -78.5 40 -132.5s-13.333 -98.167 -40 -132.5s-64.667 -51.5 -114 -51.5zM445 370h-54l166 310h73zM192 644
c-32.667 0 -57.5 -12.5 -74.5 -37.5s-25.5 -58.5 -25.5 -100.5s8.5 -75.5 25.5 -100.5s41.833 -37.5 74.5 -37.5c33.333 0 58.333 12.5 75 37.5s25 58.5 25 100.5s-8.33301 75.5 -25 100.5s-41.667 37.5 -75 37.5zM610 -8c-50 0 -88.333 17.167 -115 51.5
s-40 78.5 -40 132.5s13.333 98.167 40 132.5s65 51.5 115 51.5c49.333 0 87.333 -17.167 114 -51.5s40 -78.5 40 -132.5s-13.333 -98.167 -40 -132.5s-64.667 -51.5 -114 -51.5zM610 314c-32.667 0 -57.5 -12.5 -74.5 -37.5s-25.5 -58.5 -25.5 -100.5s8.5 -75.5 25.5 -100.5
s41.833 -37.5 74.5 -37.5c33.333 0 58.333 12.5 75 37.5s25 58.5 25 100.5s-8.33301 75.5 -25 100.5s-41.667 37.5 -75 37.5zM351 310h55l-166 -310h-73z" />
    <glyph glyph-name="ampersand" unicode="&#x26;" horiz-adv-x="675" 
d="M644 -3l-124.999 101.998c-53.333 -72.667 -131.333 -109 -234 -109c-69.333 0 -126 16.667 -170 50s-66 80 -66 140c0 49.333 13.5 89.5 40.5 120.5s59.167 54.5 96.5 70.5c-50 48.667 -75 98.334 -75 149.001c0 31.333 6.83301 58.5 20.5 81.5s31.5 40.667 53.5 53
s44.5 21.333 67.5 27s46.167 8.5 69.5 8.5c73.333 0 140.666 -20.667 201.999 -62v-76c-67.333 44 -131.333 66 -192 66c-18 0 -35.833 -2.16699 -53.5 -6.5s-34.667 -14.166 -51 -29.499s-24.5 -35 -24.5 -59c0 -20 6 -39.667 18 -59s24.5 -34.833 37.5 -46.5
s35.5 -30.5 67.5 -56.5l154 -131c18.667 42.667 28 93.667 28 153h87c0 -78 -12.333 -147 -37 -207l86 -73v-106zM279.001 291.998c-18 13.333 -32.334 25.001 -43.001 35.001c-30.667 -17.333 -53.667 -36.333 -69 -57s-23 -47.334 -23 -80.001
c0 -37.333 13.333 -67.333 40 -90s61.334 -34 104.001 -34c68 0 121.667 28 161 84z" />
    <glyph glyph-name="quotesingle" unicode="'" horiz-adv-x="202" 
d="M125 465h-48l-14 117v98h76v-98z" />
    <glyph glyph-name="parenleft" unicode="(" horiz-adv-x="305" 
d="M294 830c-39.333 -48.667 -77.166 -117.83 -113.499 -207.497s-54.5 -183.834 -54.5 -282.501s18.167 -192.834 54.5 -282.501s74.166 -158.834 113.499 -207.501h-64c-16 16 -33.5 38.333 -52.5 67s-39.333 64 -61 106s-39.667 91.167 -54 147.5
s-21.5 112.833 -21.5 169.5s7.16699 113.167 21.5 169.5s32.333 105.5 54 147.5s42 77.333 61 106s36.5 51 52.5 67h64z" />
    <glyph glyph-name="parenright" unicode=")" horiz-adv-x="305" 
d="M10 -150c39.333 50 77.166 119.667 113.499 209s54.5 183 54.5 281s-18.167 191.667 -54.5 281s-74.166 159 -113.499 209h64c16 -16 33.5 -38.333 52.5 -67s39.167 -64 60.5 -106s39.166 -91.167 53.499 -147.5s21.5 -112.833 21.5 -169.5
s-7.16699 -113.167 -21.5 -169.5s-32.166 -105.5 -53.499 -147.5s-41.5 -77.333 -60.5 -106s-36.5 -51 -52.5 -67h-64z" />
    <glyph glyph-name="asterisk" unicode="*" horiz-adv-x="391" 
d="M246 530l92 -52l-25 -45l-92 53v-106h-51v106l-92 -53l-25 45l91 52l-91 53l25 45l92 -54v106h51v-106l92 54l25 -45z" />
    <glyph glyph-name="plus" unicode="+" horiz-adv-x="571" 
d="M526 294h-204v-205h-72v205h-205v72h204v204h72v-204h205v-72z" />
    <glyph glyph-name="comma" unicode="," horiz-adv-x="181" 
d="M61 -130l-55 5c26 68 41 139.333 45 214h80c-6.66699 -74 -30 -147 -70 -219z" />
    <glyph glyph-name="hyphen" unicode="-" horiz-adv-x="468" 
d="M63 254v72h341v-72h-341z" />
    <glyph glyph-name="period" unicode="." horiz-adv-x="190" 
d="M139 0h-88v89h88v-89z" />
    <glyph glyph-name="slash" unicode="/" horiz-adv-x="484" 
d="M106 0h-80l352 680h79z" />
    <glyph glyph-name="zero" unicode="0" horiz-adv-x="703" 
d="M351 -10c-95.333 0 -168.833 32.667 -220.5 98s-77.5 149.333 -77.5 252s25.833 186.667 77.5 252s125.167 98 220.5 98s169 -32.833 221 -98.5s78 -149.5 78 -251.5c0 -102.667 -26 -186.667 -78 -252s-125.667 -98 -221 -98zM351 615c-66 0 -116.333 -24.667 -151 -74
s-52 -116.333 -52 -201s17.333 -151.667 52 -201s85 -74 151 -74s116.5 24.667 151.5 74s52.5 116.333 52.5 201s-17.5 151.667 -52.5 201s-85.5 74 -151.5 74z" />
    <glyph glyph-name="one" unicode="1" horiz-adv-x="470" 
d="M433 77l14 -77h-400v77h153v516l-131 -74l-29 72l170 94h83v-608h140z" />
    <glyph glyph-name="two" unicode="2" horiz-adv-x="593" 
d="M68 623c77.333 44.667 151 67.0039 221 67.0039c69.333 0 126.833 -16 172.5 -48s68.5 -79 68.5 -141c0 -29.333 -7 -56.833 -21 -82.5s-32 -47.834 -54 -66.501s-46.5 -36.5 -73.5 -53.5l-81 -49.5c-27 -16 -51.5 -32.167 -73.5 -48.5s-40 -34.833 -54 -55.5
s-21 -42.667 -21 -66h378l13 -79h-493v53c0 35.333 7 67.666 21 96.999s32.333 54.166 55 74.499s47.667 39.333 75 57s54.833 34.167 82.5 49.5s52.834 30.833 75.501 46.5s41 33.667 55 54s21 42.166 21 65.499c0 39.333 -14.667 68.833 -44 88.5s-66.333 29.5 -111 29.5
c-54.667 0 -119.334 -22.333 -194.001 -67z" />
    <glyph glyph-name="three" unicode="3" horiz-adv-x="573" 
d="M374 354c100.667 -24.667 151.001 -80.6641 151.001 -167.997c0 -62 -22.333 -110.167 -67 -144.5s-108 -51.5 -190 -51.5c-98.667 0 -179.667 19 -243 57l28 67c71.333 -33.333 138 -50 200 -50c119.333 0 179 43 179 129c0 41.333 -15.667 72.666 -47 93.999
s-75 32 -131 32h-70v69h70c53.333 1.33301 93.666 12.166 120.999 32.499s41 48.166 41 83.499c0 76 -49.667 114 -149 114c-54.667 0 -117.667 -16.667 -189 -50l-28 67c66.667 38 143.667 57 231 57c69.333 0 124 -15.667 164 -47s60 -76 60 -134
c0 -80 -43.667 -132.333 -131 -157z" />
    <glyph glyph-name="four" unicode="4" horiz-adv-x="627" 
d="M603 150h-113v-150h-94v150h-359v73l358 457h95v-457h113v-73zM396 223v341l-265 -341h265z" />
    <glyph glyph-name="five" unicode="5" horiz-adv-x="590" 
d="M99 680l-16.999 -355.999c67.333 18.667 131 28 191 28c54.667 0 97.5 -12.167 128.5 -36.5s46.5 -57.5 46.5 -99.5c0 -50.667 -16.167 -88.667 -48.5 -114s-77.833 -38 -136.5 -38c-56.667 0 -121.334 16.667 -194.001 50l-28 -67c64 -38 143 -57 237 -57
c82.667 0 147.5 20 194.5 60s70.5 96 70.5 168c0 61.333 -21 110.666 -63 147.999s-101 56 -177 56c-40 0 -85 -5 -135 -15l10 197h317l13 76h-409z" />
    <glyph glyph-name="six" unicode="6" horiz-adv-x="635" 
d="M509 578c-46.667 26 -95.668 39.002 -147.001 39.002c-69.333 0 -122.166 -24.333 -158.499 -73s-54.5 -120.667 -54.5 -216c27.333 35.333 61 60.666 101 75.999s78.333 23 115 23c66.667 0 119.5 -19.833 158.5 -59.5s58.5 -88.5 58.5 -146.5
c0 -64 -21.667 -118.5 -65 -163.5s-105 -67.5 -185 -67.5c-89.333 0 -158.166 30.167 -206.499 90.5s-72.5 141.5 -72.5 243.5c0 37.333 3.33301 73.166 10 107.499s17.667 67.333 33 99s34.166 59.167 56.499 82.5s50.5 42 84.5 56s72 21 114 21
c70.667 0 133 -14.667 187 -44zM153.999 262.002c2 -53.333 18.1689 -99.666 48.502 -138.999s73.166 -59 128.499 -59c45.333 0 82.666 14.5 111.999 43.5s44 65.167 44 108.5s-13.833 78.166 -41.5 104.499s-64.167 39.5 -109.5 39.5c-38 0 -73.833 -9.5 -107.5 -28.5
s-58.5 -42.167 -74.5 -69.5z" />
    <glyph glyph-name="seven" unicode="7" horiz-adv-x="530" 
d="M122 0l292 604h-381l14 76h463v-67l-297 -613h-91z" />
    <glyph glyph-name="eight" unicode="8" horiz-adv-x="637" 
d="M446 349c44.667 -15.333 79.666 -35.5 104.999 -60.5s38 -59.5 38 -103.5c0 -61.333 -25.667 -109.166 -77 -143.499s-116.666 -51.5 -195.999 -51.5c-78.667 0 -143 15.833 -193 47.5s-75 77.167 -75 136.5c0 39.333 12.667 74.5 38 105.5s58.333 55.833 99 74.5
c-64 34 -96 86 -96 156c0 57.333 21.833 101.666 65.5 132.999s99.5 47 167.5 47c64.667 0 118.5 -15.5 161.5 -46.5s64.5 -74.167 64.5 -129.5c0 -69.333 -34 -124.333 -102 -165zM318.999 620c-46.667 0 -82.332 -10.167 -106.999 -30.5s-37 -46.166 -37 -77.499
c0 -14 2 -26.833 6 -38.5s11.333 -22 22 -31s20 -16.5 28 -22.5s21.667 -12.333 41 -19s33.166 -11.167 41.499 -13.5l47.5 -13.5c8 -2 14 -3.66699 18 -5c55.333 39.333 83 87 83 143c0 31.333 -12.167 57.166 -36.5 77.499s-59.833 30.5 -106.5 30.5zM317.001 60
c50.667 0 92.6689 11.332 126.002 33.999s50 53.334 50 92.001c0 14.667 -3.5 28 -10.5 40s-15.667 21.667 -26 29s-24.333 14.5 -42 21.5s-33.834 12.667 -48.501 17l-56 16c-22.667 6.33301 -41.334 11.833 -56.001 16.5c-73.333 -37.333 -110 -83.333 -110 -138
c0 -39.333 15.333 -70.5 46 -93.5s73 -34.5 127 -34.5z" />
    <glyph glyph-name="nine" unicode="9" horiz-adv-x="635" 
d="M126 103c44.667 -26 93.665 -39 146.998 -39c69.333 0 122.333 24.167 159 72.5s55 120.166 55 215.499c-27.333 -34.667 -61.166 -59.834 -101.499 -75.501s-78.5 -23.5 -114.5 -23.5c-67.333 0 -120.5 19.833 -159.5 59.5s-58.5 88.5 -58.5 146.5
c0 64.667 21.667 119.334 65 164.001s105.333 67 186 67c88.667 0 157.167 -30.167 205.5 -90.5s72.5 -141.5 72.5 -243.5c0 -37.333 -3.33301 -73.166 -10 -107.499s-17.667 -67.333 -33 -99s-34.166 -59.167 -56.499 -82.5s-50.5 -42 -84.5 -56s-71.667 -21 -113 -21
c-71.333 0 -134 15 -188 45zM480.998 418c-2 53.333 -18.167 99.833 -48.5 139.5s-73.5 59.5 -129.5 59.5c-44.667 0 -81.667 -14.5 -111 -43.5s-44 -65.167 -44 -108.5c0 -44 13.833 -79.167 41.5 -105.5s64.167 -39.5 109.5 -39.5c38 0 73.667 9.33301 107 28
s58.333 42 75 70z" />
    <glyph glyph-name="colon" unicode=":" horiz-adv-x="208" 
d="M142 313h-76v105h76v-105zM142 73h-76v105h76v-105z" />
    <glyph glyph-name="semicolon" unicode=";" horiz-adv-x="244" 
d="M165 313h-76v105h76v-105zM165 104v-118.999c0 -48.667 -7.5 -81.334 -22.5 -98.001s-45.167 -25 -90.5 -25v59c14 0 23.667 3.5 29 10.5s8 24.833 8 53.5v119h76z" />
    <glyph glyph-name="less" unicode="&#x3c;" horiz-adv-x="567" 
d="M503 173l-441 107v100l441 106v-72l-355 -85l355 -84v-72z" />
    <glyph glyph-name="equal" unicode="=" horiz-adv-x="579" 
d="M69 394v72h441v-72h-441zM69 193v72h441v-72h-441z" />
    <glyph glyph-name="greater" unicode="&#x3e;" horiz-adv-x="567" 
d="M62 173v72l356 84l-356 85v72l441 -106v-100z" />
    <glyph glyph-name="question" unicode="?" horiz-adv-x="502" 
d="M164 353c136 0 204.334 45.333 205.001 136c0 42 -13.167 73.167 -39.5 93.5s-60.833 30.5 -103.5 30.5c-66.667 0 -129 -20.667 -187 -62v84c57.333 36.667 124.666 55 201.999 55c66 0 119.667 -16.167 161 -48.5s62 -80.833 62 -145.5
c0 -122.667 -74.667 -189.667 -224 -201l-9 -115h-66zM241.001 0h-80v104h80v-104z" />
    <glyph glyph-name="at" unicode="@" horiz-adv-x="808" 
d="M749 417c0 88 -25.5 155.5 -76.5 202.5s-123.167 70.5 -216.5 70.5c-122.667 0 -221.667 -39.667 -297 -119s-113 -185 -113 -317c0 -137.333 38.167 -247.333 114.5 -330s183.5 -124 321.5 -124v69c-110.667 0 -197 33.333 -259 100s-93 161.667 -93 285
c0 118.667 30.667 210 92 274s139.333 96 234 96c64 0 114.833 -16.5 152.5 -49.5s56.5 -84.167 56.5 -153.5v-22c-15.333 31.333 -38 55.333 -68 72s-63.667 25 -101 25c-66 0 -117.667 -22.333 -155 -67s-56 -106 -56 -184s18.667 -139.5 56 -184.5s89 -67.5 155 -67.5
c37.333 0 71 8.5 101 25.5s52.667 41.167 68 72.5v-88h84v414zM666 245c0 -60.667 -14.167 -106.83 -42.5 -138.497s-63.5 -47.5 -105.5 -47.5c-48 0 -84 17.167 -108 51.5s-36 79.166 -36 134.499s12 100.166 36 134.499s60 51.5 108 51.5c42 0 77.167 -15.833 105.5 -47.5
s42.5 -77.834 42.5 -138.501z" />
    <glyph glyph-name="A" unicode="A" horiz-adv-x="713" 
d="M600 -7l-68 166h-351l-65 -159h-96l284 679l106 13l283 -685zM213 237h287l-144 351z" />
    <glyph glyph-name="B" unicode="B" horiz-adv-x="679" 
d="M362 680c164 0 246.001 -59.998 246.001 -179.998c0 -35.333 -8.83301 -66.333 -26.5 -93s-43.167 -45.334 -76.5 -56.001c41.333 -8 72.166 -26.5 92.499 -55.5s30.5 -64.5 30.5 -106.5c0 -64.667 -20 -112.334 -60 -143.001s-100 -46 -180 -46h-300v680h274z
M355.001 385.002c52 0 91.333 7.33203 118 21.999s40 43.334 40 86.001c0 42 -13.5 70.5 -40.5 85.5s-66.167 22.5 -117.5 22.5h-174v-216h174zM181.001 310.001v-231h201c49.333 0 86.833 8.33301 112.5 25s38.5 46.667 38.5 90s-12.833 73.5 -38.5 90.5
s-63.167 25.5 -112.5 25.5h-201z" />
    <glyph glyph-name="C" unicode="C" horiz-adv-x="678" 
d="M630 51c-67.333 -40.667 -143.667 -61 -229 -61c-103.333 0 -187.666 31.667 -252.999 95s-98 148.333 -98 255s32.833 191.667 98.5 255s151.167 95 256.5 95c86 0 162.333 -20.333 229 -61l-17 -82c-62.667 42.667 -133.334 64 -212.001 64
c-78 0 -140.833 -24.333 -188.5 -73s-71.5 -114.667 -71.5 -198s23.667 -149.333 71 -198s109.333 -73 186 -73c88 0 164 22.333 228 67v-85z" />
    <glyph glyph-name="D" unicode="D" horiz-adv-x="747" 
d="M88 0v680h245c110 0 197 -31.667 261 -95s96 -145 96 -245c0 -100.667 -32 -182.5 -96 -245.5s-151 -94.5 -261 -94.5h-245zM332 79c81.333 0 145.5 23.332 192.5 69.999s70.5 110.334 70.5 191.001c0 80 -23.667 143.5 -71 190.5s-111.333 70.5 -192 70.5h-151v-522h151
z" />
    <glyph glyph-name="E" unicode="E" horiz-adv-x="623" 
d="M88 0v680h472v-79h-379v-214h346l13 -78h-359v-230h389v-79h-482z" />
    <glyph glyph-name="F" unicode="F" horiz-adv-x="600" 
d="M88 0v680h469v-79h-376v-240h342l14 -79h-356v-282h-93z" />
    <glyph glyph-name="G" unicode="G" horiz-adv-x="693" 
d="M540 331l90.001 13v-305c-65.333 -32.667 -144 -49 -236 -49c-102.667 0 -185.667 31.5 -249 94.5s-95 148.167 -95 255.5s31.667 192.5 95 255.5s146.333 94.5 249 94.5c86 0 162.333 -20.333 229 -61l-13 -82c-62.667 42.667 -133.334 64 -212.001 64
c-76 0 -137.167 -24.333 -183.5 -73s-69.5 -114.667 -69.5 -198s23.167 -149.333 69.5 -198s107.5 -73 183.5 -73c56 0 103.333 8.33301 142 25v237z" />
    <glyph glyph-name="H" unicode="H" horiz-adv-x="760" 
d="M578 674l93 13v-687h-93v309h-397v-309h-93v674l93 13v-300h397v287z" />
    <glyph glyph-name="I" unicode="I" horiz-adv-x="270" 
d="M181 0h-93v674l93 13v-687z" />
    <glyph glyph-name="J" unicode="J" horiz-adv-x="497" 
d="M417 680v-473c0 -69.333 -21 -122.833 -63 -160.5s-101.667 -56.5 -179 -56.5c-54 0 -109 7.33301 -165 22l13 77c40 -13.333 88 -20 144 -20c46.667 0 84.5 11.167 113.5 33.5s43.5 57.5 43.5 105.5v393h-207v79h300z" />
    <glyph glyph-name="K" unicode="K" horiz-adv-x="659" 
d="M550 -10l-218 317h-151v-307h-93v680h93v-294h155l198 294h107l-229 -332l239 -345z" />
    <glyph glyph-name="L" unicode="L" horiz-adv-x="592" 
d="M88 0v674l93 13v-608h374l13 -79h-480z" />
    <glyph glyph-name="M" unicode="M" horiz-adv-x="887" 
d="M467 163h-57l-237 357v-520h-85v680h92l263 -400l264 400h91v-673l-93 -14v527z" />
    <glyph glyph-name="N" unicode="N" horiz-adv-x="763" 
d="M173 540v-540h-85v680h92l409 -537v531l86 13v-687h-92z" />
    <glyph glyph-name="O" unicode="O" horiz-adv-x="820" 
d="M410 -10c-110 0 -197.5 33 -262.5 99s-97.5 149.667 -97.5 251c0 100.667 32.5 184.167 97.5 250.5s152.5 99.5 262.5 99.5s197.5 -33.167 262.5 -99.5s97.5 -149.833 97.5 -250.5c0 -101.333 -32.5 -185 -97.5 -251s-152.5 -99 -262.5 -99zM410 611
c-80.667 0 -145 -25 -193 -75s-72 -115.333 -72 -196c0 -81.333 24 -146.833 72 -196.5s112.333 -74.5 193 -74.5c81.333 0 145.833 24.833 193.5 74.5s71.5 115.167 71.5 196.5c0 80.667 -23.833 146 -71.5 196s-112.167 75 -193.5 75z" />
    <glyph glyph-name="P" unicode="P" horiz-adv-x="653" 
d="M372 680c80 0 142.5 -20.332 187.5 -60.999s67.5 -94.334 67.5 -161.001c0 -67.333 -22.5 -121.333 -67.5 -162s-107.5 -61 -187.5 -61h-191v-235h-93v680h284zM369 314.001c48 0 87 12.332 117 36.999s45 60.334 45 107.001s-15 82.167 -45 106.5s-69 36.5 -117 36.5
h-188v-287h188z" />
    <glyph glyph-name="Q" unicode="Q" horiz-adv-x="820" 
d="M770 340c0 -118.667 -42.332 -210.667 -126.999 -276l71 -88l-67 -49l-76 94c-48.667 -20.667 -102.334 -31 -161.001 -31c-110 0 -197.5 33 -262.5 99s-97.5 149.667 -97.5 251c0 100.667 32.5 184.167 97.5 250.5s152.5 99.5 262.5 99.5s197.5 -33.167 262.5 -99.5
s97.5 -149.833 97.5 -250.5zM410.001 67c40.667 0 77.333 6.66602 110 19.999l-94 129l54 39l109 -126c57.333 50 86 120.333 86 211c0 81.333 -24 147.333 -72 198s-112.333 76 -193 76s-145 -25.333 -193 -76s-72 -116.667 -72 -198s24 -147.166 72 -197.499
s112.333 -75.5 193 -75.5z" />
    <glyph glyph-name="R" unicode="R" horiz-adv-x="675" 
d="M557 -10l-209 272h-167v-262h-93v680h291c78 0 137.333 -17.667 178 -53s61 -87 61 -155c0 -54.667 -15 -99.167 -45 -133.5s-72.333 -55.833 -127 -64.5l209 -271zM181 341h186c104 0 156 43.667 156 131c0 86 -52 129 -156 129h-186v-260z" />
    <glyph glyph-name="S" unicode="S" horiz-adv-x="587" 
d="M47 137c68.667 -45.333 146 -68.0029 232 -68.0029c46.667 0 86 8.66699 118 26s48 45.666 48 84.999c0 22.667 -7.16699 42.334 -21.5 59.001s-32.833 30 -55.5 40s-47.834 19.333 -75.501 28s-55.334 18.334 -83.001 29.001s-52.834 22.834 -75.501 36.501
s-41.167 32.334 -55.5 56.001s-21.5 51.5 -21.5 83.5c0 60 22 104.667 66 134s99 44 165 44c82.667 0 161.334 -20.333 236.001 -61l-14 -83c-68.667 43.333 -139.334 65 -212.001 65c-97.333 0 -146 -31.667 -146 -95c0 -20.667 7.16699 -38.667 21.5 -54
s32.833 -27.5 55.5 -36.5s47.834 -17.667 75.501 -26s55.334 -17.833 83.001 -28.5s52.834 -23.167 75.501 -37.5s41.167 -34 55.5 -59s21.5 -54.167 21.5 -87.5c0 -66.667 -24.167 -116.167 -72.5 -148.5s-107.833 -48.5 -178.5 -48.5c-92 0 -172.667 20.333 -242 61v86z
" />
    <glyph glyph-name="T" unicode="T" horiz-adv-x="600" 
d="M253 0v601h-236v79h566l-13 -79h-223v-601h-94z" />
    <glyph glyph-name="U" unicode="U" horiz-adv-x="743" 
d="M80 674l92.999 13v-423c0 -60 16.667 -107.5 50 -142.5s83 -52.5 149 -52.5s115.5 17.5 148.5 52.5s49.5 82.5 49.5 142.5v410l93 13v-438c0 -74 -24.667 -135.667 -74 -185s-121.666 -74 -216.999 -74c-96.667 0 -169.5 25.167 -218.5 75.5s-73.5 111.5 -73.5 183.5v425
z" />
    <glyph glyph-name="V" unicode="V" horiz-adv-x="717" 
d="M23 674l93 13l243 -595l239 588h95l-284 -685h-106z" />
    <glyph glyph-name="W" unicode="W" horiz-adv-x="1013" 
d="M985 680l-211 -685h-106l-165 537l-160 -537h-103l-212 679l90 13l177 -580l164 573h91l171 -573l172 573h92z" />
    <glyph glyph-name="X" unicode="X" horiz-adv-x="645" 
d="M538 -7l-220 290l-207 -283h-104l256 351l-234 323l100 13l196 -268l186 261h103l-234 -328l259 -345z" />
    <glyph glyph-name="Y" unicode="Y" horiz-adv-x="657" 
d="M373 232v-232h-93v234l-257 440l93 13l213 -365l205 358h99z" />
    <glyph glyph-name="Z" unicode="Z" horiz-adv-x="587" 
d="M538 79l14 -79h-517v67l388 534h-371v79h489v-67l-388 -534h385z" />
    <glyph glyph-name="bracketleft" unicode="[" horiz-adv-x="342" 
d="M79 -150v980h231v-69h-152v-842h159v-69h-238z" />
    <glyph glyph-name="backslash" unicode="\" horiz-adv-x="484" 
d="M378 0l-352 680h80l351 -680h-79z" />
    <glyph glyph-name="bracketright" unicode="]" horiz-adv-x="342" 
d="M263 -150h-238v69h158v842h-152v69h232v-980z" />
    <glyph glyph-name="asciicircum" unicode="^" horiz-adv-x="407" 
d="M204 413l142 -119l-28 -39l-114 82l-115 -82l-27 39z" />
    <glyph glyph-name="underscore" unicode="_" horiz-adv-x="573" 
d="M66 -114v72h441v-72h-441z" />
    <glyph glyph-name="a" unicode="a" horiz-adv-x="584" 
d="M545 59c15.333 0 28.0029 2.33203 38.0029 6.99902v-66c-18.667 -6.66699 -40.334 -10 -65.001 -10c-62.667 0 -98 28.333 -106 85c-47.333 -56.667 -110.333 -85 -189 -85c-52.667 0 -94.667 13.5 -126 40.5s-47 61.833 -47 104.5c0 55.333 21.667 96.666 65 123.999
s100 41 170 41c38.667 0 80.334 -3 125.001 -9v44c0 30.667 -11.333 55.834 -34 75.501s-57.334 29.5 -104.001 29.5c-62.667 0 -123.334 -14 -182.001 -42l-17 70c57.333 28 127 42 209 42c71.333 0 125.5 -16.167 162.5 -48.5s55.5 -76.166 55.5 -131.499v-217
c0 -18 3.16699 -31.5 9.5 -40.5s18.166 -13.5 35.499 -13.5zM251.003 59.999c60 0 113 26 159 78v86c-35.333 6 -75 9 -119 9c-99.333 0 -149 -29 -149 -87c0 -26.667 9.83301 -47.667 29.5 -63s46.167 -23 79.5 -23z" />
    <glyph glyph-name="b" unicode="b" horiz-adv-x="627" 
d="M342 510c71.333 0 128.666 -23.667 171.999 -71s65 -110.333 65 -189s-21.667 -141.667 -65 -189s-100.666 -71 -171.999 -71c-72.667 0 -131.667 29 -177 87l-7 -77h-83v717l90 13v-307c44 58 103 87 177 87zM319 60c52.667 0 93.834 17.5 123.501 52.5
s44.5 80.833 44.5 137.5s-14.833 102.5 -44.5 137.5s-70.834 52.5 -123.501 52.5c-60 0 -111.333 -25 -154 -75v-229c42.667 -50.667 94 -76 154 -76z" />
    <glyph glyph-name="c" unicode="c" horiz-adv-x="535" 
d="M323 60c50 0 102.333 13.667 157 41l17 -67c-57.333 -29.333 -117.666 -44 -180.999 -44c-82 0 -147.167 23.5 -195.5 70.5s-72.5 110.167 -72.5 189.5s24.167 142.5 72.5 189.5s113.5 70.5 195.5 70.5c63.333 0 123.666 -14.667 180.999 -44l-17 -67
c-54.667 27.333 -107 41 -157 41c-54.667 0 -98.834 -17 -132.501 -51s-50.5 -80.333 -50.5 -139s16.833 -105 50.5 -139s77.834 -51 132.501 -51z" />
    <glyph glyph-name="d" unicode="d" horiz-adv-x="627" 
d="M285 510c74 0 133 -29 177 -87v294l90 13v-730h-83l-7 77c-45.333 -58 -104.333 -87 -177 -87c-71.333 0 -128.666 23.667 -171.999 71s-65 110.333 -65 189s21.667 141.667 65 189s100.666 71 171.999 71zM308 60c60.667 0 111.667 25.333 153 76v229
c-42 50 -93 75 -153 75c-53.333 0 -94.666 -17.5 -123.999 -52.5s-44 -80.833 -44 -137.5s14.667 -102.5 44 -137.5s70.666 -52.5 123.999 -52.5z" />
    <glyph glyph-name="e" unicode="e" horiz-adv-x="587" 
d="M538 265c0 -20 -0.333008 -34 -1 -42h-395c5.33301 -52 23.833 -92.667 55.5 -122s75.167 -44 130.5 -44c60 0 117 13.667 171 41l17 -64c-56.667 -29.333 -121.334 -44 -194.001 -44c-88.667 0 -156.5 23.167 -203.5 69.5s-70.5 109.833 -70.5 190.5
c0 79.333 23.333 142.5 70 189.5s109.334 70.5 188.001 70.5c43.333 0 80.5 -6.66699 111.5 -20s55 -32 72 -56s29.333 -49.833 37 -77.5s11.5 -58.167 11.5 -91.5zM143 289h305c-0.666992 47.333 -11.5 85 -32.5 113s-58.5 42 -112.5 42
c-43.333 0 -79.333 -13.5 -108 -40.5s-46 -65.167 -52 -114.5z" />
    <glyph glyph-name="f" unicode="f" horiz-adv-x="387" 
d="M31 500h81.999v66c0 52.667 15.167 93.167 45.5 121.5s73.5 42.5 129.5 42.5c49.333 0 90 -6.66699 122 -20l-18 -66c-25.333 10.667 -55.666 16 -90.999 16c-65.333 0 -98 -32 -98 -96v-64h182v-70h-182v-430h-90v430h-82v70z" />
    <glyph glyph-name="g" unicode="g" horiz-adv-x="627" 
d="M552 500v-489c0 -78.667 -23.5 -138.5 -70.5 -179.5s-115.167 -61.5 -204.5 -61.5c-83.333 0 -153.333 14.667 -210 44l17 67c54 -27.333 117.333 -41 190 -41c125.333 0 188 56 188 168v89c-45.333 -58 -104.333 -87 -177 -87c-70.667 0 -127.834 22.667 -171.501 68
s-65.5 106 -65.5 182c0 76.667 21.833 137.5 65.5 182.5s100.834 67.5 171.501 67.5c74 0 133 -29 177 -87l7 77h83zM461 156v209c-42 50 -93 75 -153 75c-52 0 -93 -16.5 -123 -49.5s-45 -76.5 -45 -130.5s15 -97.5 45 -130.5s71 -49.5 123 -49.5
c60.667 0 111.667 25.333 153 76z" />
    <glyph glyph-name="h" unicode="h" horiz-adv-x="589" 
d="M338 510c58 0 102.666 -16 133.999 -48s47 -77 47 -135v-327h-90v325c0 36.667 -10.667 65 -32 85s-51.666 30 -90.999 30c-54 0 -101 -24 -141 -72v-368h-90v717l90 13v-306c42 57.333 99.667 86 173 86z" />
    <glyph glyph-name="i" unicode="i" horiz-adv-x="240" 
d="M121 591l-69 67l69 66l67 -66zM165 0h-90v500h90v-500z" />
    <glyph glyph-name="j" unicode="j" horiz-adv-x="240" 
d="M121 591l-69 67l69 66l67 -66zM165 -79c0 -48 -12 -85.167 -36 -111.5s-59 -39.5 -105 -39.5c-36.667 0 -65.667 3.33301 -87 10l13 68c17.333 -5.33301 36.333 -8 57 -8c45.333 0 68 26.667 68 80v580h90v-579z" />
    <glyph glyph-name="k" unicode="k" horiz-adv-x="552" 
d="M446 0l-187 222h-94v-222h-90v717l90 13v-438h89l168 208h98l-188 -238l216 -262h-102z" />
    <glyph glyph-name="l" unicode="l" horiz-adv-x="240" 
d="M75 0v717l90 13v-730h-90z" />
    <glyph glyph-name="m" unicode="m" horiz-adv-x="935" 
d="M684 510c58 0 102.664 -15.999 133.997 -47.999s47 -77 47 -135v-327h-90v325c0 36.667 -10.667 65 -32 85s-51.666 30 -90.999 30c-54 0 -100.667 -24 -140 -72c2 -12.667 3 -26.334 3 -41.001v-327h-90v325c0 36.667 -10.667 65 -32 85s-51.666 30 -90.999 30
c-52 0 -97.667 -24 -137 -72v-368h-90v500h83l7 -76c42 57.333 98.333 86 169 86c86.667 0 142.334 -33.333 167.001 -100c44 66.667 105 100 183 100z" />
    <glyph glyph-name="n" unicode="n" horiz-adv-x="589" 
d="M338 510c58 0 102.666 -16 133.999 -48s47 -77 47 -135v-327h-90v325c0 36.667 -10.667 65 -32 85s-51.666 30 -90.999 30c-54 0 -101 -24 -141 -72v-368h-90v500h83l7 -76c42 57.333 99.667 86 173 86z" />
    <glyph glyph-name="o" unicode="o" horiz-adv-x="633" 
d="M317 510c82 0 147.167 -24.833 195.5 -74.5s72.5 -111.5 72.5 -185.5s-24.167 -135.833 -72.5 -185.5s-113.5 -74.5 -195.5 -74.5c-83.333 0 -149 24.833 -197 74.5s-72 111.5 -72 185.5s24 135.833 72 185.5s113.667 74.5 197 74.5zM316 60c56 0 99.5 18.5 130.5 55.5
s46.5 81.833 46.5 134.5c0 52 -15.5 96.667 -46.5 134s-74.5 56 -130.5 56s-99.333 -18.5 -130 -55.5s-46 -81.833 -46 -134.5c0 -53.333 15.167 -98.333 45.5 -135s73.833 -55 130.5 -55z" />
    <glyph glyph-name="p" unicode="p" horiz-adv-x="627" 
d="M342 -10c-72.667 0 -131.667 29 -177 87v-294l-90 -13v730h83l7 -77c44 58 103 87 177 87c71.333 0 128.666 -23.667 171.999 -71s65 -110.333 65 -189s-21.667 -141.667 -65 -189s-100.666 -71 -171.999 -71zM319 440c-60 0 -111.333 -25 -154 -75v-229
c42.667 -50.667 94 -76 154 -76c52.667 0 93.834 17.5 123.501 52.5s44.5 80.833 44.5 137.5s-14.833 102.5 -44.5 137.5s-70.834 52.5 -123.501 52.5z" />
    <glyph glyph-name="q" unicode="q" horiz-adv-x="627" 
d="M285 -10c-71.333 0 -128.666 23.667 -171.999 71s-65 110.333 -65 189s21.667 141.667 65 189s100.666 71 171.999 71c74 0 133 -29 177 -87l7 77h83v-717l-90 -13v307c-45.333 -58 -104.333 -87 -177 -87zM308 440c-53.333 0 -94.666 -17.5 -123.999 -52.5
s-44 -80.833 -44 -137.5s14.667 -102.5 44 -137.5s70.666 -52.5 123.999 -52.5c60.667 0 111.667 25.333 153 76v229c-42 50 -93 75 -153 75z" />
    <glyph glyph-name="r" unicode="r" horiz-adv-x="389" 
d="M367 420c-44 0 -83.834 -9.16699 -119.501 -27.5s-63.167 -41.833 -82.5 -70.5v-322h-90v500h83l6 -114c18.667 37.333 45.334 67.333 80.001 90s72.667 34 114 34z" />
    <glyph glyph-name="s" unicode="s" horiz-adv-x="495" 
d="M143 370c0 -22 10.666 -39.1689 31.999 -51.502s47.166 -21.666 77.499 -27.999s60.5 -13.666 90.5 -21.999s55.667 -22.666 77 -42.999s32 -47.5 32 -81.5c0 -50.667 -18 -89 -54 -115s-87 -39 -153 -39c-80.667 0 -148 14.333 -202 43l18 68
c56.667 -28.667 117.334 -43 182.001 -43c78 0 117 27.667 117 83c0 22 -10.5 39.333 -31.5 52s-46.667 22.167 -77 28.5s-60.666 13.666 -90.999 21.999s-56 23 -77 44s-31.5 48.5 -31.5 82.5c0 46.667 17.667 81.667 53 105s83 35 143 35c80.667 0 148 -14 202 -42
l-17 -68c-55.333 28 -116.333 42 -183 42c-71.333 0 -107 -24 -107 -72z" />
    <glyph glyph-name="t" unicode="t" horiz-adv-x="390" 
d="M203 680l0.000976562 -179.999h177v-70h-177v-291c0 -52.667 31 -79 93 -79c26.667 0 53.667 5.33301 81 16l13 -66c-36 -13.333 -75.333 -20 -118 -20c-54.667 0 -94.834 13.167 -120.501 39.5s-38.5 62.166 -38.5 107.499v293h-82v70h82v163z" />
    <glyph glyph-name="u" unicode="u" horiz-adv-x="589" 
d="M423 500h90.001v-500h-82l-7 76c-43.333 -57.333 -101 -86 -173 -86c-58 0 -102.667 16 -134 48s-47 77 -47 135v324l90 13v-335c0 -36.667 10.667 -65 32 -85s51.666 -30 90.999 -30c53.333 0 100 24 140 72v368z" />
    <glyph glyph-name="v" unicode="v" horiz-adv-x="584" 
d="M294 111l164 389h99l-227 -509h-77l-227 509h99z" />
    <glyph glyph-name="w" unicode="w" horiz-adv-x="847" 
d="M379 500h83l138 -396l130 396h90l-174 -509h-88l-138 385l-132 -385h-87l-175 509h91l130 -396z" />
    <glyph glyph-name="x" unicode="x" horiz-adv-x="525" 
d="M407 0l-147 195l-147 -195h-100l197 261l-183 239h101l136 -179l133 179h97l-179 -238l197 -262h-105z" />
    <glyph glyph-name="y" unicode="y" horiz-adv-x="590" 
d="M468 500l94.999 -0.000976562l-249 -546c-28 -62.667 -58.167 -109 -90.5 -139s-74.166 -45 -125.499 -45c-31.333 0 -57.333 4 -78 12l13 67c22.667 -6 43.667 -9 63 -9c28 0 52 8.33301 72 25s40.333 46.334 61 89.001l23 49l-226 497h95l177 -392z" />
    <glyph glyph-name="z" unicode="z" horiz-adv-x="487" 
d="M434 500v-60l-288 -370h307v-70h-420v60l288 370h-276v70h389z" />
    <glyph glyph-name="braceleft" unicode="{" horiz-adv-x="343" 
d="M313 -143c-30.667 0 -57.667 2.33594 -81 7.00293s-45.666 13 -66.999 25s-37.833 30 -49.5 54s-17.5 53.667 -17.5 89c0 21.333 3.33301 54 10 98s10 76.333 10 97c0 29.333 -7 50.166 -21 62.499s-35.667 18.5 -65 18.5v64c29.333 0 51 6.16699 65 18.5
s21 33.166 21 62.499c0 20.667 -3.33301 53.167 -10 97.5s-10 77.166 -10 98.499c0 34.667 5.83301 64 17.5 88s28.167 42 49.5 54s43.666 20.333 66.999 25s50.333 7 81 7v-65c-47.333 0 -79.833 -9 -97.5 -27s-26.5 -46.333 -26.5 -85c0 -18.667 3.16699 -49.5 9.5 -92.5
s9.5 -73.833 9.5 -92.5c0 -68.667 -33.667 -109 -101 -121c67.333 -12 101 -52.333 101 -121c0 -18 -3.16699 -48.5 -9.5 -91.5s-9.5 -74.167 -9.5 -93.5c0 -38.667 8.83301 -67 26.5 -85s50.167 -27 97.5 -27v-65z" />
    <glyph glyph-name="bar" unicode="|" horiz-adv-x="223" 
d="M79 -125v930h64v-930h-64z" />
    <glyph glyph-name="braceright" unicode="}" horiz-adv-x="343" 
d="M311 308c-29.333 0 -51.166 -6.16797 -65.499 -18.501s-21.5 -33.166 -21.5 -62.499c0 -20.667 3.33301 -53 10 -97s10 -76.667 10 -98c0 -28 -4 -52.667 -12 -74s-18.333 -38.333 -31 -51s-28.667 -22.834 -48 -30.501s-38.833 -12.834 -58.5 -15.501s-41.5 -4 -65.5 -4
v65c48 0 80.833 9 98.5 27s26.5 46.333 26.5 85c0 19.333 -3.16699 50.5 -9.5 93.5s-9.5 73.5 -9.5 91.5c0 68 33.333 108.333 100 121c-66.667 12.667 -100 53 -100 121c0 18.667 3.16699 49.5 9.5 92.5s9.5 73.833 9.5 92.5c0 38.667 -8.83301 67 -26.5 85
s-50.5 27 -98.5 27v65c30.667 0 57.834 -2.33301 81.501 -7s46.167 -13 67.5 -25s37.666 -30 48.999 -54s17 -53.333 17 -88c0 -21.333 -3.33301 -54.166 -10 -98.499s-10 -76.833 -10 -97.5c0 -29.333 7.16699 -50.166 21.5 -62.499s36.166 -18.5 65.499 -18.5v-64z" />
    <glyph glyph-name="asciitilde" unicode="~" horiz-adv-x="490" 
d="M426 383c0 -65.333 -25.333 -98 -76 -98c-15.333 0 -49.5 6 -102.5 18s-84.5 18 -94.5 18c-20.667 0 -31 -12 -31 -36h-55c0 65.333 25.333 98 76 98c14 0 47.667 -5.83301 101 -17.5s85.333 -17.5 96 -17.5c20.667 0 31 11.667 31 35h55z" />
    <glyph glyph-name="exclamdown" unicode="&#xa1;" horiz-adv-x="238" 
d="M158 500v-104h-79v104h79zM148 320l17 -162v-338h-93v338l17 162h59z" />
    <glyph glyph-name="cent" unicode="&#xa2;" horiz-adv-x="536" 
d="M479 364c-48 50.667 -104.999 75.9961 -170.999 75.9961c-50.667 0 -91.5 -16.833 -122.5 -50.5s-46.5 -80.167 -46.5 -139.5s15.5 -105.833 46.5 -139.5s71.833 -50.5 122.5 -50.5c66 0 123 25.333 171 76v-81c-40.667 -39.333 -93 -60.666 -157 -63.999v-116h-63v118
c-66.667 7.33301 -119.334 33.833 -158.001 79.5s-58 104.834 -58 177.501s19.333 131.834 58 177.501s91.334 72.167 158.001 79.5v123h63v-121c65.333 -3.33301 117.666 -24.666 156.999 -63.999v-81z" />
    <glyph glyph-name="sterling" unicode="&#xa3;" horiz-adv-x="654" 
d="M594 80v-80h-545v80h82v211h-82v72h82v132c0 64.667 22.167 113.334 66.5 146.001s101.166 49 170.499 49c78.667 0 152.667 -20.333 222 -61v-84c-72.667 45.333 -141.667 68 -207 68c-45.333 0 -83.166 -10.333 -113.499 -31s-45.5 -52.334 -45.5 -95.001v-124h266v-72
h-266v-211h370z" />
    <glyph glyph-name="currency" unicode="&#xa4;" horiz-adv-x="744" 
d="M679 544c-66.667 46 -141.665 68.998 -224.998 68.998c-58.667 0 -108.334 -15.5 -149.001 -46.5s-68.334 -74.167 -83.001 -129.5h228v-54h-241c-0.666992 -9.33301 -1 -23.666 -1 -42.999c0 -11.333 0.666992 -27 2 -47h240v-55h-226
c15.333 -53.333 43 -95.166 83 -125.499s89 -45.5 147 -45.5c83.333 0 158.333 23 225 69v-85c-68 -40.667 -144.333 -61 -229 -61s-156.167 21.833 -214.5 65.5s-96.5 104.5 -114.5 182.5h-79v55h69c-2 15.333 -3 31 -3 47c0 14.667 1 29 3 43h-69v54h77
c18 79.333 56.333 141.333 115 186s130.667 67 216 67c86 0 162.333 -20.333 229 -61v-85z" />
    <glyph glyph-name="yen" unicode="&#xa5;" horiz-adv-x="672" 
d="M409 280h149v-72h-175v-208h-94v208h-176v72h150l-234 400h100l209 -358l204 358h101z" />
    <glyph glyph-name="brokenbar" unicode="&#xa6;" horiz-adv-x="226" 
d="M81 425v380h64v-380h-64zM81 -125v380h64v-380h-64z" />
    <glyph glyph-name="section" unicode="&#xa7;" horiz-adv-x="598" 
d="M524 630c-69.333 40.667 -146.332 60.999 -230.999 60.999c-42 0 -80 -5.5 -114 -16.5s-62.833 -30.667 -86.5 -59s-35.5 -63.833 -35.5 -106.5c0 -41.333 12 -74.666 36 -99.999s55.5 -44.333 94.5 -57s79.167 -23.834 120.5 -33.501s83.333 -24 126 -43
s76 -43.167 100 -72.5c6 16 9 31.333 9 46c0 30.667 -9.66699 56.5 -29 77.5s-43.5 36.333 -72.5 46s-60.333 19 -94 28l-94 24.5c-29 7.33301 -53.167 18.833 -72.5 34.5s-29 34.834 -29 57.501c0 64 50.667 96 152 96c79.333 0 152.666 -22.667 219.999 -68v85z
M70.001 -139.001c71.333 -40.667 150.331 -60.998 236.998 -60.998c42 0 80 5.5 114 16.5s62.833 30.667 86.5 59s35.5 63.833 35.5 106.5c0 41.333 -12.667 75.166 -38 101.499s-57.833 45.833 -97.5 58.5s-80.667 24 -123 34s-84.166 24.167 -125.499 42.5
s-72.333 41.5 -93 69.5c-6 -14.667 -9 -30 -9 -46c0 -30 9.66699 -55.5 29 -76.5s43.5 -36.333 72.5 -46s60.333 -19 94 -28l94 -24.5c29 -7.33301 53.167 -18.833 72.5 -34.5s29 -34.834 29 -57.501c0 -64.667 -50.667 -97 -152 -97c-81.333 0 -156.666 22.667 -225.999 68
v-85z" />
    <glyph glyph-name="copyright" unicode="&#xa9;" horiz-adv-x="497" 
d="M248 280c-54.667 0 -101.667 19.667 -141 59s-59 86.333 -59 141c0 55.333 19.5 102.5 58.5 141.5s86.167 58.5 141.5 58.5s102.5 -19.5 141.5 -58.5s58.5 -86.167 58.5 -141.5s-19.5 -102.5 -58.5 -141.5s-86.167 -58.5 -141.5 -58.5zM248 295
c50.667 0 94.167 18.167 130.5 54.5s54.5 79.833 54.5 130.5s-18.167 94.167 -54.5 130.5s-79.833 54.5 -130.5 54.5s-94.167 -18.167 -130.5 -54.5s-54.5 -79.833 -54.5 -130.5s18.167 -94.167 54.5 -130.5s79.833 -54.5 130.5 -54.5zM332 379
c-24.667 -14.667 -51.333 -21.999 -80 -21.999c-36 0 -64.833 11 -86.5 33s-32.5 52 -32.5 90s10.833 68 32.5 90s50.5 33 86.5 33c30 0 56.667 -7.33301 80 -22v-31c-26.667 16 -52.667 24 -78 24c-26.667 0 -47.667 -8.5 -63 -25.5s-23 -39.833 -23 -68.5
s8 -51.334 24 -68.001s37 -25 63 -25c30 0 55.667 8 77 24v-32z" />
    <glyph glyph-name="guillemotleft" unicode="&#xab;" horiz-adv-x="523" 
d="M273 444l-159 -194l159 -194h-64l-168 194l168 194h64zM473 444l-159 -194l159 -194h-64l-168 194l168 194h64z" />
    <glyph glyph-name="logicalnot" unicode="&#xac;" horiz-adv-x="575" 
d="M502 466v-273h-72v201h-369v72h441z" />
    <glyph glyph-name="uni00AD" unicode="&#xad;" horiz-adv-x="468" 
d="M63 254v72h341v-72h-341z" />
    <glyph glyph-name="registered" unicode="&#xae;" horiz-adv-x="497" 
d="M248 280c-54.667 0 -101.667 19.667 -141 59s-59 86.333 -59 141c0 55.333 19.5 102.5 58.5 141.5s86.167 58.5 141.5 58.5s102.5 -19.5 141.5 -58.5s58.5 -86.167 58.5 -141.5s-19.5 -102.5 -58.5 -141.5s-86.167 -58.5 -141.5 -58.5zM248 295
c50.667 0 94.167 18.167 130.5 54.5s54.5 79.833 54.5 130.5s-18.167 94.167 -54.5 130.5s-79.833 54.5 -130.5 54.5s-94.167 -18.167 -130.5 -54.5s-54.5 -79.833 -54.5 -130.5s18.167 -94.167 54.5 -130.5s79.833 -54.5 130.5 -54.5zM312 361l39 0.000976562l-72 100
c39.333 5.33301 59 27.666 59 66.999c0 47.333 -28 71 -84 71h-89v-238h36v96h42zM200 486.001v84h50c34.667 0 52 -14 52 -42c0 -29.333 -17.333 -43.333 -52 -42h-50z" />
    <glyph glyph-name="degree" unicode="&#xb0;" horiz-adv-x="282" 
d="M141 506c-25.333 0 -47 9 -65 27s-27 39.667 -27 65s9 47 27 65s39.667 27 65 27s47 -9 65 -27s27 -39.667 27 -65s-9 -47 -27 -65s-39.667 -27 -65 -27zM141 552c12.667 0 23.5 4.5 32.5 13.5s13.5 19.833 13.5 32.5s-4.5 23.667 -13.5 33s-19.833 14 -32.5 14
s-23.667 -4.66699 -33 -14s-14 -20.333 -14 -33s4.66699 -23.5 14 -32.5s20.333 -13.5 33 -13.5z" />
    <glyph glyph-name="plusminus" unicode="&#xb1;" horiz-adv-x="596" 
d="M538 413v-72h-204v-158h-72v158h-205v72h204v157h72v-157h205zM57 143h481v-73h-481v73z" />
    <glyph glyph-name="paragraph" unicode="&#xb6;" horiz-adv-x="599" 
d="M280 262c-78 0 -138.167 18.333 -180.5 55s-63.5 88 -63.5 154s21.167 117.333 63.5 154s102.5 55 180.5 55h92v-680h-75v262h-17zM507 0h-72v680h72v-680z" />
    <glyph glyph-name="periodcentered" unicode="&#xb7;" horiz-adv-x="208" 
d="M149 199h-89v89h89v-89z" />
    <glyph glyph-name="guillemotright" unicode="&#xbb;" horiz-adv-x="523" 
d="M48 444h65l167 -194l-167 -194h-65l160 194zM248 444h65l167 -194l-167 -194h-65l160 194z" />
    <glyph glyph-name="questiondown" unicode="&#xbf;" horiz-adv-x="495" 
d="M258 500h80v-104h-80v104zM335 147c-136.667 0 -205.335 -45.333 -206.002 -136c0 -42 13.333 -73.167 40 -93.5s61.334 -30.5 104.001 -30.5c66 0 128 20.667 186 62v-84c-57.333 -36.667 -124.666 -55 -201.999 -55c-66 0 -119.667 16.167 -161 48.5
s-62 80.833 -62 145.5c0 122.667 75 189.667 225 201l8 115h66z" />
    <glyph glyph-name="multiply" unicode="&#xd7;" horiz-adv-x="500" 
d="M304 329l167 168l-51 51l-167 -167l-168 167l-51 -51l168 -168l-168 -167l51 -51l168 167l167 -167l51 51z" />
    <glyph glyph-name="divide" unicode="&#xf7;" horiz-adv-x="569" 
d="M338 455h-80v104h80v-104zM65 294v72h441v-72h-441zM338 104h-80v104h80v-104z" />
    <glyph glyph-name="uni060C" unicode="&#x60c;" horiz-adv-x="197" 
d="M136 238l54.999 -5c-25.333 -65.333 -40.333 -136.333 -45 -213h-79c4 42.667 11.333 80.167 22 112.5s26.334 67.5 47.001 105.5z" />
    <glyph glyph-name="uni061B" unicode="&#x61b;" horiz-adv-x="269" 
d="M160 619l54.999 -5c-25.333 -65.333 -40.333 -136.333 -45 -213h-79c4 42.667 11.333 80.167 22 112.5s26.334 67.5 47.001 105.5zM158.999 0h-88v89h88v-89z" />
    <glyph glyph-name="uni061F" unicode="&#x61f;" horiz-adv-x="487" 
d="M235 726c80 0 160.336 -40.335 241.003 -121.002l-56 -52c-66.667 62.667 -128.334 94 -185.001 94c-35.333 0 -64.5 -9.83301 -87.5 -29.5s-34.5 -45.834 -34.5 -78.501c0 -26 7.66699 -47.5 23 -64.5s43.333 -39.5 84 -67.5
c39.333 -27.333 67.666 -53.666 84.999 -78.999s26.333 -58.333 27 -99l-47 -28h-41v19c0 28.667 -7.33301 52.834 -22 72.501s-39.334 41.834 -74.001 66.501c-40.667 28 -71.167 55 -91.5 81s-30.5 59.667 -30.5 101c0 55.333 19.833 100 59.5 134s89.5 51 149.5 51z
M258.003 -0.00195312v89h88v-89h-88z" />
    <glyph glyph-name="uni0621" unicode="&#x621;" horiz-adv-x="512" 
d="M217 90l267.999 -0.00195312l-23 -90h-434v90h117c-31.333 52 -47 101.667 -47 149c0 50.667 18 92.834 54 126.501s80.333 50.5 133 50.5c44 0 98.333 -12.333 163 -37l-24 -73c-50 18 -91.667 27 -125 27c-38 0 -68.167 -10.167 -90.5 -30.5
s-34.166 -48.166 -35.499 -83.499c-2 -37.333 12.667 -80.333 44 -129z" />
    <glyph glyph-name="uni0622" unicode="&#x622;" horiz-adv-x="257" 
d="M66 761c14.667 0 35 -6.16699 61 -18.5s47 -18.5 63 -18.5c28.667 0 54.667 8 78 24l-1 -59c-24.667 -15.333 -50.334 -23 -77.001 -23c-16.667 0 -37.167 6.16699 -61.5 18.5s-42.833 18.5 -55.5 18.5c-27.333 0 -43 -13 -47 -39h-49
c1.33301 29.333 9.83301 52.833 25.5 70.5s36.834 26.5 63.501 26.5zM90 0v590l85 13v-603h-85z" />
    <glyph glyph-name="uni0623" unicode="&#x623;" horiz-adv-x="257" 
d="M124 713l129.999 0.000976562l-14 -57h-226v57h55c-10.667 17.333 -16 36.666 -16 57.999c0 24.667 8.5 45.167 25.5 61.5s38.5 24.5 64.5 24.5c23.333 0 49.333 -6.33301 78 -19v-49c-23.333 10 -44.666 15 -63.999 15c-14.667 0 -26.667 -4 -36 -12
s-14 -18.667 -14 -32c0 -19.333 5.66699 -35 17 -47zM89.999 0.000976562v590l85 13v-603h-85z" />
    <glyph glyph-name="uni0624" unicode="&#x624;" horiz-adv-x="546" 
d="M397 637l-20.002 -66.999h-237v67h61c-13.333 20.667 -20 41 -20 61c0 30 10 54.167 30 72.5s45.667 27.5 77 27.5c22.667 0 48.334 -6.66699 77.001 -20v-62c-27.333 10 -50.333 15 -69 15c-17.333 0 -31.166 -4.16699 -41.499 -12.5s-15.5 -19.833 -15.5 -34.5
c0 -16.667 6.33301 -32.334 19 -47.001h139zM273.998 481.001c62 0 112.332 -20.499 150.999 -61.499s58 -95.167 58 -162.5v-234c0 -158.667 -124.333 -238 -373 -238l-10 73c100.667 0 175.667 13.5 225 40.5s74 69.833 74 128.5v2c-42.667 -19.333 -84 -29 -124 -29
c-69.333 0 -125.333 21.5 -168 64.5s-64 100.833 -64 173.5c0 71.333 21.833 129.666 65.5 174.999s98.834 68 165.501 68zM285.997 87.002c39.333 0 76.999 6.33301 112.999 19v144c0 42.667 -12.333 77.334 -37 104.001s-56.667 40 -96 40
c-41.333 0 -75.666 -14 -102.999 -42s-41 -64.667 -41 -110c0 -51.333 14.667 -90.333 44 -117s69.333 -39.334 120 -38.001z" />
    <glyph glyph-name="uni0625" unicode="&#x625;" horiz-adv-x="254" 
d="M172 730v-730h-85v717zM78 -196l128.999 0.000976562l-13 -57h-226v57h55c-10.667 17.333 -16 36.666 -16 57.999c0 24.667 8.5 45.167 25.5 61.5s38.5 24.5 64.5 24.5c23.333 0 49.333 -6.33301 78 -19v-49c-23.333 10 -44.666 15 -63.999 15
c-14.667 0 -26.667 -4 -36 -12s-14 -18.667 -14 -32c0 -19.333 5.66699 -35 17 -47z" />
    <glyph glyph-name="uni0626" unicode="&#x626;" horiz-adv-x="956" 
d="M274 433l-20.002 -66.998h-237v67h61c-12.667 19.333 -19 40 -19 62c0 29.333 9.83301 53.166 29.5 71.499s45.167 27.5 76.5 27.5c24.667 0 50.334 -6.66699 77.001 -20v-61c-29.333 10 -52 15 -68 15c-17.333 0 -31.166 -4.33301 -41.499 -13
s-15.5 -20.334 -15.5 -35.001c0 -15.333 6.33301 -31 19 -47h138zM837.998 476.002l57.999 -50.998v-422l-85 -13v396h-81c-40.667 0 -72.167 -10.5 -94.5 -31.5s-33.5 -51.833 -33.5 -92.5v-182c0 -97.333 -21.167 -170.833 -63.5 -220.5s-116.5 -74.5 -222.5 -74.5
c-84 0 -150.5 21.833 -199.5 65.5s-73.5 108.167 -73.5 193.5c0 71.333 14.667 151.666 44 240.999l69 -19c-23.333 -68.667 -35 -135.334 -35 -200.001c0.666992 -62.667 18.334 -110.167 53.001 -142.5s83.667 -48.5 147 -48.5c72.667 0 123.667 16 153 48
s44 87.333 44 166v188c0 61.333 17.167 109.833 51.5 145.5s83.833 53.5 148.5 53.5h120z" />
    <glyph glyph-name="uni0627" unicode="&#x627;" horiz-adv-x="254" 
d="M87 0v717l85 13v-730h-85z" />
    <glyph glyph-name="uni0628" unicode="&#x628;" horiz-adv-x="831" 
d="M680 483l85 13.999v-305c0 -61.333 -17.833 -108.666 -53.5 -141.999s-88.167 -50 -157.5 -50h-267c-79.333 -0 -139.833 18.333 -181.5 55s-62.5 90.667 -62.5 162c0 48.667 7 105.667 21 171l75 -10c-10.667 -59.333 -16 -105 -16 -137
c0 -100.667 61.333 -151 184 -151h247c84 0 126 41.667 126 125v268zM355 -150.001l72 73l75 -73l-73 -72z" />
    <glyph glyph-name="uni0629" unicode="&#x629;" horiz-adv-x="524" 
d="M183 573l-73 72l73 72l73 -72zM342 573l-74 72l74 72l73 -72zM263 -9c-67.333 0 -122.5 23 -165.5 69s-64.5 103 -64.5 171c0 69.333 21.667 128.333 65 177s98.333 73 165 73c66 0 120.5 -24.5 163.5 -73.5s64.5 -107.833 64.5 -176.5c0 -68 -21.5 -125 -64.5 -171
s-97.5 -69 -163.5 -69zM263 82c42 0 76.499 14.333 103.499 43s40.5 64.334 40.5 107.001c0 44 -13.667 81.5 -41 112.5s-61.666 46.5 -102.999 46.5c-42 0 -76.833 -15.5 -104.5 -46.5s-41.5 -68.5 -41.5 -112.5c0 -42.667 13.667 -78.334 41 -107.001s62.333 -43 105 -43z
" />
    <glyph glyph-name="uni062A" unicode="&#x62a;" horiz-adv-x="831" 
d="M399 531l-73 -72l-73 72l73 72zM558 531l-73 -72l-74 72l74 72zM680 483l85 13.999v-305c0 -61.333 -17.833 -108.666 -53.5 -141.999s-88.167 -50 -157.5 -50h-267c-79.333 -0 -139.833 18.333 -181.5 55s-62.5 90.667 -62.5 162c0 48.667 7 105.667 21 171l75 -10
c-10.667 -59.333 -16 -105 -16 -137c0 -100.667 61.333 -151 184 -151h247c84 0 126 41.667 126 125v268z" />
    <glyph glyph-name="uni062B" unicode="&#x62b;" horiz-adv-x="831" 
d="M452 655l-52 -52l-53 52l52 53zM389 533l-72 -73l-74 73l73 72zM482 460l-74 73l74 72l73 -72zM680 483l85 13.999v-305c0 -61.333 -17.833 -108.666 -53.5 -141.999s-88.167 -50 -157.5 -50h-267c-79.333 -0 -139.833 18.333 -181.5 55s-62.5 90.667 -62.5 162
c0 48.667 7 105.667 21 171l75 -10c-10.667 -59.333 -16 -105 -16 -137c0 -100.667 61.333 -151 184 -151h247c84 0 126 41.667 126 125v268z" />
    <glyph glyph-name="uni062C" unicode="&#x62c;" horiz-adv-x="625" 
d="M332 -188c49.333 0 118.668 12.335 208.001 37.002l23 -73c-94 -34 -177 -51 -249 -51c-84 0 -150.333 20.5 -199 61.5s-73 99.167 -73 174.5c0 82.667 36.333 150.167 109 202.5s183.667 85.166 333 98.499c-74 72 -132 121.167 -174 147.5s-82.333 39.5 -121 39.5
c-20.667 0 -53 -5.33301 -97 -16l-18 76c50 18.667 92.333 28 127 28c46.667 0 96 -17 148 -51s130.667 -101 236 -201l-35 -95c-134.667 -0.666992 -239.334 -21.334 -314.001 -62.001s-112 -93.667 -112 -159c0 -50 18.167 -88.667 54.5 -116s87.5 -41 153.5 -41z
M363.002 -57.998l-74 72l72 73l75 -73z" />
    <glyph glyph-name="uni062D" unicode="&#x62d;" horiz-adv-x="625" 
d="M332 -188c49.333 0 118.668 12.335 208.001 37.002l23 -73c-94 -34 -177 -51 -249 -51c-84 0 -150.333 20.5 -199 61.5s-73 99.167 -73 174.5c0 82.667 36.333 150.167 109 202.5s183.667 85.166 333 98.499c-74 72 -132 121.167 -174 147.5s-82.333 39.5 -121 39.5
c-20.667 0 -53 -5.33301 -97 -16l-18 76c50 18.667 92.333 28 127 28c46.667 0 96 -17 148 -51s130.667 -101 236 -201l-35 -95c-134.667 -0.666992 -239.334 -21.334 -314.001 -62.001s-112 -93.667 -112 -159c0 -50 18.167 -88.667 54.5 -116s87.5 -41 153.5 -41z" />
    <glyph glyph-name="uni062E" unicode="&#x62e;" horiz-adv-x="625" 
d="M496 637l-73 -73l-74 73l72 72zM332 -188c49.333 0 118.668 12.335 208.001 37.002l23 -73c-94 -34 -177 -51 -249 -51c-84 0 -150.333 20.5 -199 61.5s-73 99.167 -73 174.5c0 82.667 36.333 150.167 109 202.5s183.667 85.166 333 98.499
c-74 72 -132 121.167 -174 147.5s-82.333 39.5 -121 39.5c-20.667 0 -53 -5.33301 -97 -16l-18 76c50 18.667 92.333 28 127 28c46.667 0 96 -17 148 -51s130.667 -101 236 -201l-35 -95c-134.667 -0.666992 -239.334 -21.334 -314.001 -62.001s-112 -93.667 -112 -159
c0 -50 18.167 -88.667 54.5 -116s87.5 -41 153.5 -41z" />
    <glyph glyph-name="uni062F" unicode="&#x62f;" horiz-adv-x="516" 
d="M27 0l-17.001 89.999h252c40.667 0 71.834 10 93.501 30s32.5 48.333 32.5 85l-1 58c-0.666992 40.667 -15.167 73.667 -43.5 99s-64.5 38 -108.5 38h-59v88h77c64 0 116.333 -19.667 157 -59s61.334 -91 62.001 -155l1 -82
c-0.666992 -61.333 -18.834 -108.666 -54.501 -141.999s-88.167 -50 -157.5 -50h-234z" />
    <glyph glyph-name="uni0630" unicode="&#x630;" horiz-adv-x="516" 
d="M239 583l-74 73l72 72l75 -72zM27 0l-17.001 89.999h252c40.667 0 71.834 10 93.501 30s32.5 48.333 32.5 85l-1 58c-0.666992 40.667 -15.167 73.667 -43.5 99s-64.5 38 -108.5 38h-59v88h77c64 0 116.333 -19.667 157 -59s61.334 -91 62.001 -155l1 -82
c-0.666992 -61.333 -18.834 -108.666 -54.501 -141.999s-88.167 -50 -157.5 -50h-234z" />
    <glyph glyph-name="uni0631" unicode="&#x631;" horiz-adv-x="299" 
d="M-22 -215l-8 73c120 0 180 57.333 180 172l-1 453l85 14v-470c0 -83.333 -21.333 -144.5 -64 -183.5s-106.667 -58.5 -192 -58.5z" />
    <glyph glyph-name="uni0632" unicode="&#x632;" horiz-adv-x="299" 
d="M194 573l-74 73l72 72l75 -72zM-22 -215l-8 73c120 0 180 57.333 180 172l-1 453l85 14v-470c0 -83.333 -21.333 -144.5 -64 -183.5s-106.667 -58.5 -192 -58.5z" />
    <glyph glyph-name="uni0633" unicode="&#x633;" horiz-adv-x="1309" 
d="M1166 483l85 14.001v-305c0 -61.333 -16.833 -108.666 -50.5 -141.999s-83.167 -50 -148.5 -50c-52.667 0 -108 17.667 -166 53c-35.333 -35.333 -86 -53 -152 -53c-42.667 0 -87.334 14 -134.001 42c-8.66699 -80 -36.334 -142.833 -83.001 -188.5
s-113.667 -68.5 -201 -68.5c-84 0 -150.5 21.833 -199.5 65.5s-73.5 108.167 -73.5 193.5c0 71.333 14.667 151.666 44 240.999l69 -19c-23.333 -68.667 -35 -135.334 -35 -200.001c0.666992 -62.667 18.334 -110.167 53.001 -142.5s83.667 -48.5 147 -48.5
c66.667 0 116.167 18.833 148.5 56.5s48.5 95.834 48.5 174.501v377l84 14v-372c44.667 -23.333 86.334 -35 125.001 -35c84 0 126 41.667 126 125v162l85 13v-198c0 -26.667 -4.33301 -52.334 -13 -77.001c41.333 -16.667 80 -25 116 -25c40.667 0 71.667 10.5 93 31.5
s32 52.167 32 93.5v268z" />
    <glyph glyph-name="uni0634" unicode="&#x634;" horiz-adv-x="1309" 
d="M945 729l-52 -52l-53 52l52 53zM882 607l-72 -73l-74 73l73 72zM975 534l-74 73l74 72l73 -72zM1166 483l85 14.001v-305c0 -61.333 -16.833 -108.666 -50.5 -141.999s-83.167 -50 -148.5 -50c-52.667 0 -108 17.667 -166 53c-35.333 -35.333 -86 -53 -152 -53
c-42.667 0 -87.334 14 -134.001 42c-8.66699 -80 -36.334 -142.833 -83.001 -188.5s-113.667 -68.5 -201 -68.5c-84 0 -150.5 21.833 -199.5 65.5s-73.5 108.167 -73.5 193.5c0 71.333 14.667 151.666 44 240.999l69 -19c-23.333 -68.667 -35 -135.334 -35 -200.001
c0.666992 -62.667 18.334 -110.167 53.001 -142.5s83.667 -48.5 147 -48.5c66.667 0 116.167 18.833 148.5 56.5s48.5 95.834 48.5 174.501v377l84 14v-372c44.667 -23.333 86.334 -35 125.001 -35c84 0 126 41.667 126 125v162l85 13v-198
c0 -26.667 -4.33301 -52.334 -13 -77.001c41.333 -16.667 80 -25 116 -25c40.667 0 71.667 10.5 93 31.5s32 52.167 32 93.5v268z" />
    <glyph glyph-name="uni0635" unicode="&#x635;" horiz-adv-x="1252" 
d="M990 493c63.333 0 115.499 -19.999 156.499 -59.999s61.5 -91 61.5 -153c0 -30.667 -2.5 -58.5 -7.5 -83.5s-14.5 -64.833 -28.5 -119.5l-67 -77h-512c-13.333 -68 -42.833 -120.833 -88.5 -158.5s-108.5 -56.5 -188.5 -56.5c-84 0 -150.5 21.833 -199.5 65.5
s-73.5 108.167 -73.5 193.5c0 71.333 14.667 151.666 44 240.999l69 -19c-23.333 -68.667 -35 -135.334 -35 -200.001c0.666992 -62.667 18.334 -110.167 53.001 -142.5s83.667 -48.5 147 -48.5c66.667 0 116.167 18.833 148.5 56.5s48.5 95.834 48.5 174.501v377l84 14
v-119c102.667 44 180.5 74.167 233.5 90.5s104.5 24.5 154.5 24.5zM1090 90.001c22 75.333 32.999 134.667 32.999 178c-0.666992 40 -15.167 72.833 -43.5 98.5s-64.166 38.5 -107.499 38.5c-40 0 -78.667 -5.16699 -116 -15.5s-104.333 -32.833 -201 -67.5l-17.5 -6.5
c-4.33301 -1.66699 -9.83301 -3.66699 -16.5 -6l-19 -6.5v-206v-7h488z" />
    <glyph glyph-name="uni0636" unicode="&#x636;" horiz-adv-x="1252" 
d="M875 657l-73 -73l-74 73l72 72zM990 493c63.333 0 115.499 -19.999 156.499 -59.999s61.5 -91 61.5 -153c0 -30.667 -2.5 -58.5 -7.5 -83.5s-14.5 -64.833 -28.5 -119.5l-67 -77h-512c-13.333 -68 -42.833 -120.833 -88.5 -158.5s-108.5 -56.5 -188.5 -56.5
c-84 0 -150.5 21.833 -199.5 65.5s-73.5 108.167 -73.5 193.5c0 71.333 14.667 151.666 44 240.999l69 -19c-23.333 -68.667 -35 -135.334 -35 -200.001c0.666992 -62.667 18.334 -110.167 53.001 -142.5s83.667 -48.5 147 -48.5c66.667 0 116.167 18.833 148.5 56.5
s48.5 95.834 48.5 174.501v377l84 14v-119c102.667 44 180.5 74.167 233.5 90.5s104.5 24.5 154.5 24.5zM1090 90.001c22 75.333 32.999 134.667 32.999 178c-0.666992 40 -15.167 72.833 -43.5 98.5s-64.166 38.5 -107.499 38.5c-40 0 -78.667 -5.16699 -116 -15.5
s-104.333 -32.833 -201 -67.5l-17.5 -6.5c-4.33301 -1.66699 -9.83301 -3.66699 -16.5 -6l-19 -6.5v-206v-7h488z" />
    <glyph glyph-name="uni0637" unicode="&#x637;" horiz-adv-x="899" 
d="M637 493c63.333 0 115.499 -20 156.499 -60s61.5 -91 61.5 -153c0 -30.667 -2.5 -58.5 -7.5 -83.5s-14.5 -64.833 -28.5 -119.5l-67 -77h-548h-42h-129l-16 90h145v627l85 13v-353c102.667 44 180.834 74.333 234.501 91s105.5 25 155.5 25zM736.999 90
c22 74.667 32.999 134 32.999 178c-0.666992 40 -15.167 72.833 -43.5 98.5s-64.166 38.5 -107.499 38.5c-44.667 0 -88.167 -6.16699 -130.5 -18.5s-122.833 -40.5 -241.5 -84.5v-212h490z" />
    <glyph glyph-name="uni0638" unicode="&#x638;" horiz-adv-x="899" 
d="M637 493c63.333 0 115.499 -20 156.499 -60s61.5 -91 61.5 -153c0 -30.667 -2.5 -58.5 -7.5 -83.5s-14.5 -64.833 -28.5 -119.5l-67 -77h-548h-42h-129l-16 90h145v627l85 13v-353c102.667 44 180.834 74.333 234.501 91s105.5 25 155.5 25zM541.999 657l-73 -73l-74 73
l72 72zM736.999 90c22 74.667 32.999 134 32.999 178c-0.666992 40 -15.167 72.833 -43.5 98.5s-64.166 38.5 -107.499 38.5c-44.667 0 -88.167 -6.16699 -130.5 -18.5s-122.833 -40.5 -241.5 -84.5v-212h490z" />
    <glyph glyph-name="uni0639" unicode="&#x639;" horiz-adv-x="600" 
d="M554 -151l23.002 -72.999c-93.333 -34 -178 -51 -254 -51c-82.667 0 -147.834 17.5 -195.501 52.5s-71.5 85.5 -71.5 151.5c0 85.333 45.667 152.666 137 201.999c-62.667 62.667 -94 129 -94 199c0 62 21 112.333 63 151s95.333 58 160 58
c41.333 0 100.666 -13 177.999 -39l-24 -73c-61.333 18 -108 27 -140 27c-44.667 0 -82 -12.5 -112 -37.5s-45 -58.167 -45 -99.5c0 -54.667 27.333 -106.667 82 -156c16 5.33301 28 9 36 11l213 66l3 -82l-192 -56c-122.667 -35.333 -184 -89 -184 -161
c0 -84.667 65.667 -127 197 -127c66 0 139.333 12.333 220 37z" />
    <glyph glyph-name="uni063A" unicode="&#x63a;" horiz-adv-x="600" 
d="M386 689l-73 -73l-74 73l72 72zM554 -151l23.002 -72.999c-93.333 -34 -178 -51 -254 -51c-82.667 0 -147.834 17.5 -195.501 52.5s-71.5 85.5 -71.5 151.5c0 85.333 45.667 152.666 137 201.999c-62.667 62.667 -94 129 -94 199c0 62 21 112.333 63 151
s95.333 58 160 58c41.333 0 100.666 -13 177.999 -39l-24 -73c-61.333 18 -108 27 -140 27c-44.667 0 -82 -12.5 -112 -37.5s-45 -58.167 -45 -99.5c0 -54.667 27.333 -106.667 82 -156c16 5.33301 28 9 36 11l213 66l3 -82l-192 -56c-122.667 -35.333 -184 -89 -184 -161
c0 -84.667 65.667 -127 197 -127c66 0 139.333 12.333 220 37z" />
    <glyph glyph-name="uni0640" unicode="&#x640;" horiz-adv-x="194" 
d="M194 90c6.66699 0 10 -3 10 -9v-71c0 -6.66699 -3.33301 -10 -10 -10h-194c-6.66699 -0 -10 3.33301 -10 10v71c0 6 3.33301 9 10 9h194z" />
    <glyph glyph-name="uni0641" unicode="&#x641;" horiz-adv-x="950" 
d="M751 642l-73 -73l-74 73l72 72zM689 485c64 0 117.667 -21.833 161 -65.5s65 -98.167 65 -163.5c0 -80 -24.833 -142.667 -74.5 -188s-118.167 -68 -205.5 -68h-219h-129c-79.333 -0 -139.833 18.333 -181.5 55s-62.5 90.667 -62.5 162c0 45.333 7.33301 102.333 22 171
l74 -10c-10.667 -59.333 -16 -105 -16 -137c0 -100.667 61.333 -151 184 -151h195c-30 62.667 -45 116.667 -45 162c0 67.333 21.833 123 65.5 167s99.167 66 166.5 66zM642 90c57.333 0 103 14.332 137 42.999s51 68.667 51 120c0 42.667 -13.833 77.834 -41.5 105.501
s-62.5 41.5 -104.5 41.5c-40 0 -74 -14.833 -102 -44.5s-42 -64.5 -42 -104.5c0 -48 16.667 -101.667 50 -161h52z" />
    <glyph glyph-name="uni0642" unicode="&#x642;" horiz-adv-x="769" 
d="M489 641l-73 -72l-73 72l73 72zM648 641l-73 -72l-74 72l74 72zM500 475c62 -1.33301 112.333 -22.499 151 -63.499s58 -94.833 58 -161.5v-200c0 -86 -30 -151.667 -90 -197s-150 -68 -270 -68c-92 0 -166 22.333 -222 67s-84 108.667 -84 192
c0 71.333 14.667 151.666 44 240.999l69 -19c-23.333 -68.667 -35 -135.334 -35 -200.001c0.666992 -66 22.667 -115.833 66 -149.5s104 -50.5 182 -50.5c75.333 0 136.333 15 183 45s72.334 71 77.001 123c-46.667 -22.667 -91.334 -34 -134.001 -34
c-65.333 0 -118.5 20.833 -159.5 62.5s-61.5 97.5 -61.5 167.5c0 72.667 21.167 131.834 63.5 177.501s96.5 68.167 162.5 67.5zM353 234.001c0 -47.333 13.832 -83.667 41.499 -109s64.834 -38 111.501 -38c41.333 0 81 7.33301 119 22v134
c0 42.667 -12.167 77.167 -36.5 103.5s-56.5 39.833 -96.5 40.5c-41.333 1.33301 -74.833 -12 -100.5 -40s-38.5 -65.667 -38.5 -113z" />
    <glyph glyph-name="uni0643" unicode="&#x643;" horiz-adv-x="852" 
d="M682 717l84 13v-530c0 -133.333 -70.333 -200 -211 -200h-1h-267c-79.333 -0 -139.833 18.333 -181.5 55s-62.5 90.667 -62.5 162c0 48.667 7 105.667 21 171l75 -10c-10.667 -59.333 -16 -105 -16 -137c0 -100.667 61.333 -151 184 -151h247h1h1
c83.333 0 125 43.333 125 130zM541 423l-20.001 -66.998h-237v67h61c-12.667 19.333 -19 39.666 -19 60.999c0 30 9.83301 54.167 29.5 72.5s45.167 27.5 76.5 27.5c22.667 0 48.334 -6.66699 77.001 -20v-62c-26.667 10 -49.334 15 -68.001 15
c-17.333 0 -31.166 -4.16699 -41.499 -12.5s-15.5 -19.833 -15.5 -34.5c0 -16.667 6.33301 -32.334 19 -47.001h138z" />
    <glyph glyph-name="uni0644" unicode="&#x644;" horiz-adv-x="675" 
d="M603 733l-0.000976562 -602.998h-1v-33c0 -96.667 -23.333 -172.834 -70 -228.501s-118.667 -83.5 -216 -83.5c-84 0 -150.5 21.833 -199.5 65.5s-73.5 108.167 -73.5 193.5c0 71.333 14.667 151.666 44 240.999l69 -19c-23.333 -68.667 -35 -135.334 -35 -200.001
c0.666992 -62.667 18.334 -110.167 53.001 -142.5s83.667 -48.5 147 -48.5c66.667 0 116.167 18.833 148.5 56.5s48.5 95.834 48.5 174.501v377v237z" />
    <glyph glyph-name="uni0645" unicode="&#x645;" horiz-adv-x="677" 
d="M415 481c66 0 120.667 -24.499 164 -73.499s65 -107.833 65 -176.5c0 -68 -21.5 -125 -64.5 -171s-97.833 -69 -164.5 -69c-56 0 -104 16.667 -144 50s-66 76.666 -78 129.999c-48 -10 -72 -45.667 -72 -107v-321l-84 -13l-1 345c0 111.333 50.667 173.333 152 186
c6 62.667 30 115 72 157s93.667 63 155 63zM415 82.001c42 0 76.5 14.333 103.5 43s40.5 64.334 40.5 107.001c0 44 -13.5 81.5 -40.5 112.5s-61.5 46.5 -103.5 46.5s-76.667 -15.5 -104 -46.5s-41 -68.5 -41 -112.5c0 -42.667 13.667 -78.334 41 -107.001s62 -43 104 -43z
" />
    <glyph glyph-name="uni0646" unicode="&#x646;" horiz-adv-x="675" 
d="M322 410l-74 73l72 72l75 -72zM316 -215c-84 0 -150.501 21.835 -199.501 65.502s-73.5 108.167 -73.5 193.5c0 71.333 14.667 151.666 44 240.999l69 -19c-23.333 -68.667 -35 -135.334 -35 -200.001c0.666992 -62.667 18.334 -110.167 53.001 -142.5
s83.667 -48.5 147 -48.5c66.667 0 116.167 18.833 148.5 56.5s48.5 95.834 48.5 174.501v377l84 14v-400c0 -96.667 -23.333 -172.834 -70 -228.501s-118.667 -83.5 -216 -83.5z" />
    <glyph glyph-name="uni0647" unicode="&#x647;" horiz-adv-x="524" 
d="M263 -9c-67.333 0 -122.5 23 -165.5 69s-64.5 103 -64.5 171c0 69.333 21.667 128.333 65 177s98.333 73 165 73c66 0 120.5 -24.5 163.5 -73.5s64.5 -107.833 64.5 -176.5c0 -68 -21.5 -125 -64.5 -171s-97.5 -69 -163.5 -69zM263 82c42 0 76.499 14.333 103.499 43
s40.5 64.334 40.5 107.001c0 44 -13.667 81.5 -41 112.5s-61.666 46.5 -102.999 46.5c-42 0 -76.833 -15.5 -104.5 -46.5s-41.5 -68.5 -41.5 -112.5c0 -42.667 13.667 -78.334 41 -107.001s62.333 -43 105 -43z" />
    <glyph glyph-name="uni0648" unicode="&#x648;" horiz-adv-x="546" 
d="M274 481c62 0 112.332 -20.499 150.999 -61.499s58 -95.167 58 -162.5v-234c0 -158.667 -124.333 -238 -373 -238l-10 73c100.667 0 175.667 13.5 225 40.5s74 69.833 74 128.5v2c-42.667 -19.333 -84 -29 -124 -29c-69.333 0 -125.333 21.5 -168 64.5
s-64 100.833 -64 173.5c0 71.333 21.833 129.666 65.5 174.999s98.834 68 165.501 68zM285.999 87.001c39.333 0 76.999 6.33301 112.999 19v144c0 42.667 -12.333 77.334 -37 104.001s-56.667 40 -96 40c-41.333 0 -75.666 -14 -102.999 -42s-41 -64.667 -41 -110
c0 -51.333 14.667 -90.333 44 -117s69.333 -39.334 120 -38.001z" />
    <glyph glyph-name="uni0649" unicode="&#x649;" horiz-adv-x="956" 
d="M838 476l57.999 -50.998v-422l-85 -13v396h-81c-40.667 0 -72.167 -10.5 -94.5 -31.5s-33.5 -51.833 -33.5 -92.5v-182c0 -97.333 -21.167 -170.833 -63.5 -220.5s-116.5 -74.5 -222.5 -74.5c-84 0 -150.5 21.833 -199.5 65.5s-73.5 108.167 -73.5 193.5
c0 71.333 14.667 151.666 44 240.999l69 -19c-23.333 -68.667 -35 -135.334 -35 -200.001c0.666992 -62.667 18.334 -110.167 53.001 -142.5s83.667 -48.5 147 -48.5c72.667 0 123.667 16 153 48s44 87.333 44 166v188c0 61.333 17.167 109.833 51.5 145.5
s83.833 53.5 148.5 53.5h120z" />
    <glyph glyph-name="uni064A" unicode="&#x64a;" horiz-adv-x="956" 
d="M838 476l57.999 -50.998v-422l-85 -13v396h-81c-40.667 0 -72.167 -10.5 -94.5 -31.5s-33.5 -51.833 -33.5 -92.5v-182c0 -97.333 -21.167 -170.833 -63.5 -220.5s-116.5 -74.5 -222.5 -74.5c-84 0 -150.5 21.833 -199.5 65.5s-73.5 108.167 -73.5 193.5
c0 71.333 14.667 151.666 44 240.999l69 -19c-23.333 -68.667 -35 -135.334 -35 -200.001c0.666992 -62.667 18.334 -110.167 53.001 -142.5s83.667 -48.5 147 -48.5c72.667 0 123.667 16 153 48s44 87.333 44 166v188c0 61.333 17.167 109.833 51.5 145.5
s83.833 53.5 148.5 53.5h120zM187.999 -346.998l73 72l73 -72l-73 -72zM345.999 -346.998l74 72l73 -72l-73 -72z" />
    <glyph glyph-name="uni064B" unicode="&#x64b;" 
d="M125 747l10 -44l-251 -52l-10 43zM143 654l8 -43l-250 -53l-9 43z" />
    <glyph glyph-name="uni064C" unicode="&#x64c;" 
d="M70 792c26 0 48 -9.33203 66 -27.999s27 -41.334 27 -68.001c0 -57.333 -32 -92.666 -96 -105.999l-195 -37l-27 41c28 16 42 35.333 42 58c0 12.667 -5 23.5 -15 32.5s-24.333 14.5 -43 16.5l9 41c31.333 -2.66699 55.5 -11.834 72.5 -27.501s25.5 -34.5 25.5 -56.5
c0 -16.667 -5.66699 -33.667 -17 -51l76 17c-16 20 -24 41.333 -24 64c-0.666992 30.667 8.33301 55.667 27 75s42.667 29 72 29zM57 637.001c40 8 60.001 27.001 60.001 57.001c0 14.667 -4.83301 26.667 -14.5 36s-21.834 14 -36.501 14
c-14 0 -25.833 -5.16699 -35.5 -15.5s-14.5 -23.5 -14.5 -39.5c0 -18.667 8 -37.334 24 -56.001z" />
    <glyph glyph-name="uni064D" unicode="&#x64d;" 
d="M125 -45l10 -44l-251 -52l-10 43zM143 -138l8 -43l-250 -53l-9 43z" />
    <glyph glyph-name="uni064E" unicode="&#x64e;" 
d="M138 699l10 -48l-255 -54l-9 47z" />
    <glyph glyph-name="uni064F" unicode="&#x64f;" 
d="M65 792c26 0 48.168 -9.5 66.501 -28.5s27.5 -41.5 27.5 -67.5c0 -58.667 -32.667 -94 -98 -106l-191 -36l-8 45l127 25c-15.333 22 -23 44.333 -23 67c0 30 9.16699 54.333 27.5 73s42.166 28 71.499 28zM52.001 637c39.333 7.33301 59 26.002 59 56.002
c0 15.333 -4.66699 27.666 -14 36.999s-21.333 14 -36 14c-14 0 -25.833 -5.16699 -35.5 -15.5s-14.5 -23.5 -14.5 -39.5c0 -18.667 8 -37.334 24 -56.001z" />
    <glyph glyph-name="uni0650" unicode="&#x650;" 
d="M138 -71l10 -48l-255 -54l-9 47z" />
    <glyph glyph-name="uni0651" unicode="&#x651;" 
d="M135 729c12.667 -38 18.998 -69 18.998 -93c0 -25.333 -7.16699 -45.166 -21.5 -59.499s-33.166 -21.5 -56.499 -21.5c-26 0 -46.667 11.333 -62 34c-5.33301 -18 -14.666 -32.333 -27.999 -43s-29.333 -16 -48 -16c-44.667 0 -71.667 28 -81 84l-9 57l46 7l9 -51
c6 -33.333 19.333 -50 40 -50c12 0 21.5 4.16699 28.5 12.5s10.5 20.166 10.5 35.499c0 4 -0.666992 10.667 -2 20l-9 46l45 9l9 -46c3.33301 -17.333 9.33301 -30.333 18 -39s18.667 -12.667 30 -12c22.667 1.33301 34 14 34 38c0 17.333 -5.66699 41 -17 71z" />
    <glyph glyph-name="uni0652" unicode="&#x652;" 
d="M8 751c29.333 0 52.667 -9.66602 70 -28.999s26 -45 26 -77c0 -32.667 -9.66699 -58.334 -29 -77.001s-44.333 -28 -75 -28c-30 0 -53.333 9 -70 27s-25 43.667 -25 77c0 34 9.33301 60.333 28 79s43.667 28 75 28zM3.00098 704.001c-12.667 0 -24.334 -5 -35.001 -15
s-16 -24.333 -16 -43c0 -39.333 17.667 -59 53 -59c14.667 0 27 4.83301 37 14.5s15 23.834 15 42.501c0 19.333 -5.16699 34.166 -15.5 44.499s-23.166 15.5 -38.499 15.5z" />
    <glyph glyph-name="uni0653" unicode="&#x653;" 
d="M-51 722c14.667 0 35 -6.16699 61 -18.5s47 -18.5 63 -18.5c28.667 0 54.667 8 78 24l-1 -59c-24.667 -15.333 -50.334 -23 -77.001 -23c-16.667 0 -37.167 6.16699 -61.5 18.5s-42.833 18.5 -55.5 18.5c-27.333 0 -43 -13 -47 -39h-49
c1.33301 29.333 9.83301 52.833 25.5 70.5s36.834 26.5 63.501 26.5z" />
    <glyph glyph-name="uni0654" unicode="&#x654;" 
d="M1 699l129.998 0.000976562l-13 -57h-226v57h54c-10.667 17.333 -16 36.666 -16 57.999c0 24.667 8.5 45.167 25.5 61.5s38.833 24.5 65.5 24.5c22.667 0 48.334 -6.33301 77.001 -19v-49c-23.333 10 -44.666 15 -63.999 15c-14.667 0 -26.667 -4.16699 -36 -12.5
s-14 -18.833 -14 -31.5c0 -18 5.66699 -33.667 17 -47z" />
    <glyph glyph-name="uni0655" unicode="&#x655;" 
d="M-12 -183l128.999 0.000976562l-13 -57h-226v57h55c-10.667 17.333 -16 36.666 -16 57.999c0 24.667 8.5 45.167 25.5 61.5s38.5 24.5 64.5 24.5c23.333 0 49.333 -6.33301 78 -19v-49c-23.333 10 -44.666 15 -63.999 15c-14.667 0 -26.667 -4 -36 -12
s-14 -18.667 -14 -32c0 -19.333 5.66699 -35 17 -47z" />
    <glyph glyph-name="uni0656" unicode="&#x656;" 
d="M34 -234l-59 20v72c0 34 -4 64 -12 90h57c9.33301 -26 14 -56 14 -90v-92z" />
    <glyph glyph-name="uni0660" unicode="&#x660;" horiz-adv-x="253" 
d="M125 372l73 -73l-72 -71l-73 71z" />
    <glyph glyph-name="uni0661" unicode="&#x661;" horiz-adv-x="275" 
d="M162 680l35 -680h-86l-35 665z" />
    <glyph glyph-name="uni0662" unicode="&#x662;" horiz-adv-x="461" 
d="M484 680l-23 -90h-298l30 -590h-85l-32 610l82 70v-1l1 1h325z" />
    <glyph glyph-name="uni0663" unicode="&#x663;" horiz-adv-x="619" 
d="M575 582c2.66699 -65.333 -7.66797 -114.5 -31.001 -147.5s-58.333 -49.5 -105 -49.5c-37.333 0 -72.666 13 -105.999 39c-22 -26 -52 -39 -90 -39c-22 0 -44.333 6 -67 18l21 -403h-86l-35 665l86 15l10 -194c18 -12.667 37.667 -19 59 -19c52 0 76.667 38.333 74 115
l-5 83l66 15l5 -98c2 -37.333 -0.333008 -68.333 -7 -93c22 -14.667 43.333 -22 64 -22c52.667 0 77 38.333 73 115l-5 83l73 15z" />
    <glyph glyph-name="uni0664" unicode="&#x664;" horiz-adv-x="495" 
d="M270 74c62.667 0 127.668 8.66699 195.001 26l-11 -84c-68 -19.333 -131 -29 -189 -29c-70.667 0 -125.334 14 -164.001 42s-58 68 -58 120c0 84.667 49.667 149.334 149 194.001c-41.333 10.667 -73.833 30 -97.5 58s-35.5 63.333 -35.5 106c0 52 18.667 95.5 56 130.5
s84.333 52.5 141 52.5c41.333 0 100.333 -14 177 -42l-24 -73c-60.667 20 -106.667 30 -138 30c-40.667 0 -73.167 -10.167 -97.5 -30.5s-36.5 -47.5 -36.5 -81.5c0 -38 19 -67.167 57 -87.5s83 -26.833 135 -19.5h-1l78 20l17 -68l-176 -47
c-38.667 -9.33301 -69 -25.5 -91 -48.5s-33 -49.167 -33 -78.5c0 -28.667 12.5 -50.834 37.5 -66.501s61.5 -23.5 109.5 -23.5z" />
    <glyph glyph-name="uni0665" unicode="&#x665;" horiz-adv-x="593" 
d="M296 680c65.333 0 123.333 -39.501 174 -118.501s76 -181.5 76 -307.5c0 -83.333 -22 -148.666 -66 -195.999s-105 -71 -183 -71c-76.667 0 -137.667 23.667 -183 71s-68 112.333 -68 195c0 74.667 10.5 144.5 31.5 209.5s50.833 117.5 89.5 157.5s81.667 60 129 60z
M292 592.999c-46 0 -85.502 -33 -118.502 -99s-49.5 -142.333 -49.5 -229c0 -64 15.333 -111.833 46 -143.5s73.334 -47.5 128.001 -47.5s96.834 16.167 126.501 48.5s44.5 79.833 44.5 142.5c0 90 -16.5 167.167 -49.5 231.5s-75.5 96.5 -127.5 96.5z" />
    <glyph glyph-name="uni0666" unicode="&#x666;" horiz-adv-x="434" 
d="M274 680l82 -72l-31 -608h-86l31 590h-297l22 90h279z" />
    <glyph glyph-name="uni0667" unicode="&#x667;" horiz-adv-x="540" 
d="M456 680h97l-236 -685l-81 -9l-249 694h98l190 -575z" />
    <glyph glyph-name="uni0668" unicode="&#x668;" horiz-adv-x="540" 
d="M553 0h-98l-190 575l-181 -575h-97l236 685l81 9z" />
    <glyph glyph-name="uni0669" unicode="&#x669;" horiz-adv-x="542" 
d="M383 691l82 -73l-32 -618h-85l13 256c-40 -15.333 -79 -23 -117 -23c-65.333 0 -118 19.333 -158 58s-60 90.667 -60 156c0 72 22.667 130.5 68 175.5s103 67.5 173 67.5zM254 321c40 0 77 6.33301 111 19l13 260h-117c-46 0 -83.5 -14.667 -112.5 -44
s-43.5 -65.333 -43.5 -108c0 -39.333 13.167 -70.333 39.5 -93s62.833 -34 109.5 -34z" />
    <glyph glyph-name="uni066A" unicode="&#x66a;" horiz-adv-x="520" 
d="M174 0h-80l352 680h79zM132 530l-74 73l73 72l74 -72zM394 43l-74 72l73 73l74 -73z" />
    <glyph glyph-name="uni066B" unicode="&#x66b;" horiz-adv-x="240" 
d="M55 -130l-55 5.00098c24.667 65.333 39.667 136.666 45 213.999h79c-6.66699 -73.333 -29.667 -146.333 -69 -219z" />
    <glyph glyph-name="uni066C" unicode="&#x66c;" horiz-adv-x="240" 
d="M61 -130l-55 5c26 68 41 139.333 45 214h80c-6.66699 -74 -30 -147 -70 -219z" />
    <glyph glyph-name="uni066D" unicode="&#x66d;" horiz-adv-x="360" 
d="M235 230l91 -52l-25 -45l-92 53v-106h-50v106l-93 -53l-25 45l92 52l-92 53l25 45l93 -54v106h50v-106l92 54l25 -45z" />
    <glyph glyph-name="uni066E" unicode="&#x66e;" horiz-adv-x="831" 
d="M680 483l85 13.999v-305c0 -61.333 -17.833 -108.666 -53.5 -141.999s-88.167 -50 -157.5 -50h-267c-79.333 -0 -139.833 18.333 -181.5 55s-62.5 90.667 -62.5 162c0 48.667 7 105.667 21 171l75 -10c-10.667 -59.333 -16 -105 -16 -137
c0 -100.667 61.333 -151 184 -151h247c84 0 126 41.667 126 125v268z" />
    <glyph glyph-name="uni066F" unicode="&#x66f;" horiz-adv-x="769" 
d="M500 475c62 -1.33301 112.333 -22.499 151 -63.499s58 -94.833 58 -161.5v-200c0 -86 -30 -151.667 -90 -197s-150 -68 -270 -68c-92 0 -166 22.333 -222 67s-84 108.667 -84 192c0 71.333 14.667 151.666 44 240.999l69 -19c-23.333 -68.667 -35 -135.334 -35 -200.001
c0.666992 -66 22.667 -115.833 66 -149.5s104 -50.5 182 -50.5c75.333 0 136.333 15 183 45s72.334 71 77.001 123c-46.667 -22.667 -91.334 -34 -134.001 -34c-65.333 0 -118.5 20.833 -159.5 62.5s-61.5 97.5 -61.5 167.5c0 72.667 21.167 131.834 63.5 177.501
s96.5 68.167 162.5 67.5zM353 234.001c0 -47.333 13.832 -83.667 41.499 -109s64.834 -38 111.501 -38c41.333 0 81 7.33301 119 22v134c0 42.667 -12.167 77.167 -36.5 103.5s-56.5 39.833 -96.5 40.5c-41.333 1.33301 -74.833 -12 -100.5 -40s-38.5 -65.667 -38.5 -113z
" />
    <glyph glyph-name="uni0670" unicode="&#x670;" 
d="M-36 782l59 -20v-72c0 -34 4 -64 12 -90h-57c-9.33301 26 -14 56 -14 90v92z" />
    <glyph glyph-name="uni06A1" unicode="&#x6a1;" horiz-adv-x="950" 
d="M689 485c64.667 0 118.499 -21.833 161.499 -65.5s64.5 -98.167 64.5 -163.5c0 -80 -24.667 -142.667 -74 -188s-117.666 -68 -204.999 -68h-220h-129c-79.333 -0 -139.833 18.333 -181.5 55s-62.5 90.667 -62.5 162c0 48.667 7 105.667 21 171l75 -10
c-10.667 -59.333 -16 -105 -16 -137c0 -100.667 61.333 -151 184 -151h195c-30 65.333 -45 119.333 -45 162c0 67.333 21.833 123 65.5 167s99.167 66 166.5 66zM642.999 90c57.333 0 102.833 14.333 136.5 43s50.5 68.667 50.5 120c0 42.667 -13.833 77.834 -41.5 105.501
s-62.5 41.5 -104.5 41.5c-40 0 -74 -14.833 -102 -44.5s-42 -64.5 -42 -104.5c0 -46.667 16.667 -100.334 50 -161.001h53z" />
    <glyph glyph-name="uni06A4" unicode="&#x6a4;" horiz-adv-x="950" 
d="M739 767l-52 -52l-53 52l52 53zM676 645l-72 -73l-74 73l73 72zM769 572l-74 73l74 72l73 -72zM689 485c64 0 117.667 -21.833 161 -65.5s65 -98.167 65 -163.5c0 -80 -24.833 -142.667 -74.5 -188s-118.167 -68 -205.5 -68h-219h-129
c-79.333 -0 -139.833 18.333 -181.5 55s-62.5 90.667 -62.5 162c0 45.333 7.33301 102.333 22 171l74 -10c-10.667 -59.333 -16 -105 -16 -137c0 -100.667 61.333 -151 184 -151h195c-30 62.667 -45 116.667 -45 162c0 67.333 21.833 123 65.5 167s99.167 66 166.5 66z
M642 90c57.333 0 103 14.332 137 42.999s51 68.667 51 120c0 42.667 -13.833 77.834 -41.5 105.501s-62.5 41.5 -104.5 41.5c-40 0 -74 -14.833 -102 -44.5s-42 -64.5 -42 -104.5c0 -48 16.667 -101.667 50 -161h52z" />
    <glyph glyph-name="uni06BA" unicode="&#x6ba;" horiz-adv-x="675" 
d="M316 -215c-84 0 -150.501 21.835 -199.501 65.502s-73.5 108.167 -73.5 193.5c0 71.333 14.667 151.666 44 240.999l69 -19c-23.333 -68.667 -35 -135.334 -35 -200.001c0.666992 -62.667 18.334 -110.167 53.001 -142.5s83.667 -48.5 147 -48.5
c66.667 0 116.167 18.833 148.5 56.5s48.5 95.834 48.5 174.501v377l84 14v-400c0 -96.667 -23.333 -172.834 -70 -228.501s-118.667 -83.5 -216 -83.5z" />
    <glyph glyph-name="endash" unicode="&#x2013;" horiz-adv-x="668" 
d="M63 254v72h541v-72h-541z" />
    <glyph glyph-name="emdash" unicode="&#x2014;" horiz-adv-x="968" 
d="M63 254v72h841v-72h-841z" />
    <glyph glyph-name="quoteleft" unicode="&#x2018;" horiz-adv-x="225" 
d="M119 684l55 -5c-26 -68 -41 -139.333 -45 -214h-79c6.66699 73.333 29.667 146.333 69 219z" />
    <glyph glyph-name="quoteright" unicode="&#x2019;" horiz-adv-x="226" 
d="M105 465l-54 5.00098c25.333 65.333 40.333 136.666 45 213.999h79c-6.66699 -74 -30 -147 -70 -219z" />
    <glyph glyph-name="quotesinglbase" unicode="&#x201a;" horiz-adv-x="181" 
d="M61 -130l-55 5c26 68 41 139.333 45 214h80c-6.66699 -74 -30 -147 -70 -219z" />
    <glyph glyph-name="quotedblleft" unicode="&#x201c;" horiz-adv-x="360" 
d="M119 684l55 -5c-26 -68 -41 -139.333 -45 -214h-79c6.66699 73.333 29.667 146.333 69 219zM255 684l55 -5c-26 -68 -41 -139.333 -45 -214h-79c6.66699 73.333 29.667 146.333 69 219z" />
    <glyph glyph-name="quotedblright" unicode="&#x201d;" horiz-adv-x="362" 
d="M105 465l-54 5.00098c25.333 65.333 40.333 136.666 45 213.999h79c-6.66699 -74 -30 -147 -70 -219zM241 465.001l-54 5.00098c25.333 65.333 40.333 136.666 45 213.999h79c-6.66699 -74 -30 -147 -70 -219z" />
    <glyph glyph-name="quotedblbase" unicode="&#x201e;" horiz-adv-x="316" 
d="M61 -130l-55 5c26 68 41 139.333 45 214h80c-6.66699 -74 -30 -147 -70 -219zM197 -130l-55 5.00098c24.667 65.333 39.667 136.666 45 213.999h79c-6.66699 -73.333 -29.667 -146.333 -69 -219z" />
    <glyph glyph-name="dagger" unicode="&#x2020;" horiz-adv-x="630" 
d="M580 423l-232 11l10 -634h-85l10 634l-233 -11v78l233 -11l-10 190h85l-10 -190l232 11v-78z" />
    <glyph glyph-name="daggerdbl" unicode="&#x2021;" horiz-adv-x="630" 
d="M348 423l10 -147l-10 -147h232v-77l-232 10l10 -262h-85l10 262l-233 -11v78h233l-10 147l10 147h-233v78l233 -11l-10 190h85l-10 -190l232 11v-78h-232z" />
    <glyph glyph-name="bullet" unicode="&#x2022;" horiz-adv-x="307" 
d="M218 184h-129v122h129v-122z" />
    <glyph glyph-name="ellipsis" unicode="&#x2026;" horiz-adv-x="544" 
d="M142 0h-76v104h76v-104zM310 0h-76v104h76v-104zM478 0h-76v104h76v-104z" />
    <glyph glyph-name="perthousand" unicode="&#x2030;" horiz-adv-x="1170" 
d="M193 322c-50 0 -88.333 17.167 -115 51.5s-40 78.5 -40 132.5s13.333 98.167 40 132.5s65 51.5 115 51.5c49.333 0 87.333 -17.167 114 -51.5s40 -78.5 40 -132.5s-13.333 -98.167 -40 -132.5s-64.667 -51.5 -114 -51.5zM445 370h-54l166 310h73zM192 644
c-32.667 0 -57.5 -12.5 -74.5 -37.5s-25.5 -58.5 -25.5 -100.5s8.5 -75.5 25.5 -100.5s41.833 -37.5 74.5 -37.5c33.333 0 58.333 12.5 75 37.5s25 58.5 25 100.5s-8.33301 75.5 -25 100.5s-41.667 37.5 -75 37.5zM610 -8c-50 0 -88.167 17.167 -114.5 51.5
s-39.5 78.5 -39.5 132.5s13.167 98.167 39.5 132.5s64.5 51.5 114.5 51.5s88.333 -17.167 115 -51.5s40 -78.5 40 -132.5s-13.333 -98.167 -40 -132.5s-65 -51.5 -115 -51.5zM980 -8c-50 0 -88.333 17.167 -115 51.5s-40 78.5 -40 132.5s13.333 98.167 40 132.5
s65 51.5 115 51.5c49.333 0 87.333 -17.167 114 -51.5s40 -78.5 40 -132.5s-13.333 -98.167 -40 -132.5s-64.667 -51.5 -114 -51.5zM610 314c-32.667 0 -57.5 -12.5 -74.5 -37.5s-25.5 -58.5 -25.5 -100.5s8.5 -75.5 25.5 -100.5s41.833 -37.5 74.5 -37.5
c33.333 0 58.333 12.5 75 37.5s25 58.5 25 100.5s-8.33301 75.5 -25 100.5s-41.667 37.5 -75 37.5zM979 314c-32.667 0 -57.5 -12.5 -74.5 -37.5s-25.5 -58.5 -25.5 -100.5s8.5 -75.5 25.5 -100.5s41.833 -37.5 74.5 -37.5c33.333 0 58.333 12.5 75 37.5s25 58.5 25 100.5
s-8.33301 75.5 -25 100.5s-41.667 37.5 -75 37.5zM351 310h55l-166 -310h-73z" />
    <glyph glyph-name="guilsinglleft" unicode="&#x2039;" horiz-adv-x="323" 
d="M273 444l-159 -194l159 -194h-64l-168 194l168 194h64z" />
    <glyph glyph-name="guilsinglright" unicode="&#x203a;" horiz-adv-x="323" 
d="M48 444h65l167 -194l-167 -194h-65l160 194z" />
    <glyph glyph-name="fraction" unicode="&#x2044;" horiz-adv-x="463" 
d="M389 680h74l-390 -680h-73z" />
    <glyph glyph-name="Euro" unicode="&#x20ac;" horiz-adv-x="744" 
d="M679 544c-66.667 46 -141.665 68.998 -224.998 68.998c-58.667 0 -108.334 -15.5 -149.001 -46.5s-68.334 -74.167 -83.001 -129.5h228v-54h-241c-0.666992 -9.33301 -1 -23.666 -1 -42.999c0 -11.333 0.666992 -27 2 -47h240v-55h-226
c15.333 -53.333 43 -95.166 83 -125.499s89 -45.5 147 -45.5c83.333 0 158.333 23 225 69v-85c-68 -40.667 -144.333 -61 -229 -61s-156.167 21.833 -214.5 65.5s-96.5 104.5 -114.5 182.5h-79v55h69c-2 15.333 -3 31 -3 47c0 14.667 1 29 3 43h-69v54h77
c18 79.333 56.333 141.333 115 186s130.667 67 216 67c86 0 162.333 -20.333 229 -61v-85z" />
    <glyph glyph-name="trademark" unicode="&#x2122;" horiz-adv-x="716" 
d="M499 379h-27l-91 226v-226h-45v302h58l93 -228l93 228h58v-302h-47v226zM151 379v260h-91v42h229v-42h-91v-260h-47z" />
    <glyph glyph-name="partialdiff" unicode="&#x2202;" horiz-adv-x="622" 
d="M81 635c34.667 20.667 66.666 34.999 95.999 42.999s63 12 101 12c50.667 0 95.334 -10.167 134.001 -30.5s69 -48.166 91 -83.499s38.333 -73.666 49 -114.999s16 -85.666 16 -132.999c0 -103.333 -22.5 -185.5 -67.5 -246.5s-110.833 -91.5 -197.5 -91.5
c-80.667 0 -143.667 22.667 -189 68s-68 99.666 -68 162.999c0 57.333 20 105.666 60 144.999s92.667 59 158 59c91.333 0 162 -32.333 212 -97c0 190 -69.667 285 -209 285c-32.667 0 -62.5 -4.66699 -89.5 -14s-59.167 -25.333 -96.5 -48v84zM470.999 261.999
c-16.667 27.333 -41 50.332 -73 68.999s-67 28 -105 28c-46 0 -82.833 -13 -110.5 -39s-41.5 -60.667 -41.5 -104c0 -42 14.833 -77.333 44.5 -106s66.834 -43 111.501 -43c55.333 0 97.666 19.333 126.999 58s45 84.334 47 137.001z" />
    <glyph glyph-name="emptyset" unicode="&#x2205;" horiz-adv-x="594" 
d="M460 456c58 -47.333 87.001 -116.001 87.001 -206.001c0 -74.667 -22 -136.667 -66 -186s-105.333 -74 -184 -74c-44.667 0 -84.334 9 -119.001 27l-43 -67h-61l59 94c-58 48.667 -87 117.334 -87 206.001c0 74.667 22 136.667 66 186s105.667 74 185 74
c44 0 83.333 -9 118 -27l44 67h61zM381.001 425.999c-23.333 14.667 -51.333 22 -84 22c-54 0 -94.333 -19.5 -121 -58.5s-40 -85.5 -40 -139.5c0 -52.667 14.333 -96.667 43 -132zM214.001 74.999c22.667 -15.333 50.333 -23.001 83 -23.001c54 0 94.333 19.333 121 58
s40 85.334 40 140.001c0 53.333 -14.667 97 -44 131z" />
    <glyph glyph-name="product" unicode="&#x220f;" horiz-adv-x="721" 
d="M182 601v-601h-93v680h543v-680h-94v601h-356z" />
    <glyph glyph-name="summation" unicode="&#x2211;" horiz-adv-x="594" 
d="M49 680h487v-79h-377l191 -261l-191 -260h377v-80h-487v78l193 262l-193 262v78z" />
    <glyph glyph-name="minus" unicode="&#x2212;" horiz-adv-x="579" 
d="M69 294v72h441v-72h-441z" />
    <glyph glyph-name="radical" unicode="&#x221a;" horiz-adv-x="770" 
d="M763 680l-267 -685h-108l-114 299h-231v72h300l102 -274l218 588h100z" />
    <glyph glyph-name="infinity" unicode="&#x221e;" horiz-adv-x="787" 
d="M551 572c55.333 0 98.502 -22 129.502 -66s46.5 -98.333 46.5 -163c0 -70 -15.333 -127 -46 -171s-75 -66 -133 -66c-39.333 0 -72 12.5 -98 37.5s-45 57.833 -57 98.5c-12.667 -41.333 -31.834 -74.333 -57.501 -99s-58.5 -37 -98.5 -37c-58 0 -102.333 22 -133 66
s-46 101 -46 171c0 64.667 15.667 119 47 163s74.666 66 129.999 66c36 0 67.833 -12.333 95.5 -37s48.5 -57 62.5 -97c13.333 39.333 34 71.5 62 96.5s60 37.5 96 37.5zM244.002 195c32.667 0 59.332 14 79.999 42s34 66.333 40 115
c-8.66699 38.667 -23.667 70.167 -45 94.5s-47 36.5 -77 36.5c-31.333 0 -57.166 -12.333 -77.499 -37s-30.5 -60 -30.5 -106s10.5 -81.667 31.5 -107s47.167 -38 78.5 -38zM542 195c31.333 0 57.499 12.667 78.499 38s31.5 61 31.5 107s-10 81.333 -30 106
s-45.667 37 -77 37c-30.667 0 -56.667 -12.167 -78 -36.5s-36.333 -55.833 -45 -94.5c6 -48.667 19.333 -87 40 -115s47.334 -42 80.001 -42z" />
    <glyph glyph-name="integral" unicode="&#x222b;" horiz-adv-x="378" 
d="M144 546c0 96 46 144 138 144c26.667 0 52.334 -3.33301 77.001 -10v-70c-19.333 6.66699 -39.666 10 -60.999 10s-37.333 -5.33301 -48 -16s-16 -30.667 -16 -60v-600c0 -96 -46 -144 -138 -144c-26.667 0 -52.334 3.33301 -77.001 10v70c20 -6.66699 40.667 -10 62 -10
s37.166 5.33301 47.499 16s15.5 30.667 15.5 60v600z" />
    <glyph glyph-name="approxequal" unicode="&#x2248;" horiz-adv-x="500" 
d="M431 484c0 -65.333 -25.333 -98 -76 -98c-15.333 0 -49.333 6 -102 18s-84.334 18 -95.001 18c-20.667 0 -31 -12 -31 -36h-55c0 65.333 25.333 98 76 98c14 0 47.833 -5.83301 101.5 -17.5s85.834 -17.5 96.501 -17.5c20 0 30 11.667 30 35h55zM431 277
c0 -66 -25.333 -99 -76 -99c-15.333 0 -49.333 6 -102 18s-84.334 18 -95.001 18c-20.667 0 -31 -12 -31 -36h-55c0 66 25.333 99 76 99c14 0 47.833 -6 101.5 -18s85.834 -18 96.501 -18c20 0 30 12 30 36h55z" />
    <glyph glyph-name="notequal" unicode="&#x2260;" horiz-adv-x="563" 
d="M350 394l-68 -129h220v-72h-254l-103 -193h-79l103 193h-108v72h142l68 129h-210v72h245l111 214h80l-112 -214h117v-72h-152z" />
    <glyph glyph-name="lessequal" unicode="&#x2264;" horiz-adv-x="567" 
d="M503 227l-441 100v100l441 99v-72l-355 -78l355 -77v-72zM503 70h-441v68h441v-68z" />
    <glyph glyph-name="greaterequal" unicode="&#x2265;" horiz-adv-x="567" 
d="M62 227v72l356 77l-356 78v72l441 -99v-100zM62 70v68h441v-68h-441z" />
    <glyph glyph-name="lozenge" unicode="&#x25ca;" horiz-adv-x="553" 
d="M518 340l-204 -350h-75l-205 350l205 350h75zM421 340l-143 245l-146 -245l146 -245z" />
    <glyph glyph-name="uniFBB2" unicode="&#xfbb2;" 
d="M1 570l-74 73l72 72l75 -72z" />
    <glyph glyph-name="uniFBB3" unicode="&#xfbb3;" 
d="M1 -227l-74 72l72 73l75 -73z" />
    <glyph glyph-name="uniFBB4" unicode="&#xfbb4;" 
d="M-79 555l-73 72l73 72l73 -72zM80 555l-74 72l74 72l73 -72z" />
    <glyph glyph-name="uniFBB5" unicode="&#xfbb5;" 
d="M-79 -245l-73 72l73 72l73 -72zM80 -245l-74 72l74 72l73 -72z" />
    <glyph glyph-name="uniFBB6" unicode="&#xfbb6;" 
d="M1 718l-53 52l52 53l53 -53zM-82 575l-74 73l73 72l73 -72zM83 575l-74 73l74 72l73 -72z" />
    <glyph glyph-name="uniFBB9" unicode="&#xfbb9;" 
d="M-82 -249l-73 73l72 72l74 -72zM84 -249l-75 73l74 72l73 -72zM1 -343l-47 47l46 47l48 -47z" />
    <glyph glyph-name="uniFD3E" unicode="&#xfd3e;" horiz-adv-x="300" 
d="M313 -143c-30.667 0 -57.667 2.33594 -81 7.00293s-45.666 13 -66.999 25s-37.833 30 -49.5 54s-17.5 53.667 -17.5 89c0 21.333 3.33301 54 10 98s10 76.333 10 97c0 29.333 -7 50.166 -21 62.499s-35.667 18.5 -65 18.5v64c29.333 0 51 6.16699 65 18.5
s21 33.166 21 62.499c0 20.667 -3.33301 53.167 -10 97.5s-10 77.166 -10 98.499c0 34.667 5.83301 64 17.5 88s28.167 42 49.5 54s43.666 20.333 66.999 25s50.333 7 81 7v-65c-47.333 0 -79.833 -9 -97.5 -27s-26.5 -46.333 -26.5 -85c0 -18.667 3.16699 -49.5 9.5 -92.5
s9.5 -73.833 9.5 -92.5c0 -68.667 -33.667 -109 -101 -121c67.333 -12 101 -52.333 101 -121c0 -18 -3.16699 -48.5 -9.5 -91.5s-9.5 -74.167 -9.5 -93.5c0 -38.667 8.83301 -67 26.5 -85s50.167 -27 97.5 -27v-65z" />
    <glyph glyph-name="uniFD3F" unicode="&#xfd3f;" horiz-adv-x="300" 
d="M313 308c-29.333 0 -51.166 -6.16797 -65.499 -18.501s-21.5 -33.166 -21.5 -62.499c0 -20.667 3.33301 -53 10 -97s10 -76.667 10 -98c0 -28 -4 -52.667 -12 -74s-18.333 -38.333 -31 -51s-28.667 -22.834 -48 -30.501s-38.833 -12.834 -58.5 -15.501s-41.5 -4 -65.5 -4
v65c48 0 80.833 9 98.5 27s26.5 46.333 26.5 85c0 19.333 -3.16699 50.5 -9.5 93.5s-9.5 73.5 -9.5 91.5c0 68 33.333 108.333 100 121c-66.667 12.667 -100 53 -100 121c0 18.667 3.16699 49.5 9.5 92.5s9.5 73.833 9.5 92.5c0 38.667 -8.83301 67 -26.5 85
s-50.5 27 -98.5 27v65c30.667 0 57.834 -2.33301 81.501 -7s46.167 -13 67.5 -25s37.666 -30 48.999 -54s17 -53.333 17 -88c0 -21.333 -3.33301 -54.166 -10 -98.499s-10 -76.833 -10 -97.5c0 -29.333 7.16699 -50.166 21.5 -62.499s36.166 -18.5 65.499 -18.5v-64z" />
    <glyph glyph-name=".null" 
 />
    <glyph glyph-name="nonmarkingreturn" horiz-adv-x="333" 
 />
    <glyph glyph-name="uni0627.short" horiz-adv-x="257" 
d="M90 0v590l85 13v-603h-85z" />
    <glyph glyph-name="uniFE8E.short" horiz-adv-x="297" 
d="M297 0c-140 0 -210 66.667 -210 200l-1 390l85 13v-383c0 -86.667 41.667 -130 125 -130c6.66699 0 10 -3 10 -9l1 -71c0 -6.66699 -3.33301 -10 -10 -10z" />
    <glyph glyph-name="uni066E.medi.alt" horiz-adv-x="376" 
d="M376 90c6.66699 0 10 -3 10 -9v-71c0 -6.66699 -3.33301 -10 -10 -10c-62 -0 -119.333 24.333 -172 73c-36 -48.667 -104 -73 -204 -73c-6.66699 -0 -10 3.33301 -10 10l1 71c0 6 3.33301 9 10 9c53.333 0 92.166 9.83301 116.499 29.5s36.5 51.5 36.5 95.5v162l84 13
v-198c0 -16.667 -1.66699 -34 -5 -52c44.667 -33.333 92.334 -50 143.001 -50z" />
    <glyph glyph-name="uni066E.init.alt" horiz-adv-x="353" 
d="M0 0c-6.66699 0 -10.001 3.33203 -10.001 9.99902l1 71c0 6 3.33301 9 10 9h76c83.333 0 125 41.667 125 125v268l84 14v-305c0 -61.333 -17.667 -108.666 -53 -141.999s-87.666 -50 -156.999 -50h-76z" />
    <glyph glyph-name="dotcenterar" 
d="M1 172l-74 73l72 72l75 -72z" />
    <glyph glyph-name="waslaar" 
d="M49 658c23.333 0 43.165 -7.66797 59.498 -23.001s24.5 -34.333 24.5 -57c0 -29.333 -13.167 -52.333 -39.5 -69s-62.5 -25 -108.5 -25c-43.333 0 -90 10 -140 30l14 44c21.333 -7.33301 35.333 -11.666 42 -12.999c32.667 41.333 59.834 70.5 81.501 87.5
s43.834 25.5 66.501 25.5zM-15.001 532.999c61.333 0 92 15 92 45c0 8.66699 -3.66699 16.167 -11 22.5s-16 9.5 -26 9.5c-13.333 0 -26.833 -5.16699 -40.5 -15.5s-33.167 -29.5 -58.5 -57.5c14 -2.66699 28.667 -4 44 -4z" />
    <glyph glyph-name="hamzacenterar" 
d="M4 551l137.998 0.00292969l-20 -67h-237v67h61c-12.667 19.333 -19 40 -19 62c0 29.333 9.83301 53.166 29.5 71.499s45.167 27.5 76.5 27.5c24.667 0 50.334 -6.66699 77.001 -20v-61c-29.333 10 -52 15 -68 15c-17.333 0 -31.166 -4.33301 -41.499 -13
s-15.5 -20.334 -15.5 -35.001c0 -16.667 6.33301 -32.334 19 -47.001z" />
    <glyph glyph-name="hamzaaboveDammaar" 
d="M145 1003c0 -58.667 -32.666 -93.999 -97.999 -105.999l-191 -35l-8 44l127 25c-15.333 22 -23 44.333 -23 67c0 30 9.16699 54.333 27.5 73s42.166 28 71.499 28c26 0 48.167 -9.33301 66.5 -28s27.5 -41.334 27.5 -68.001zM21.001 941.001l17 3c39.333 8 59 27 59 57
c0 14.667 -4.66699 26.667 -14 36s-21.333 14 -36 14c-14 0 -25.833 -5.16699 -35.5 -15.5s-14.5 -23.5 -14.5 -39.5c0 -18.667 8 -37 24 -55zM-15.999 746.001c0 -18 5.66504 -33.666 16.998 -46.999h130l-13 -57h-226v57h54c-10.667 17.333 -16 36.666 -16 57.999
c0 24.667 8.5 45.167 25.5 61.5s38.833 24.5 65.5 24.5c22.667 0 48.334 -6.33301 77.001 -19v-49c-23.333 10 -44.666 15 -63.999 15c-14.667 0 -26.667 -4.16699 -36 -12.5s-14 -18.833 -14 -31.5z" />
    <glyph glyph-name="hamzaaboveDammatanar" 
d="M67 1103c26 0 48 -9.33105 66 -27.998s27 -41.334 27 -68.001c0 -57.333 -32 -92.666 -96 -105.999l-195 -37l-27 41c28 16 42 35.333 42 58c0 12.667 -5 23.5 -15 32.5s-24.333 14.5 -43 16.5l9 41c31.333 -2.66699 55.5 -11.834 72.5 -27.501s25.5 -34.5 25.5 -56.5
c0 -18 -5.66699 -35 -17 -51l76 17c-15.333 19.333 -23.333 40.666 -24 63.999c-0.666992 30.667 8.33301 55.667 27 75s42.667 29 72 29zM54 948.002c40 8 60.001 27 60.001 57c0 14.667 -4.83301 26.667 -14.5 36s-21.834 14 -36.501 14
c-14 0 -25.833 -5.16699 -35.5 -15.5s-14.5 -23.5 -14.5 -39.5c0 -18 7.66699 -36.667 23 -56zM-15.999 746.002c0 -18 5.66504 -33.666 16.998 -46.999h130l-13 -57h-226v57h54c-10.667 17.333 -16 36.666 -16 57.999c0 24.667 8.5 45.167 25.5 61.5s38.833 24.5 65.5 24.5
c22.667 0 48.334 -6.33301 77.001 -19v-49c-23.333 10 -44.666 15 -63.999 15c-14.667 0 -26.667 -4.16699 -36 -12.5s-14 -18.833 -14 -31.5z" />
    <glyph glyph-name="hamzaaboveFathaar" 
d="M118 973l10 -48l-255 -54l-9 47zM1 699l129.998 0.000976562l-13 -57h-226v57h54c-10.667 17.333 -16 36.666 -16 57.999c0 24.667 8.5 45.167 25.5 61.5s38.833 24.5 65.5 24.5c22.667 0 48.334 -6.33301 77.001 -19v-49c-23.333 10 -44.666 15 -63.999 15
c-14.667 0 -26.667 -4.16699 -36 -12.5s-14 -18.833 -14 -31.5c0 -18 5.66699 -33.667 17 -47z" />
    <glyph glyph-name="hamzaaboveFathatanar" 
d="M107 1056l10 -44l-251 -52l-10 43zM125 963l8 -43l-250 -53l-9 43zM-16 746c0 -18 5.66504 -33.666 16.998 -46.999h130l-13 -57h-226v57h54c-10.667 17.333 -16 36.666 -16 57.999c0 24.667 8.5 45.167 25.5 61.5s38.833 24.5 65.5 24.5
c22.667 0 48.334 -6.33301 77.001 -19v-49c-23.333 10 -44.666 15 -63.999 15c-14.667 0 -26.667 -4.16699 -36 -12.5s-14 -18.833 -14 -31.5z" />
    <glyph glyph-name="hamzaaboveSukunar" 
d="M15 887c-30 0 -53.332 9.00098 -69.999 27.001s-25 43.667 -25 77c0 34 9.33301 60.333 28 79s43.667 28 75 28c29.333 0 52.666 -9.66699 69.999 -29s26 -45 26 -77c0 -32.667 -9.66699 -58.334 -29 -77.001s-44.333 -28 -75 -28zM18.001 1051
c-12.667 0 -24.334 -5 -35.001 -15s-16 -24.333 -16 -43c0 -39.333 17.667 -59 53 -59c14.667 0 27 4.83301 37 14.5s15 23.834 15 42.501c0 19.333 -5.16699 34.166 -15.5 44.499s-23.166 15.5 -38.499 15.5zM1.00098 699.001l129.998 0.000976562l-13 -57h-226v57h54
c-10.667 17.333 -16 36.666 -16 57.999c0 24.667 8.5 45.167 25.5 61.5s38.833 24.5 65.5 24.5c22.667 0 48.334 -6.33301 77.001 -19v-49c-23.333 10 -44.666 15 -63.999 15c-14.667 0 -26.667 -4.16699 -36 -12.5s-14 -18.833 -14 -31.5c0 -18 5.66699 -33.667 17 -47z
" />
    <glyph glyph-name="hamzabelowKasraar" 
d="M117 -213l-13.001 -56.999h-226v57h55c-10.667 17.333 -16 36.666 -16 57.999c0 24.667 8.5 45.167 25.5 61.5s38.5 24.5 64.5 24.5c23.333 0 49.333 -6.33301 78 -19v-49c-23.333 10 -44.666 15 -63.999 15c-14.667 0 -26.667 -4 -36 -12s-14 -18.667 -14 -32
c0 -19.333 5.66699 -35 17 -47h129zM123.999 -296.999l10 -48l-255 -54l-9 47z" />
    <glyph glyph-name="hamzabelowKasratanar" 
d="M117 -213l-13.001 -56.999h-226v57h55c-10.667 17.333 -16 36.666 -16 57.999c0 24.667 8.5 45.167 25.5 61.5s38.5 24.5 64.5 24.5c23.333 0 49.333 -6.33301 78 -19v-49c-23.333 10 -44.666 15 -63.999 15c-14.667 0 -26.667 -4 -36 -12s-14 -18.667 -14 -32
c0 -19.333 5.66699 -35 17 -47h129zM122.999 -298.999l10 -44l-251 -52l-10 43zM140.999 -391.999l8 -43l-250 -53l-9 43z" />
    <glyph glyph-name="shaddaAlefabovear" 
d="M17 750h-57c-9.33301 26 -14 56 -14 90v92l59 -20v-72c0 -34 4 -64 12 -90zM135 729c12.667 -38 18.998 -69 18.998 -93c0 -25.333 -7.16699 -45.166 -21.5 -59.499s-33.166 -21.5 -56.499 -21.5c-26 0 -46.667 11.333 -62 34c-5.33301 -18 -14.666 -32.333 -27.999 -43
s-29.333 -16 -48 -16c-44.667 0 -71.667 28 -81 84l-9 57l46 7l9 -51c6 -33.333 19.333 -50 40 -50c12 0 21.5 4.16699 28.5 12.5s10.5 20.166 10.5 35.499c0 4 -0.666992 10.667 -2 20l-9 46l45 9l9 -46c3.33301 -17.333 9.33301 -30.333 18 -39s18.667 -12.667 30 -12
c22.667 1.33301 34 14 34 38c0 17.333 -5.66699 41 -17 71z" />
    <glyph glyph-name="shaddaDammaar" 
d="M114 881c0 -58.667 -32.666 -94 -97.999 -106l-191 -36l-8 45l127 25c-15.333 22 -23 44.333 -23 67c0 30 9.16699 54.333 27.5 73s42.166 28 71.499 28c26 0 48.167 -9.5 66.5 -28.5s27.5 -41.5 27.5 -67.5zM-9.99902 819l17 3.00098c39.333 7.33301 59 26 59 56
c0 15.333 -4.66699 27.666 -14 36.999s-21.333 14 -36 14c-14 0 -25.833 -5.16699 -35.5 -15.5s-14.5 -23.5 -14.5 -39.5c0 -18.667 8 -37 24 -55zM135.001 729.001c12.667 -38 18.998 -69 18.998 -93c0 -25.333 -7.16699 -45.166 -21.5 -59.499
s-33.166 -21.5 -56.499 -21.5c-26 0 -46.667 11.333 -62 34c-5.33301 -18 -14.666 -32.333 -27.999 -43s-29.333 -16 -48 -16c-44.667 0 -71.667 28 -81 84l-9 57l46 7l9 -51c6 -33.333 19.333 -50 40 -50c12 0 21.5 4.16699 28.5 12.5s10.5 20.166 10.5 35.499
c0 4 -0.666992 10.667 -2 20l-9 46l45 9l9 -46c3.33301 -17.333 9.33301 -30.333 18 -39s18.667 -12.667 30 -12c22.667 1.33301 34 14 34 38c0 17.333 -5.66699 41 -17 71z" />
    <glyph glyph-name="shaddaDammatanar" 
d="M-176 783c28.667 14.667 42.999 34.001 42.999 58.001c-1.33301 28 -21 44 -59 48l10 42c30.667 -2.66699 54.5 -11.834 71.5 -27.501s25.5 -34.5 25.5 -56.5c0 -18 -5.66699 -35.333 -17 -52l77 17c-16 20 -24 41.667 -24 65c-0.666992 30 8.33301 54.833 27 74.5
s42.334 29.5 71.001 29.5c26 0 48.167 -9.5 66.5 -28.5s27.5 -41.833 27.5 -68.5c0 -56.667 -32 -92 -96 -106l-195 -37zM-4.00098 878.001c0 -19.333 8 -38.334 24 -57.001l17 4c39.333 8 59 27 59 57c0 14.667 -4.66699 26.834 -14 36.501s-21.333 14.5 -36 14.5
c-14 0 -25.833 -5.33301 -35.5 -16s-14.5 -23.667 -14.5 -39zM134.999 729c12.667 -38 18.998 -69 18.998 -93c0 -25.333 -7.16699 -45.166 -21.5 -59.499s-33.166 -21.5 -56.499 -21.5c-26 0 -46.667 11.333 -62 34c-5.33301 -18 -14.666 -32.333 -27.999 -43
s-29.333 -16 -48 -16c-44.667 0 -71.667 28 -81 84l-9 57l46 7l9 -51c6 -33.333 19.333 -50 40 -50c12 0 21.5 4.16699 28.5 12.5s10.5 20.166 10.5 35.499c0 4 -0.666992 10.667 -2 20l-9 46l45 9l9 -46c3.33301 -17.333 9.33301 -30.333 18 -39s18.667 -12.667 30 -12
c22.667 1.33301 34 14 34 38c0 17.333 -5.66699 41 -17 71z" />
    <glyph glyph-name="shaddaFathaar" 
d="M91 851l10 -48l-255 -54l-9 47zM135 729c12.667 -38 18.998 -69 18.998 -93c0 -25.333 -7.16699 -45.166 -21.5 -59.499s-33.166 -21.5 -56.499 -21.5c-26 0 -46.667 11.333 -62 34c-5.33301 -18 -14.666 -32.333 -27.999 -43s-29.333 -16 -48 -16
c-44.667 0 -71.667 28 -81 84l-9 57l46 7l9 -51c6 -33.333 19.333 -50 40 -50c12 0 21.5 4.16699 28.5 12.5s10.5 20.166 10.5 35.499c0 4 -0.666992 10.667 -2 20l-9 46l45 9l9 -46c3.33301 -17.333 9.33301 -30.333 18 -39s18.667 -12.667 30 -12
c22.667 1.33301 34 14 34 38c0 17.333 -5.66699 41 -17 71z" />
    <glyph glyph-name="shaddaFathatanar" 
d="M80 934l10 -44l-251 -52l-10 43zM106 798l-250 -53l-9 43l251 53zM135 729c12.667 -38 18.998 -69 18.998 -93c0 -25.333 -7.16699 -45.166 -21.5 -59.499s-33.166 -21.5 -56.499 -21.5c-26 0 -46.667 11.333 -62 34c-5.33301 -18 -14.666 -32.333 -27.999 -43
s-29.333 -16 -48 -16c-44.667 0 -71.667 28 -81 84l-9 57l46 7l9 -51c6 -33.333 19.333 -50 40 -50c12 0 21.5 4.16699 28.5 12.5s10.5 20.166 10.5 35.499c0 4 -0.666992 10.667 -2 20l-9 46l45 9l9 -46c3.33301 -17.333 9.33301 -30.333 18 -39s18.667 -12.667 30 -12
c22.667 1.33301 34 14 34 38c0 17.333 -5.66699 41 -17 71z" />
    <glyph glyph-name="shaddaKasraar" 
d="M14 589c-5.33301 -18 -14.668 -32.333 -28.001 -43s-29.333 -16 -48 -16c-44.667 0 -71.667 28 -81 84l-9 57l46 7l9 -51c6 -33.333 19.333 -50 40 -50c12 0 21.5 4.16699 28.5 12.5s10.5 20.166 10.5 35.499c0 4 -0.666992 10.667 -2 20l-9 46l45 9l9 -46
c3.33301 -17.333 9.33301 -30.333 18 -39s18.667 -12.667 30 -12c22.667 1.33301 34 14 34 38c0 17.333 -5.66699 41 -17 71l45 17c12.667 -38 19 -69 19 -93c0 -25.333 -7.16699 -45.166 -21.5 -59.499s-33.166 -21.5 -56.499 -21.5c-26 0 -46.667 11.333 -62 34z
M155.998 525l10 -48l-255 -54l-9 47z" />
    <glyph glyph-name="shaddaKasratanar" 
d="M14 589c-5.33301 -18 -14.668 -32.333 -28.001 -43s-29.333 -16 -48 -16c-44.667 0 -71.667 28 -81 84l-9 57l46 7l9 -51c6 -33.333 19.333 -50 40 -50c12 0 21.5 4.16699 28.5 12.5s10.5 20.166 10.5 35.499c0 4 -0.666992 10.667 -2 20l-9 46l45 9l9 -46
c3.33301 -17.333 9.33301 -30.333 18 -39s18.667 -12.667 30 -12c22.667 1.33301 34 14 34 38c0 17.333 -5.66699 41 -17 71l45 17c12.667 -38 19 -69 19 -93c0 -25.333 -7.16699 -45.166 -21.5 -59.499s-33.166 -21.5 -56.499 -21.5c-26 0 -46.667 11.333 -62 34z
M148.998 523l10 -44l-251 -52l-10 43zM166.998 430l8 -43l-250 -53l-9 43z" />
    <glyph glyph-name="terminal1" horiz-adv-x="568" 
d="M85 388l74 -10c-10.667 -59.333 -16 -105 -16 -137c0 -100.667 61.333 -151 184 -151h247c6.66699 0 10 -3 10 -9v-71c0 -6.66699 -3.33301 -10 -10 -10h-267c-79.333 -0 -139.833 18.333 -181.5 55s-62.5 90.667 -62.5 162c0 45.333 7.33301 102.333 22 171z" />
    <glyph glyph-name="terminal2" horiz-adv-x="572" 
d="M107 440l74 -10c-16 -77.333 -24 -139 -24 -185c0 -103.333 61.667 -155 185 -155h239c6.66699 0 10 -3 10 -9v-71c0 -6.66699 -3.33301 -10 -10 -10h-260c-80 0 -140.833 18.667 -182.5 56s-62.5 92.666 -62.5 165.999c0 56.667 10.333 129.334 31 218.001z" />
    <glyph glyph-name="terminal1.alt" horiz-adv-x="484" 
d="M98 388l74 -10c-10.667 -59.333 -16 -105 -16 -137c0 -100.667 61.333 -151 184 -151h117c6.66699 0 10 -3 10 -9v-71c0 -6.66699 -3.33301 -10 -10 -10h-137c-79.333 -0 -139.833 18.333 -181.5 55s-62.5 90.667 -62.5 162c0 45.333 7.33301 102.333 22 171z" />
    <glyph glyph-name="terminal3" horiz-adv-x="383" 
d="M401 -125c6.66699 0 10 -3.33301 10 -10v-70c0 -6.66699 -3.33301 -10 -10 -10h-382l-19 90h401z" />
    <glyph glyph-name="terminal4" horiz-adv-x="383" 
d="M382 -125l-18 -90h-382c-6.66699 0 -10 3.33301 -10 10v70c0 6.66699 3.33301 10 10 10h400z" />
    <glyph glyph-name="waslear.alt" horiz-adv-x="218" 
d="M65 152c50.667 -41.333 101.668 -62 153.001 -62c6.66699 0 10 -3 10 -9v-71c0 -6.66699 -3.33301 -10 -10 -10c-72.667 0 -137.334 34 -194.001 102z" />
    </font>
</defs>
</svg>
